<svg width="135" height="564" viewBox="0 0 135 564" fill="none" xmlns="http://www.w3.org/2000/svg">
<mask id="path-1-outside-1_313_293" maskUnits="userSpaceOnUse" x="-4.50003" y="-0.179939" width="140" height="564" fill="black">
<rect fill="white" x="-4.50003" y="-0.179939" width="140" height="564"/>
<path d="M-0.500001 1.00006L131.44 1.00007L131.44 76.9601L117.4 76.9601L117.4 17.5601L72.76 17.5601L72.76 67.9601L58.72 67.9601L58.72 17.5601L-0.500002 17.5601L-0.500001 1.00006ZM-0.500005 100.316L131.44 100.316L131.44 116.876L-0.500006 116.876L-0.500005 100.316ZM-0.500007 153.051L131.44 153.051L131.44 229.011L117.4 229.011L117.4 169.611L76 169.611L76 219.651L61.78 219.651L61.78 169.611L13.72 169.611L13.72 230.991L-0.500011 230.991L-0.500007 153.051ZM-0.500012 259.047L131.44 259.047L131.44 275.607L13.72 275.607L13.72 333.387L-0.500015 333.387L-0.500012 259.047ZM-0.500016 356.781L131.44 356.781L131.44 389.721C131.44 403.281 128.86 414.681 123.7 423.921C118.66 433.161 111.28 440.121 101.56 444.801C91.84 449.481 79.96 451.821 65.92 451.821C52 451.821 40.06 449.481 30.1 444.801C20.14 440.121 12.52 433.221 7.23998 424.101C2.07998 414.981 -0.500018 403.761 -0.500018 390.441L-0.500016 356.781ZM13.18 373.341L13.18 388.281C13.18 398.601 15.22 407.181 19.3 414.021C23.5 420.981 29.56 426.141 37.48 429.501C45.4 432.981 54.88 434.721 65.92 434.721C77.2 434.721 86.68 432.981 94.36 429.501C102.04 426.141 107.86 420.981 111.82 414.021C115.9 407.181 117.94 398.601 117.94 388.281L117.94 373.341L13.18 373.341ZM-2.84002 517.247C-2.84002 507.887 -1.10002 499.247 2.37998 491.327C5.85998 483.527 10.6 476.807 16.6 471.167L28.12 481.067C23.2 485.747 19.24 491.267 16.24 497.627C13.24 503.987 11.74 510.587 11.74 517.427C11.74 526.187 13.72 532.967 17.68 537.767C21.64 542.687 26.8 545.147 33.16 545.147C37.84 545.147 41.56 544.127 44.32 542.087C47.08 540.167 49.36 537.527 51.16 534.167C53.08 530.927 54.94 527.207 56.74 523.007L65.02 504.107C66.82 500.027 69.1 495.887 71.86 491.687C74.62 487.607 78.22 484.187 82.66 481.427C87.1 478.667 92.5 477.287 98.86 477.287C105.7 477.287 111.7 479.087 116.86 482.687C122.14 486.287 126.28 491.207 129.28 497.447C132.28 503.687 133.78 510.827 133.78 518.867C133.78 526.787 132.28 534.047 129.28 540.647C126.28 547.367 122.38 553.007 117.58 557.567L106.96 548.927C110.68 544.847 113.62 540.347 115.78 535.427C118.06 530.627 119.2 525.107 119.2 518.867C119.2 511.427 117.46 505.427 113.98 500.867C110.62 496.427 106 494.207 100.12 494.207C95.8 494.207 92.26 495.287 89.5 497.447C86.74 499.727 84.52 502.547 82.84 505.907C81.16 509.267 79.54 512.687 77.98 516.167L69.88 534.887C67.72 539.927 65.14 544.487 62.14 548.567C59.14 552.767 55.42 556.067 50.98 558.467C46.54 560.867 41.08 562.067 34.6 562.067C27.64 562.067 21.28 560.267 15.52 556.667C9.87998 553.067 5.37998 547.907 2.01998 541.187C-1.22002 534.467 -2.84002 526.487 -2.84002 517.247Z"/>
</mask>
<path d="M-0.500001 1.00006L-0.500001 6.15833e-05L-1.5 6.15396e-05L-1.5 1.00006L-0.500001 1.00006ZM131.44 1.00007L132.44 1.00007L132.44 6.73943e-05L131.44 6.73506e-05L131.44 1.00007ZM131.44 76.9601L131.44 77.9601L132.44 77.9601L132.44 76.9601L131.44 76.9601ZM117.4 76.9601L116.4 76.9601L116.4 77.9601L117.4 77.9601L117.4 76.9601ZM117.4 17.5601L118.4 17.5601L118.4 16.5601L117.4 16.5601L117.4 17.5601ZM72.76 17.5601L72.76 16.5601L71.76 16.5601L71.76 17.5601L72.76 17.5601ZM72.76 67.9601L72.76 68.9601L73.76 68.9601L73.76 67.9601L72.76 67.9601ZM58.72 67.9601L57.72 67.9601L57.72 68.9601L58.72 68.9601L58.72 67.9601ZM58.72 17.5601L59.72 17.5601L59.72 16.5601L58.72 16.5601L58.72 17.5601ZM-0.500002 17.5601L-1.5 17.5601L-1.5 18.5601L-0.500002 18.5601L-0.500002 17.5601ZM-0.500001 1.00006L-0.500001 2.00006L131.44 2.00007L131.44 1.00007L131.44 6.73506e-05L-0.500001 6.15833e-05L-0.500001 1.00006ZM131.44 1.00007L130.44 1.00007L130.44 76.9601L131.44 76.9601L132.44 76.9601L132.44 1.00007L131.44 1.00007ZM131.44 76.9601L131.44 75.9601L117.4 75.9601L117.4 76.9601L117.4 77.9601L131.44 77.9601L131.44 76.9601ZM117.4 76.9601L118.4 76.9601L118.4 17.5601L117.4 17.5601L116.4 17.5601L116.4 76.9601L117.4 76.9601ZM117.4 17.5601L117.4 16.5601L72.76 16.5601L72.76 17.5601L72.76 18.5601L117.4 18.5601L117.4 17.5601ZM72.76 17.5601L71.76 17.5601L71.76 67.9601L72.76 67.9601L73.76 67.9601L73.76 17.5601L72.76 17.5601ZM72.76 67.9601L72.76 66.9601L58.72 66.9601L58.72 67.9601L58.72 68.9601L72.76 68.9601L72.76 67.9601ZM58.72 67.9601L59.72 67.9601L59.72 17.5601L58.72 17.5601L57.72 17.5601L57.72 67.9601L58.72 67.9601ZM58.72 17.5601L58.72 16.5601L-0.500001 16.5601L-0.500002 17.5601L-0.500002 18.5601L58.72 18.5601L58.72 17.5601ZM-0.500002 17.5601L0.499998 17.5601L0.499999 1.00006L-0.500001 1.00006L-1.5 1.00006L-1.5 17.5601L-0.500002 17.5601ZM-0.500005 100.316L-0.500005 99.3165L-1.50001 99.3165L-1.50001 100.316L-0.500005 100.316ZM131.44 100.316L132.44 100.316L132.44 99.3165L131.44 99.3165L131.44 100.316ZM131.44 116.876L131.44 117.876L132.44 117.876L132.44 116.876L131.44 116.876ZM-0.500006 116.876L-1.50001 116.876L-1.50001 117.876L-0.500006 117.876L-0.500006 116.876ZM-0.500005 100.316L-0.500005 101.316L131.44 101.316L131.44 100.316L131.44 99.3165L-0.500005 99.3165L-0.500005 100.316ZM131.44 100.316L130.44 100.316L130.44 116.876L131.44 116.876L132.44 116.876L132.44 100.316L131.44 100.316ZM131.44 116.876L131.44 115.876L-0.500006 115.876L-0.500006 116.876L-0.500006 117.876L131.44 117.876L131.44 116.876ZM-0.500006 116.876L0.499994 116.876L0.499995 100.316L-0.500005 100.316L-1.50001 100.316L-1.50001 116.876L-0.500006 116.876ZM-0.500007 153.051L-0.500007 152.051L-1.50001 152.051L-1.50001 153.051L-0.500007 153.051ZM131.44 153.051L132.44 153.051L132.44 152.051L131.44 152.051L131.44 153.051ZM131.44 229.011L131.44 230.011L132.44 230.011L132.44 229.011L131.44 229.011ZM117.4 229.011L116.4 229.011L116.4 230.011L117.4 230.011L117.4 229.011ZM117.4 169.611L118.4 169.611L118.4 168.611L117.4 168.611L117.4 169.611ZM76 169.611L76 168.611L75 168.611L75 169.611L76 169.611ZM76 219.651L76 220.651L77 220.651L77 219.651L76 219.651ZM61.78 219.651L60.78 219.651L60.78 220.651L61.78 220.651L61.78 219.651ZM61.78 169.611L62.78 169.611L62.78 168.611L61.78 168.611L61.78 169.611ZM13.72 169.611L13.72 168.611L12.72 168.611L12.72 169.611L13.72 169.611ZM13.72 230.991L13.72 231.991L14.72 231.991L14.72 230.991L13.72 230.991ZM-0.500011 230.991L-1.50001 230.991L-1.50001 231.991L-0.500011 231.991L-0.500011 230.991ZM-0.500007 153.051L-0.500007 154.051L131.44 154.051L131.44 153.051L131.44 152.051L-0.500007 152.051L-0.500007 153.051ZM131.44 153.051L130.44 153.051L130.44 229.011L131.44 229.011L132.44 229.011L132.44 153.051L131.44 153.051ZM131.44 229.011L131.44 228.011L117.4 228.011L117.4 229.011L117.4 230.011L131.44 230.011L131.44 229.011ZM117.4 229.011L118.4 229.011L118.4 169.611L117.4 169.611L116.4 169.611L116.4 229.011L117.4 229.011ZM117.4 169.611L117.4 168.611L76 168.611L76 169.611L76 170.611L117.4 170.611L117.4 169.611ZM76 169.611L75 169.611L75 219.651L76 219.651L77 219.651L77 169.611L76 169.611ZM76 219.651L76 218.651L61.78 218.651L61.78 219.651L61.78 220.651L76 220.651L76 219.651ZM61.78 219.651L62.78 219.651L62.78 169.611L61.78 169.611L60.78 169.611L60.78 219.651L61.78 219.651ZM61.78 169.611L61.78 168.611L13.72 168.611L13.72 169.611L13.72 170.611L61.78 170.611L61.78 169.611ZM13.72 169.611L12.72 169.611L12.72 230.991L13.72 230.991L14.72 230.991L14.72 169.611L13.72 169.611ZM13.72 230.991L13.72 229.991L-0.500011 229.991L-0.500011 230.991L-0.500011 231.991L13.72 231.991L13.72 230.991ZM-0.500011 230.991L0.499989 230.991L0.499993 153.051L-0.500007 153.051L-1.50001 153.051L-1.50001 230.991L-0.500011 230.991ZM-0.500012 259.047L-0.500012 258.047L-1.50001 258.047L-1.50001 259.047L-0.500012 259.047ZM131.44 259.047L132.44 259.047L132.44 258.047L131.44 258.047L131.44 259.047ZM131.44 275.607L131.44 276.607L132.44 276.607L132.44 275.607L131.44 275.607ZM13.72 275.607L13.72 274.607L12.72 274.607L12.72 275.607L13.72 275.607ZM13.72 333.387L13.72 334.387L14.72 334.387L14.72 333.387L13.72 333.387ZM-0.500015 333.387L-1.50002 333.387L-1.50002 334.387L-0.500015 334.387L-0.500015 333.387ZM-0.500012 259.047L-0.500012 260.047L131.44 260.047L131.44 259.047L131.44 258.047L-0.500012 258.047L-0.500012 259.047ZM131.44 259.047L130.44 259.047L130.44 275.607L131.44 275.607L132.44 275.607L132.44 259.047L131.44 259.047ZM131.44 275.607L131.44 274.607L13.72 274.607L13.72 275.607L13.72 276.607L131.44 276.607L131.44 275.607ZM13.72 275.607L12.72 275.607L12.72 333.387L13.72 333.387L14.72 333.387L14.72 275.607L13.72 275.607ZM13.72 333.387L13.72 332.387L-0.500015 332.387L-0.500015 333.387L-0.500015 334.387L13.72 334.387L13.72 333.387ZM-0.500015 333.387L0.499985 333.387L0.499988 259.047L-0.500012 259.047L-1.50001 259.047L-1.50002 333.387L-0.500015 333.387ZM-0.500016 356.781L-0.500016 355.781L-1.50002 355.781L-1.50002 356.781L-0.500016 356.781ZM131.44 356.781L132.44 356.781L132.44 355.781L131.44 355.781L131.44 356.781ZM123.7 423.921L122.827 423.434L122.822 423.442L123.7 423.921ZM101.56 444.801L101.994 445.702V445.702L101.56 444.801ZM30.1 444.801L29.6747 445.706V445.706L30.1 444.801ZM7.23999 424.101L6.36959 424.594L6.37455 424.602L7.23999 424.101ZM13.18 373.341L13.18 372.341L12.18 372.341L12.18 373.341L13.18 373.341ZM19.3 414.021L18.4411 414.534L18.4438 414.538L19.3 414.021ZM37.48 429.501L37.8823 428.586L37.8705 428.581L37.48 429.501ZM94.36 429.501L93.9591 428.585L93.9473 428.59L94.36 429.501ZM111.82 414.021L110.961 413.509L110.956 413.518L110.951 413.527L111.82 414.021ZM117.94 373.341L118.94 373.341L118.94 372.341L117.94 372.341L117.94 373.341ZM-0.500016 356.781L-0.500016 357.781L131.44 357.781L131.44 356.781L131.44 355.781L-0.500016 355.781L-0.500016 356.781ZM131.44 356.781L130.44 356.781L130.44 389.721L131.44 389.721L132.44 389.721L132.44 356.781L131.44 356.781ZM131.44 389.721L130.44 389.721C130.44 403.158 127.883 414.379 122.827 423.434L123.7 423.921L124.573 424.409C129.837 414.984 132.44 403.405 132.44 389.721L131.44 389.721ZM123.7 423.921L122.822 423.442C117.885 432.494 110.663 439.309 101.126 443.9L101.56 444.801L101.994 445.702C111.897 440.934 119.435 433.829 124.578 424.4L123.7 423.921ZM101.56 444.801L101.126 443.9C91.5759 448.499 79.8533 450.821 65.92 450.821L65.92 451.821L65.92 452.821C80.0667 452.821 92.1041 450.464 101.994 445.702L101.56 444.801ZM65.92 451.821L65.92 450.821C52.1092 450.821 40.3218 448.499 30.5252 443.896L30.1 444.801L29.6747 445.706C39.7982 450.463 51.8907 452.821 65.92 452.821L65.92 451.821ZM30.1 444.801L30.5252 443.896C20.7411 439.299 13.2786 432.536 8.1054 423.6L7.23999 424.101L6.37455 424.602C11.7614 433.907 19.5389 440.944 29.6747 445.706L30.1 444.801ZM7.23999 424.101L8.11033 423.609C3.05537 414.675 0.499982 403.635 0.499982 390.441L-0.500018 390.441L-1.50002 390.441C-1.50002 403.888 1.10458 415.288 6.36962 424.594L7.23999 424.101ZM-0.500018 390.441L0.499982 390.441L0.499984 356.781L-0.500016 356.781L-1.50002 356.781L-1.50002 390.441L-0.500018 390.441ZM13.18 373.341L12.18 373.341L12.18 388.281L13.18 388.281L14.18 388.281L14.18 373.341L13.18 373.341ZM13.18 388.281L12.18 388.281C12.18 398.729 14.2453 407.499 18.4412 414.534L19.3 414.021L20.1588 413.509C16.1947 406.863 14.18 398.473 14.18 388.281L13.18 388.281ZM19.3 414.021L18.4438 414.538C22.7592 421.689 28.9876 426.985 37.0894 430.422L37.48 429.501L37.8705 428.581C30.1324 425.298 24.2408 420.273 20.1562 413.505L19.3 414.021ZM37.48 429.501L37.0777 430.417C45.1544 433.966 54.7783 435.721 65.92 435.721L65.92 434.721L65.92 433.721C54.9817 433.721 45.6456 431.997 37.8823 428.586L37.48 429.501ZM65.92 434.721L65.92 435.721C77.2967 435.721 86.9271 433.967 94.7727 430.412L94.36 429.501L93.9473 428.59C86.4329 431.995 77.1033 433.721 65.92 433.721L65.92 434.721ZM94.36 429.501L94.7608 430.417C102.628 426.975 108.617 421.672 112.689 414.516L111.82 414.021L110.951 413.527C107.103 420.29 101.452 425.307 93.9592 428.585L94.36 429.501ZM111.82 414.021L112.679 414.534C116.875 407.499 118.94 398.729 118.94 388.281L117.94 388.281L116.94 388.281C116.94 398.473 114.925 406.863 110.961 413.509L111.82 414.021ZM117.94 388.281L118.94 388.281L118.94 373.341L117.94 373.341L116.94 373.341L116.94 388.281L117.94 388.281ZM117.94 373.341L117.94 372.341L13.18 372.341L13.18 373.341L13.18 374.341L117.94 374.341L117.94 373.341ZM2.37998 491.327L1.46673 490.92L1.46446 490.925L2.37998 491.327ZM16.6 471.167L17.2517 470.409L16.57 469.823L15.9151 470.438L16.6 471.167ZM28.12 481.067L28.8092 481.792L29.6105 481.029L28.7718 480.309L28.12 481.067ZM16.24 497.627L15.3355 497.2V497.2L16.24 497.627ZM17.68 537.767L18.4591 537.14L18.4513 537.131L17.68 537.767ZM44.32 542.087L43.7489 541.266L43.7371 541.274L43.7256 541.283L44.32 542.087ZM51.16 534.167L50.2997 533.657L50.2887 533.676L50.2785 533.695L51.16 534.167ZM56.74 523.007L55.824 522.606L55.8208 522.613L56.74 523.007ZM65.02 504.107L64.1051 503.703L64.104 503.706L65.02 504.107ZM71.86 491.687L71.0316 491.127L71.0243 491.138L71.86 491.687ZM116.86 482.687L116.288 483.507L116.297 483.513L116.86 482.687ZM129.28 497.447L128.379 497.88V497.88L129.28 497.447ZM129.28 540.647L128.37 540.233L128.367 540.239L129.28 540.647ZM117.58 557.567L116.949 558.343L117.631 558.898L118.269 558.292L117.58 557.567ZM106.96 548.927L106.221 548.253L105.508 549.035L106.329 549.703L106.96 548.927ZM115.78 535.427L114.877 534.998L114.87 535.011L114.864 535.025L115.78 535.427ZM113.98 500.867L113.183 501.471L113.185 501.474L113.98 500.867ZM89.5 497.447L88.8837 496.66L88.8733 496.668L88.8631 496.676L89.5 497.447ZM82.84 505.907L81.9456 505.46V505.46L82.84 505.907ZM77.98 516.167L77.0674 515.758L77.0622 515.77L77.98 516.167ZM69.88 534.887L68.9622 534.49L68.9608 534.493L69.88 534.887ZM62.14 548.567L61.3342 547.975L61.3262 547.986L62.14 548.567ZM50.98 558.467L51.4555 559.347V559.347L50.98 558.467ZM15.52 556.667L14.9819 557.51L14.99 557.515L15.52 556.667ZM2.01998 541.187L1.11921 541.621L1.12234 541.628L1.12556 541.634L2.01998 541.187ZM-2.84002 517.247L-1.84002 517.247C-1.84002 508.014 -0.124351 499.512 3.29549 491.729L2.37998 491.327L1.46446 490.925C-2.07569 498.982 -3.84002 507.76 -3.84002 517.247L-2.84002 517.247ZM2.37998 491.327L3.29321 491.735C6.72122 484.051 11.3852 477.441 17.2849 471.896L16.6 471.167L15.9151 470.438C9.81481 476.173 4.99874 483.003 1.46674 490.92L2.37998 491.327ZM16.6 471.167L15.9482 471.926L27.4682 481.826L28.12 481.067L28.7718 480.309L17.2517 470.409L16.6 471.167ZM28.12 481.067L27.4308 480.343C22.4181 485.111 18.3864 490.733 15.3355 497.2L16.24 497.627L17.1444 498.054C20.0936 491.801 23.9819 486.383 28.8092 481.792L28.12 481.067ZM16.24 497.627L15.3355 497.2C12.2744 503.69 10.74 510.435 10.74 517.427L11.74 517.427L12.74 517.427C12.74 510.739 14.2055 504.284 17.1444 498.054L16.24 497.627ZM11.74 517.427L10.74 517.427C10.74 526.326 12.7507 533.364 16.9086 538.403L17.68 537.767L18.4513 537.131C14.6893 532.571 12.74 526.048 12.74 517.427L11.74 517.427ZM17.68 537.767L16.901 538.394C21.0523 543.552 26.4997 546.147 33.16 546.147L33.16 545.147L33.16 544.147C27.1002 544.147 22.2276 541.822 18.459 537.14L17.68 537.767ZM33.16 545.147L33.16 546.147C37.9774 546.147 41.9295 545.097 44.9144 542.891L44.32 542.087L43.7256 541.283C41.1904 543.157 37.7025 544.147 33.16 544.147L33.16 545.147ZM44.32 542.087L44.891 542.908C47.797 540.886 50.177 538.12 52.0415 534.639L51.16 534.167L50.2785 533.695C48.543 536.935 46.363 539.448 43.7489 541.266L44.32 542.087ZM51.16 534.167L52.0203 534.677C53.9665 531.393 55.8455 527.633 57.6591 523.401L56.74 523.007L55.8208 522.613C54.0345 526.781 52.1935 530.461 50.2997 533.657L51.16 534.167ZM56.74 523.007L57.6559 523.408L65.9359 504.508L65.02 504.107L64.104 503.706L55.824 522.606L56.74 523.007ZM65.02 504.107L65.9349 504.511C67.71 500.487 69.9623 496.396 72.6957 492.236L71.86 491.687L71.0243 491.138C68.2376 495.378 65.93 499.567 64.1051 503.703L65.02 504.107ZM71.86 491.687L72.6883 492.247C75.3648 488.291 78.8598 484.967 83.1879 482.276L82.66 481.427L82.132 480.578C77.5802 483.407 73.8752 486.923 71.0317 491.127L71.86 491.687ZM82.66 481.427L83.1879 482.276C87.4382 479.634 92.646 478.287 98.86 478.287L98.86 477.287L98.86 476.287C92.3539 476.287 86.7617 477.7 82.132 480.578L82.66 481.427ZM98.86 477.287L98.86 478.287C105.514 478.287 111.31 480.035 116.288 483.507L116.86 482.687L117.432 481.867C112.09 478.14 105.886 476.287 98.86 476.287L98.86 477.287ZM116.86 482.687L116.297 483.513C121.419 487.006 125.448 491.785 128.379 497.88L129.28 497.447L130.181 497.014C127.112 490.629 122.861 485.568 117.423 481.861L116.86 482.687ZM129.28 497.447L128.379 497.88C131.304 503.965 132.78 510.953 132.78 518.867L133.78 518.867L134.78 518.867C134.78 510.701 133.256 503.409 130.181 497.014L129.28 497.447ZM133.78 518.867L132.78 518.867C132.78 526.658 131.305 533.775 128.37 540.233L129.28 540.647L130.19 541.061C133.255 534.319 134.78 526.917 134.78 518.867L133.78 518.867ZM129.28 540.647L128.367 540.239C125.414 546.853 121.586 552.382 116.891 556.842L117.58 557.567L118.269 558.292C123.174 553.632 127.146 547.881 130.193 541.055L129.28 540.647ZM117.58 557.567L118.211 556.791L107.591 548.151L106.96 548.927L106.329 549.703L116.949 558.343L117.58 557.567ZM106.96 548.927L107.699 549.601C111.49 545.443 114.491 540.851 116.696 535.829L115.78 535.427L114.864 535.025C112.749 539.843 109.87 544.251 106.221 548.253L106.96 548.927ZM115.78 535.427L116.683 535.856C119.037 530.901 120.2 525.23 120.2 518.867L119.2 518.867L118.2 518.867C118.2 524.984 117.083 530.354 114.877 534.998L115.78 535.427ZM119.2 518.867L120.2 518.867C120.2 511.273 118.423 505.04 114.775 500.26L113.98 500.867L113.185 501.474C116.497 505.814 118.2 511.581 118.2 518.867L119.2 518.867ZM113.98 500.867L114.777 500.264C111.216 495.558 106.293 493.207 100.12 493.207L100.12 494.207L100.12 495.207C105.707 495.207 110.024 497.296 113.183 501.471L113.98 500.867ZM100.12 494.207L100.12 493.207C95.6298 493.207 91.8574 494.332 88.8837 496.66L89.5 497.447L90.1163 498.235C92.6626 496.242 95.9701 495.207 100.12 495.207L100.12 494.207ZM89.5 497.447L88.8631 496.676C85.9903 499.049 83.6848 501.982 81.9456 505.46L82.84 505.907L83.7344 506.354C85.3552 503.113 87.4896 500.405 90.1369 498.218L89.5 497.447ZM82.84 505.907L81.9456 505.46C80.2592 508.833 78.6331 512.265 77.0675 515.758L77.98 516.167L78.8925 516.576C80.4468 513.109 82.0608 509.702 83.7344 506.354L82.84 505.907ZM77.98 516.167L77.0622 515.77L68.9622 534.49L69.88 534.887L70.7978 535.284L78.8978 516.564L77.98 516.167ZM69.88 534.887L68.9608 534.493C66.8285 539.469 64.2855 543.961 61.3343 547.975L62.14 548.567L62.9456 549.159C65.9945 545.013 68.6115 540.386 70.7991 535.281L69.88 534.887ZM62.14 548.567L61.3262 547.986C58.4127 552.065 54.8074 555.261 50.5045 557.587L50.98 558.467L51.4555 559.347C56.0326 556.873 59.8673 553.469 62.9537 549.148L62.14 548.567ZM50.98 558.467L50.5045 557.587C46.2462 559.889 40.9599 561.067 34.6 561.067L34.6 562.067L34.6 563.067C41.2001 563.067 46.8338 561.845 51.4555 559.347L50.98 558.467ZM34.6 562.067L34.6 561.067C27.8225 561.067 21.647 559.317 16.05 555.819L15.52 556.667L14.99 557.515C20.913 561.217 27.4574 563.067 34.6 563.067L34.6 562.067ZM15.52 556.667L16.058 555.824C10.5885 552.333 6.20374 547.319 2.9144 540.74L2.01998 541.187L1.12556 541.634C4.55622 548.496 9.17145 553.801 14.9819 557.51L15.52 556.667ZM2.01998 541.187L2.92075 540.753C-0.240258 534.197 -1.84002 526.372 -1.84002 517.247L-2.84002 517.247L-3.84002 517.247C-3.84002 526.602 -2.19979 534.738 1.11921 541.621L2.01998 541.187Z" fill="url(#paint0_linear_313_293)" fill-opacity="0.4" mask="url(#path-1-outside-1_313_293)"/>
<defs>
<linearGradient id="paint0_linear_313_293" x1="-18.5" y1="276.32" x2="161.5" y2="276.32" gradientUnits="userSpaceOnUse">
<stop offset="0.379808" stop-color="white"/>
<stop offset="1" stop-color="white" stop-opacity="0"/>
</linearGradient>
</defs>
</svg>
