<svg width="136" height="653" viewBox="0 0 136 653" fill="none" xmlns="http://www.w3.org/2000/svg">
<mask id="path-1-outside-1_313_414" maskUnits="userSpaceOnUse" x="-0.660185" y="-0.446296" width="140" height="653" fill="black">
<rect fill="white" x="-0.660185" y="-0.446296" width="140" height="653"/>
<path d="M3.33984 29.1337L135.28 1.23371L135.28 18.3337L63.4598 32.1937C56.3798 33.5137 49.2398 34.8337 42.0398 36.1537C34.9598 37.4737 27.8198 38.7937 20.6198 40.1137L20.6198 40.8337C27.8198 42.3937 34.9598 43.9537 42.0398 45.5137C49.2398 47.0737 56.3798 48.6337 63.4598 50.1937L135.28 68.3737L135.28 83.6737L63.4598 102.034C56.3798 103.594 49.2398 105.154 42.0398 106.714C34.9598 108.274 27.8198 109.894 20.6198 111.574L20.6198 112.474C27.8198 113.674 34.9598 114.874 42.0398 116.074C49.2398 117.274 56.3798 118.474 63.4598 119.674L135.28 133.894L135.28 149.734L3.33984 122.554L3.33984 102.394L82.8998 82.4137C88.1798 81.2137 93.2198 80.0737 98.0198 78.9937C102.94 78.0337 107.92 77.0137 112.96 75.9337L112.96 75.2137C107.92 74.2537 102.94 73.1737 98.0198 71.9737C93.2198 70.7737 88.1798 69.6337 82.8998 68.5537L3.33984 48.9337L3.33984 29.1337ZM3.33984 172.761L135.28 172.761L135.28 189.321L3.33984 189.321L3.33984 172.761ZM0.999832 262.035C0.999833 252.675 2.73983 244.035 6.21983 236.115C9.69983 228.315 14.4398 221.595 20.4398 215.955L31.9598 225.855C27.0398 230.535 23.0798 236.055 20.0798 242.415C17.0798 248.775 15.5798 255.375 15.5798 262.215C15.5798 270.975 17.5598 277.755 21.5198 282.555C25.4798 287.475 30.6398 289.935 36.9998 289.935C41.6798 289.935 45.3998 288.915 48.1598 286.875C50.9198 284.955 53.1998 282.315 54.9998 278.955C56.9198 275.715 58.7798 271.995 60.5798 267.795L68.8598 248.895C70.6598 244.815 72.9398 240.675 75.6998 236.475C78.4598 232.395 82.0598 228.975 86.4998 226.215C90.9398 223.455 96.3398 222.075 102.7 222.075C109.54 222.075 115.54 223.875 120.7 227.475C125.98 231.075 130.12 235.995 133.12 242.235C136.12 248.475 137.62 255.615 137.62 263.655C137.62 271.575 136.12 278.835 133.12 285.435C130.12 292.155 126.22 297.795 121.42 302.355L110.8 293.715C114.52 289.635 117.46 285.135 119.62 280.215C121.9 275.415 123.04 269.895 123.04 263.655C123.04 256.215 121.3 250.215 117.82 245.655C114.46 241.215 109.84 238.995 103.96 238.995C99.6398 238.995 96.0998 240.075 93.3398 242.235C90.5798 244.515 88.3598 247.335 86.6798 250.695C84.9998 254.055 83.3798 257.475 81.8198 260.955L73.7198 279.675C71.5598 284.715 68.9798 289.275 65.9798 293.355C62.9798 297.555 59.2598 300.855 54.8198 303.255C50.3798 305.655 44.9198 306.855 38.4398 306.855C31.4798 306.855 25.1198 305.055 19.3598 301.455C13.7198 297.855 9.21983 292.695 5.85983 285.975C2.61983 279.255 0.999832 271.275 0.999832 262.035ZM3.33983 332.722L135.28 332.722L135.28 349.282L80.0198 349.282L80.0198 410.842L135.28 410.842L135.28 427.582L3.33982 427.582L3.33983 410.842L65.6198 410.842L65.6198 349.282L3.33983 349.282L3.33983 332.722ZM3.33982 463.679L135.28 463.679L135.28 539.639L121.24 539.639L121.24 480.239L79.8398 480.239L79.8398 530.279L65.6198 530.279L65.6198 480.239L17.5598 480.239L17.5598 541.619L3.33982 541.619L3.33982 463.679ZM0.999817 606.215C0.999817 596.855 2.73982 588.215 6.21982 580.295C9.69982 572.495 14.4398 565.775 20.4398 560.135L31.9598 570.035C27.0398 574.715 23.0798 580.235 20.0798 586.595C17.0798 592.955 15.5798 599.555 15.5798 606.395C15.5798 615.155 17.5598 621.935 21.5198 626.735C25.4798 631.655 30.6398 634.115 36.9998 634.115C41.6798 634.115 45.3998 633.095 48.1598 631.055C50.9198 629.135 53.1998 626.495 54.9998 623.135C56.9198 619.895 58.7798 616.175 60.5798 611.975L68.8598 593.075C70.6598 588.995 72.9398 584.855 75.6998 580.655C78.4598 576.575 82.0598 573.155 86.4998 570.395C90.9398 567.635 96.3398 566.255 102.7 566.255C109.54 566.255 115.54 568.055 120.7 571.655C125.98 575.255 130.12 580.175 133.12 586.415C136.12 592.655 137.62 599.795 137.62 607.835C137.62 615.755 136.12 623.015 133.12 629.615C130.12 636.335 126.22 641.975 121.42 646.535L110.8 637.895C114.52 633.815 117.46 629.315 119.62 624.395C121.9 619.595 123.04 614.075 123.04 607.835C123.04 600.395 121.3 594.395 117.82 589.835C114.46 585.395 109.84 583.175 103.96 583.175C99.6398 583.175 96.0998 584.255 93.3398 586.415C90.5798 588.695 88.3598 591.515 86.6798 594.875C84.9998 598.235 83.3798 601.655 81.8198 605.135L73.7198 623.855C71.5598 628.895 68.9798 633.455 65.9798 637.535C62.9798 641.735 59.2598 645.035 54.8198 647.435C50.3798 649.835 44.9198 651.035 38.4398 651.035C31.4798 651.035 25.1198 649.235 19.3598 645.635C13.7198 642.035 9.21982 636.875 5.85982 630.155C2.61982 623.435 0.999817 615.455 0.999817 606.215Z"/>
</mask>
<path d="M3.33984 29.1337L3.13296 28.1553L2.33984 28.3231L2.33984 29.1337L3.33984 29.1337ZM135.28 1.23371L136.28 1.23371L136.28 0.000136774L135.073 0.255344L135.28 1.23371ZM135.28 18.3337L135.469 19.3156L136.28 19.1592L136.28 18.3337L135.28 18.3337ZM63.4598 32.1937L63.6431 33.1768L63.6493 33.1756L63.4598 32.1937ZM42.0398 36.1537L41.8595 35.1701L41.8566 35.1706L42.0398 36.1537ZM20.6198 40.1137L20.4395 39.1301L19.6198 39.2804L19.6198 40.1137L20.6198 40.1137ZM20.6198 40.8337L19.6198 40.8337L19.6198 41.6402L20.4081 41.811L20.6198 40.8337ZM42.0398 45.5137L41.8247 46.4903L41.8281 46.491L42.0398 45.5137ZM63.4598 50.1937L63.7052 49.2243L63.6902 49.2205L63.675 49.2171L63.4598 50.1937ZM135.28 68.3737L136.28 68.3737L136.28 67.5953L135.525 67.4043L135.28 68.3737ZM135.28 83.6737L135.528 84.6426L136.28 84.4502L136.28 83.6737L135.28 83.6737ZM63.4598 102.034L63.675 103.01L63.6913 103.007L63.7075 103.003L63.4598 102.034ZM42.0398 106.714L41.8281 105.736L41.8247 105.737L42.0398 106.714ZM20.6198 111.574L20.3926 110.6L19.6198 110.78L19.6198 111.574L20.6198 111.574ZM20.6198 112.474L19.6198 112.474L19.6198 113.321L20.4554 113.46L20.6198 112.474ZM42.0398 116.074L41.8727 117.06L41.8754 117.06L42.0398 116.074ZM63.4598 119.674L63.6541 118.693L63.6405 118.69L63.6269 118.688L63.4598 119.674ZM135.28 133.894L136.28 133.894L136.28 133.072L135.474 132.913L135.28 133.894ZM135.28 149.734L135.078 150.713L136.28 150.961L136.28 149.734L135.28 149.734ZM3.33984 122.554L2.33984 122.554L2.33984 123.369L3.13807 123.533L3.33984 122.554ZM3.33984 102.394L3.09628 101.424L2.33984 101.614L2.33984 102.394L3.33984 102.394ZM82.8998 82.4137L82.6782 81.4386L82.6672 81.4411L82.6563 81.4438L82.8998 82.4137ZM98.0198 78.9937L97.8283 78.0122L97.8143 78.015L97.8003 78.0181L98.0198 78.9937ZM112.96 75.9337L113.169 76.9115L113.96 76.7421L113.96 75.9337L112.96 75.9337ZM112.96 75.2137L113.96 75.2137L113.96 74.3862L113.147 74.2314L112.96 75.2137ZM98.0198 71.9737L97.7773 72.9439L97.7829 72.9452L98.0198 71.9737ZM82.8998 68.5537L82.6604 69.5246L82.6798 69.5294L82.6995 69.5334L82.8998 68.5537ZM3.33984 48.9337L2.33984 48.9337L2.33984 49.7171L3.10042 49.9046L3.33984 48.9337ZM3.33984 29.1337L3.54672 30.1121L135.487 2.21207L135.28 1.23371L135.073 0.255344L3.13296 28.1553L3.33984 29.1337ZM135.28 1.23371L134.28 1.23371L134.28 18.3337L135.28 18.3337L136.28 18.3337L136.28 1.23371L135.28 1.23371ZM135.28 18.3337L135.09 17.3518L63.2704 31.2118L63.4598 32.1937L63.6493 33.1756L135.469 19.3156L135.28 18.3337ZM63.4598 32.1937L63.2766 31.2106C56.1976 32.5305 49.0585 33.8503 41.8595 35.1701L42.0398 36.1537L42.2202 37.1373C49.4211 35.8171 56.5621 34.497 63.6431 33.1768L63.4598 32.1937ZM42.0398 36.1537L41.8566 35.1706C34.7776 36.4905 27.6385 37.8103 20.4395 39.1301L20.6198 40.1137L20.8002 41.0973C28.0011 39.7771 35.1421 38.457 42.2231 37.1368L42.0398 36.1537ZM20.6198 40.1137L19.6198 40.1137L19.6198 40.8337L20.6198 40.8337L21.6198 40.8337L21.6198 40.1137L20.6198 40.1137ZM20.6198 40.8337L20.4081 41.811C27.607 43.3708 34.7458 44.9305 41.8247 46.4903L42.0398 45.5137L42.255 44.5371C35.1739 42.9769 28.0327 41.4166 20.8316 39.8564L20.6198 40.8337ZM42.0398 45.5137L41.8281 46.491C49.027 48.0508 56.1658 49.6105 63.2447 51.1703L63.4598 50.1937L63.675 49.2171C56.5939 47.6569 49.4527 46.0966 42.2516 44.5364L42.0398 45.5137ZM63.4598 50.1937L63.2145 51.1631L135.034 69.3431L135.28 68.3737L135.525 67.4043L63.7052 49.2243L63.4598 50.1937ZM135.28 68.3737L134.28 68.3737L134.28 83.6737L135.28 83.6737L136.28 83.6737L136.28 68.3737L135.28 68.3737ZM135.28 83.6737L135.032 82.7049L63.2122 101.065L63.4598 102.034L63.7075 103.003L135.528 84.6426L135.28 83.6737ZM63.4598 102.034L63.2447 101.057C56.1658 102.617 49.027 104.177 41.8281 105.736L42.0398 106.714L42.2516 107.691C49.4527 106.131 56.5939 104.571 63.675 103.01L63.4598 102.034ZM42.0398 106.714L41.8247 105.737C34.7406 107.298 27.5965 108.919 20.3926 110.6L20.6198 111.574L20.8471 112.548C28.0431 110.868 35.1791 109.249 42.255 107.69L42.0398 106.714ZM20.6198 111.574L19.6198 111.574L19.6198 112.474L20.6198 112.474L21.6198 112.474L21.6198 111.574L20.6198 111.574ZM20.6198 112.474L20.4554 113.46C27.6546 114.66 34.7937 115.86 41.8727 117.06L42.0398 116.074L42.2069 115.088C35.126 113.888 27.9851 112.687 20.7842 111.487L20.6198 112.474ZM42.0398 116.074L41.8754 117.06C49.0745 118.26 56.2136 119.46 63.2927 120.66L63.4598 119.674L63.6269 118.688C56.546 117.488 49.4051 116.287 42.2042 115.087L42.0398 116.074ZM63.4598 119.674L63.2656 120.655L135.086 134.875L135.28 133.894L135.474 132.913L63.6541 118.693L63.4598 119.674ZM135.28 133.894L134.28 133.894L134.28 149.734L135.28 149.734L136.28 149.734L136.28 133.894L135.28 133.894ZM135.28 149.734L135.482 148.754L3.54161 121.574L3.33984 122.554L3.13807 123.533L135.078 150.713L135.28 149.734ZM3.33984 122.554L4.33984 122.554L4.33984 102.394L3.33984 102.394L2.33984 102.394L2.33984 122.554L3.33984 122.554ZM3.33984 102.394L3.5834 103.364L83.1434 83.3836L82.8998 82.4137L82.6563 81.4438L3.09628 101.424L3.33984 102.394ZM82.8998 82.4137L83.1215 83.3888C88.4008 82.189 93.4401 81.0491 98.2394 79.9693L98.0198 78.9937L97.8003 78.0181C92.9996 79.0983 87.9589 80.2384 82.6782 81.4386L82.8998 82.4137ZM98.0198 78.9937L98.2114 79.9752C103.138 79.014 108.124 77.9928 113.169 76.9115L112.96 75.9337L112.75 74.9559C107.716 76.0347 102.742 77.0534 97.8283 78.0122L98.0198 78.9937ZM112.96 75.9337L113.96 75.9337L113.96 75.2137L112.96 75.2137L111.96 75.2137L111.96 75.9337L112.96 75.9337ZM112.96 75.2137L113.147 74.2314C108.123 73.2745 103.16 72.1981 98.2568 71.0022L98.0198 71.9737L97.7829 72.9452C102.72 74.1493 107.716 75.2329 112.773 76.1961L112.96 75.2137ZM98.0198 71.9737L98.2624 71.0036C93.4472 69.7998 88.3931 68.6566 83.1002 67.574L82.8998 68.5537L82.6995 69.5334C87.9666 70.6108 92.9925 71.7476 97.7773 72.9439L98.0198 71.9737ZM82.8998 68.5537L83.1393 67.5828L3.57927 47.9628L3.33984 48.9337L3.10042 49.9046L82.6604 69.5246L82.8998 68.5537ZM3.33984 48.9337L4.33984 48.9337L4.33984 29.1337L3.33984 29.1337L2.33984 29.1337L2.33984 48.9337L3.33984 48.9337ZM3.33984 172.761L3.33984 171.761L2.33984 171.761L2.33984 172.761L3.33984 172.761ZM135.28 172.761L136.28 172.761L136.28 171.761L135.28 171.761L135.28 172.761ZM135.28 189.321L135.28 190.321L136.28 190.321L136.28 189.321L135.28 189.321ZM3.33984 189.321L2.33984 189.321L2.33984 190.321L3.33984 190.321L3.33984 189.321ZM3.33984 172.761L3.33984 173.761L135.28 173.761L135.28 172.761L135.28 171.761L3.33984 171.761L3.33984 172.761ZM135.28 172.761L134.28 172.761L134.28 189.321L135.28 189.321L136.28 189.321L136.28 172.761L135.28 172.761ZM135.28 189.321L135.28 188.321L3.33984 188.321L3.33984 189.321L3.33984 190.321L135.28 190.321L135.28 189.321ZM3.33984 189.321L4.33984 189.321L4.33984 172.761L3.33984 172.761L2.33984 172.761L2.33984 189.321L3.33984 189.321ZM6.21984 236.115L5.30658 235.708L5.30431 235.713L6.21984 236.115ZM20.4398 215.955L21.0916 215.197L20.4099 214.611L19.7549 215.227L20.4398 215.955ZM31.9598 225.855L32.6491 226.58L33.4503 225.818L32.6116 225.097L31.9598 225.855ZM20.0798 242.415L19.1754 241.989V241.989L20.0798 242.415ZM21.5198 282.555L22.2989 281.928L22.2912 281.919L21.5198 282.555ZM48.1598 286.875L47.5888 286.055L47.577 286.063L47.5654 286.071L48.1598 286.875ZM54.9998 278.955L54.1395 278.446L54.1285 278.464L54.1184 278.483L54.9998 278.955ZM60.5798 267.795L59.6639 267.394L59.6607 267.402L60.5798 267.795ZM68.8598 248.895L67.9449 248.492L67.9439 248.494L68.8598 248.895ZM75.6998 236.475L74.8715 235.915L74.8641 235.926L75.6998 236.475ZM120.7 227.475L120.128 228.296L120.137 228.302L120.7 227.475ZM133.12 242.235L132.219 242.669V242.669L133.12 242.235ZM133.12 285.435L132.209 285.022L132.207 285.028L133.12 285.435ZM121.42 302.355L120.789 303.131L121.471 303.686L122.109 303.08L121.42 302.355ZM110.8 293.715L110.061 293.042L109.348 293.823L110.169 294.491L110.8 293.715ZM119.62 280.215L118.717 279.786L118.71 279.8L118.704 279.813L119.62 280.215ZM117.82 245.655L117.022 246.259L117.025 246.262L117.82 245.655ZM93.3398 242.235L92.7235 241.448L92.7131 241.456L92.703 241.464L93.3398 242.235ZM86.6798 250.695L85.7854 250.248V250.248L86.6798 250.695ZM81.8198 260.955L80.9072 260.546L80.9021 260.558L81.8198 260.955ZM73.7198 279.675L72.8021 279.278L72.8007 279.281L73.7198 279.675ZM65.9798 293.355L65.1741 292.763L65.1661 292.774L65.9798 293.355ZM54.8198 303.255L55.2954 304.135V304.135L54.8198 303.255ZM19.3598 301.455L18.8218 302.298L18.8298 302.303L19.3598 301.455ZM5.85984 285.975L4.95906 286.41L4.96219 286.416L4.96541 286.423L5.85984 285.975ZM0.999836 262.035L1.99984 262.035C1.99984 252.802 3.7155 244.301 7.13535 236.518L6.21984 236.115L5.30431 235.713C1.76416 243.77 -0.000163778 252.548 -0.000164192 262.035L0.999836 262.035ZM6.21984 236.115L7.13306 236.523C10.5611 228.839 15.225 222.23 21.1247 216.684L20.4398 215.955L19.7549 215.227C13.6547 220.961 8.8386 227.791 5.3066 235.708L6.21984 236.115ZM20.4398 215.955L19.7881 216.714L31.3081 226.614L31.9598 225.855L32.6116 225.097L21.0916 215.197L20.4398 215.955ZM31.9598 225.855L31.2706 225.131C26.2579 229.899 22.2262 235.521 19.1754 241.989L20.0798 242.415L20.9843 242.842C23.9335 236.59 27.8218 231.172 32.6491 226.58L31.9598 225.855ZM20.0798 242.415L19.1754 241.989C16.1143 248.478 14.5798 255.224 14.5798 262.215L15.5798 262.215L16.5798 262.215C16.5798 255.527 18.0454 249.072 20.9843 242.842L20.0798 242.415ZM15.5798 262.215L14.5798 262.215C14.5798 271.114 16.5905 278.152 20.7485 283.192L21.5198 282.555L22.2912 281.919C18.5291 277.359 16.5798 270.837 16.5798 262.215L15.5798 262.215ZM21.5198 282.555L20.7408 283.182C24.8922 288.34 30.3396 290.935 36.9998 290.935L36.9998 289.935L36.9998 288.935C30.9401 288.935 26.0675 286.611 22.2988 281.928L21.5198 282.555ZM36.9998 289.935L36.9998 290.935C41.8173 290.935 45.7694 289.886 48.7542 287.68L48.1598 286.875L47.5654 286.071C45.0303 287.945 41.5424 288.935 36.9998 288.935L36.9998 289.935ZM48.1598 286.875L48.7309 287.696C51.6368 285.675 54.0168 282.908 55.8813 279.428L54.9998 278.955L54.1184 278.483C52.3828 281.723 50.2028 284.236 47.5888 286.055L48.1598 286.875ZM54.9998 278.955L55.8601 279.465C57.8063 276.181 59.6854 272.421 61.499 268.189L60.5798 267.795L59.6607 267.402C57.8743 271.57 56.0334 275.25 54.1395 278.446L54.9998 278.955ZM60.5798 267.795L61.4958 268.197L69.7758 249.297L68.8598 248.895L67.9439 248.494L59.6639 267.394L60.5798 267.795ZM68.8598 248.895L69.7748 249.299C71.5498 245.276 73.8022 241.184 76.5355 237.025L75.6998 236.475L74.8641 235.926C72.0775 240.167 69.7698 244.355 67.9449 248.492L68.8598 248.895ZM75.6998 236.475L76.5281 237.036C79.2046 233.079 82.6996 229.755 87.0278 227.065L86.4998 226.215L85.9719 225.366C81.42 228.196 77.715 231.712 74.8715 235.915L75.6998 236.475ZM86.4998 226.215L87.0278 227.065C91.2781 224.423 96.4859 223.075 102.7 223.075L102.7 222.075L102.7 221.075C96.1938 221.075 90.6016 222.488 85.9719 225.366L86.4998 226.215ZM102.7 222.075L102.7 223.075C109.354 223.075 115.15 224.823 120.128 228.296L120.7 227.475L121.272 226.655C115.929 222.928 109.726 221.075 102.7 221.075L102.7 222.075ZM120.7 227.475L120.137 228.302C125.259 231.794 129.288 236.573 132.219 242.669L133.12 242.235L134.021 241.802C130.951 235.417 126.7 230.356 121.263 226.649L120.7 227.475ZM133.12 242.235L132.219 242.669C135.144 248.753 136.62 255.741 136.62 263.655L137.62 263.655L138.62 263.655C138.62 255.49 137.096 248.198 134.021 241.802L133.12 242.235ZM137.62 263.655L136.62 263.655C136.62 271.446 135.145 278.563 132.209 285.022L133.12 285.435L134.03 285.849C137.095 279.108 138.62 271.705 138.62 263.655L137.62 263.655ZM133.12 285.435L132.207 285.028C129.254 291.642 125.426 297.17 120.731 301.63L121.42 302.355L122.109 303.08C127.013 298.421 130.986 292.669 134.033 285.843L133.12 285.435ZM121.42 302.355L122.051 301.58L111.431 292.94L110.8 293.715L110.169 294.491L120.789 303.131L121.42 302.355ZM110.8 293.715L111.539 294.389C115.33 290.231 118.331 285.64 120.535 280.617L119.62 280.215L118.704 279.813C116.589 284.631 113.71 289.04 110.061 293.042L110.8 293.715ZM119.62 280.215L120.523 280.644C122.877 275.689 124.04 270.018 124.04 263.655L123.04 263.655L122.04 263.655C122.04 269.773 120.923 275.142 118.717 279.786L119.62 280.215ZM123.04 263.655L124.04 263.655C124.04 256.062 122.263 249.829 118.615 245.049L117.82 245.655L117.025 246.262C120.337 250.602 122.04 256.369 122.04 263.655L123.04 263.655ZM117.82 245.655L118.617 245.052C115.056 240.346 110.133 237.995 103.96 237.995L103.96 238.995L103.96 239.995C109.547 239.995 113.863 242.085 117.022 246.259L117.82 245.655ZM103.96 238.995L103.96 237.995C99.4697 237.995 95.6973 239.121 92.7235 241.448L93.3398 242.235L93.9561 243.023C96.5024 241.03 99.81 239.995 103.96 239.995L103.96 238.995ZM93.3398 242.235L92.703 241.464C89.8302 243.838 87.5246 246.77 85.7854 250.248L86.6798 250.695L87.5743 251.143C89.1951 247.901 91.3295 245.193 93.9767 243.006L93.3398 242.235ZM86.6798 250.695L85.7854 250.248C84.099 253.621 82.473 257.054 80.9073 260.546L81.8198 260.955L82.7323 261.364C84.2867 257.897 85.9007 254.49 87.5743 251.143L86.6798 250.695ZM81.8198 260.955L80.9021 260.558L72.8021 279.278L73.7198 279.675L74.6376 280.073L82.7376 261.353L81.8198 260.955ZM73.7198 279.675L72.8007 279.281C70.6683 284.257 68.1253 288.749 65.1742 292.763L65.9798 293.355L66.7855 293.948C69.8343 289.801 72.4513 285.174 74.639 280.069L73.7198 279.675ZM65.9798 293.355L65.1661 292.774C62.2526 296.853 58.6472 300.05 54.3443 302.376L54.8198 303.255L55.2954 304.135C59.8725 301.661 63.7071 298.258 66.7936 293.937L65.9798 293.355ZM54.8198 303.255L54.3443 302.376C50.086 304.677 44.7997 305.855 38.4398 305.855L38.4398 306.855L38.4398 307.855C45.0399 307.855 50.6736 306.633 55.2954 304.135L54.8198 303.255ZM38.4398 306.855L38.4398 305.855C31.6624 305.855 25.4868 304.106 19.8898 300.607L19.3598 301.455L18.8298 302.303C24.7529 306.005 31.2973 307.855 38.4398 307.855L38.4398 306.855ZM19.3598 301.455L19.8979 300.613C14.4283 297.121 10.0436 292.107 6.75426 285.528L5.85984 285.975L4.96541 286.423C8.39607 293.284 13.0113 298.59 18.8218 302.298L19.3598 301.455ZM5.85984 285.975L6.76061 285.541C3.5996 278.985 1.99984 271.16 1.99984 262.035L0.999836 262.035L-0.000164192 262.035C-0.000164601 271.391 1.64006 279.526 4.95906 286.41L5.85984 285.975ZM3.33983 332.722L3.33983 331.722L2.33983 331.722L2.33983 332.722L3.33983 332.722ZM135.28 332.722L136.28 332.722L136.28 331.722L135.28 331.722L135.28 332.722ZM135.28 349.282L135.28 350.282L136.28 350.282L136.28 349.282L135.28 349.282ZM80.0198 349.282L80.0198 348.282L79.0198 348.282L79.0198 349.282L80.0198 349.282ZM80.0198 410.842L79.0198 410.842L79.0198 411.842L80.0198 411.842L80.0198 410.842ZM135.28 410.842L136.28 410.842L136.28 409.842L135.28 409.842L135.28 410.842ZM135.28 427.582L135.28 428.582L136.28 428.582L136.28 427.582L135.28 427.582ZM3.33982 427.582L2.33982 427.582L2.33982 428.582L3.33982 428.582L3.33982 427.582ZM3.33983 410.842L3.33983 409.842L2.33983 409.842L2.33983 410.842L3.33983 410.842ZM65.6198 410.842L65.6198 411.842L66.6198 411.842L66.6198 410.842L65.6198 410.842ZM65.6198 349.282L66.6198 349.282L66.6198 348.282L65.6198 348.282L65.6198 349.282ZM3.33983 349.282L2.33983 349.282L2.33983 350.282L3.33983 350.282L3.33983 349.282ZM3.33983 332.722L3.33983 333.722L135.28 333.722L135.28 332.722L135.28 331.722L3.33983 331.722L3.33983 332.722ZM135.28 332.722L134.28 332.722L134.28 349.282L135.28 349.282L136.28 349.282L136.28 332.722L135.28 332.722ZM135.28 349.282L135.28 348.282L80.0198 348.282L80.0198 349.282L80.0198 350.282L135.28 350.282L135.28 349.282ZM80.0198 349.282L79.0198 349.282L79.0198 410.842L80.0198 410.842L81.0198 410.842L81.0198 349.282L80.0198 349.282ZM80.0198 410.842L80.0198 411.842L135.28 411.842L135.28 410.842L135.28 409.842L80.0198 409.842L80.0198 410.842ZM135.28 410.842L134.28 410.842L134.28 427.582L135.28 427.582L136.28 427.582L136.28 410.842L135.28 410.842ZM135.28 427.582L135.28 426.582L3.33982 426.582L3.33982 427.582L3.33982 428.582L135.28 428.582L135.28 427.582ZM3.33982 427.582L4.33982 427.582L4.33983 410.842L3.33983 410.842L2.33983 410.842L2.33982 427.582L3.33982 427.582ZM3.33983 410.842L3.33983 411.842L65.6198 411.842L65.6198 410.842L65.6198 409.842L3.33983 409.842L3.33983 410.842ZM65.6198 410.842L66.6198 410.842L66.6198 349.282L65.6198 349.282L64.6198 349.282L64.6198 410.842L65.6198 410.842ZM65.6198 349.282L65.6198 348.282L3.33983 348.282L3.33983 349.282L3.33983 350.282L65.6198 350.282L65.6198 349.282ZM3.33983 349.282L4.33983 349.282L4.33983 332.722L3.33983 332.722L2.33983 332.722L2.33983 349.282L3.33983 349.282ZM3.33982 463.679L3.33982 462.679L2.33982 462.679L2.33982 463.679L3.33982 463.679ZM135.28 463.679L136.28 463.679L136.28 462.679L135.28 462.679L135.28 463.679ZM135.28 539.639L135.28 540.639L136.28 540.639L136.28 539.639L135.28 539.639ZM121.24 539.639L120.24 539.639L120.24 540.639L121.24 540.639L121.24 539.639ZM121.24 480.239L122.24 480.239L122.24 479.239L121.24 479.239L121.24 480.239ZM79.8398 480.239L79.8398 479.239L78.8398 479.239L78.8398 480.239L79.8398 480.239ZM79.8398 530.279L79.8398 531.279L80.8398 531.279L80.8398 530.279L79.8398 530.279ZM65.6198 530.279L64.6198 530.279L64.6198 531.279L65.6198 531.279L65.6198 530.279ZM65.6198 480.239L66.6198 480.239L66.6198 479.239L65.6198 479.239L65.6198 480.239ZM17.5598 480.239L17.5598 479.239L16.5598 479.239L16.5598 480.239L17.5598 480.239ZM17.5598 541.619L17.5598 542.619L18.5598 542.619L18.5598 541.619L17.5598 541.619ZM3.33982 541.619L2.33982 541.619L2.33982 542.619L3.33982 542.619L3.33982 541.619ZM3.33982 463.679L3.33982 464.679L135.28 464.679L135.28 463.679L135.28 462.679L3.33982 462.679L3.33982 463.679ZM135.28 463.679L134.28 463.679L134.28 539.639L135.28 539.639L136.28 539.639L136.28 463.679L135.28 463.679ZM135.28 539.639L135.28 538.639L121.24 538.639L121.24 539.639L121.24 540.639L135.28 540.639L135.28 539.639ZM121.24 539.639L122.24 539.639L122.24 480.239L121.24 480.239L120.24 480.239L120.24 539.639L121.24 539.639ZM121.24 480.239L121.24 479.239L79.8398 479.239L79.8398 480.239L79.8398 481.239L121.24 481.239L121.24 480.239ZM79.8398 480.239L78.8398 480.239L78.8398 530.279L79.8398 530.279L80.8398 530.279L80.8398 480.239L79.8398 480.239ZM79.8398 530.279L79.8398 529.279L65.6198 529.279L65.6198 530.279L65.6198 531.279L79.8398 531.279L79.8398 530.279ZM65.6198 530.279L66.6198 530.279L66.6198 480.239L65.6198 480.239L64.6198 480.239L64.6198 530.279L65.6198 530.279ZM65.6198 480.239L65.6198 479.239L17.5598 479.239L17.5598 480.239L17.5598 481.239L65.6198 481.239L65.6198 480.239ZM17.5598 480.239L16.5598 480.239L16.5598 541.619L17.5598 541.619L18.5598 541.619L18.5598 480.239L17.5598 480.239ZM17.5598 541.619L17.5598 540.619L3.33982 540.619L3.33982 541.619L3.33982 542.619L17.5598 542.619L17.5598 541.619ZM3.33982 541.619L4.33982 541.619L4.33982 463.679L3.33982 463.679L2.33982 463.679L2.33982 541.619L3.33982 541.619ZM6.21982 580.295L5.30657 579.888L5.3043 579.893L6.21982 580.295ZM20.4398 560.135L21.0916 559.377L20.4099 558.791L19.7549 559.406L20.4398 560.135ZM31.9598 570.035L32.649 570.76L33.4503 569.997L32.6116 569.277L31.9598 570.035ZM20.0798 586.595L19.1754 586.169V586.169L20.0798 586.595ZM21.5198 626.735L22.2989 626.108L22.2912 626.099L21.5198 626.735ZM48.1598 631.055L47.5888 630.234L47.577 630.242L47.5654 630.251L48.1598 631.055ZM54.9998 623.135L54.1395 622.625L54.1285 622.644L54.1183 622.663L54.9998 623.135ZM60.5798 611.975L59.6638 611.574L59.6607 611.581L60.5798 611.975ZM68.8598 593.075L67.9449 592.672L67.9439 592.674L68.8598 593.075ZM75.6998 580.655L74.8715 580.095L74.8641 580.106L75.6998 580.655ZM120.7 571.655L120.128 572.475L120.136 572.481L120.7 571.655ZM133.12 586.415L132.219 586.848V586.848L133.12 586.415ZM133.12 629.615L132.209 629.201L132.207 629.207L133.12 629.615ZM121.42 646.535L120.789 647.311L121.471 647.866L122.109 647.26L121.42 646.535ZM110.8 637.895L110.061 637.221L109.348 638.003L110.169 638.671L110.8 637.895ZM119.62 624.395L118.717 623.966L118.71 623.979L118.704 623.993L119.62 624.395ZM117.82 589.835L117.022 590.439L117.025 590.442L117.82 589.835ZM93.3398 586.415L92.7235 585.628L92.7131 585.636L92.7029 585.644L93.3398 586.415ZM86.6798 594.875L85.7854 594.428V594.428L86.6798 594.875ZM81.8198 605.135L80.9072 604.726L80.9021 604.738L81.8198 605.135ZM73.7198 623.855L72.802 623.458L72.8007 623.461L73.7198 623.855ZM65.9798 637.535L65.1741 636.943L65.1661 636.954L65.9798 637.535ZM54.8198 647.435L55.2953 648.315V648.315L54.8198 647.435ZM19.3598 645.635L18.8217 646.478L18.8298 646.483L19.3598 645.635ZM5.85982 630.155L4.95905 630.589L4.96218 630.596L4.9654 630.602L5.85982 630.155ZM0.999821 606.215L1.99982 606.215C1.99982 596.982 3.71549 588.48 7.13534 580.697L6.21982 580.295L5.3043 579.893C1.76415 587.95 -0.000178822 596.728 -0.000179237 606.215L0.999821 606.215ZM6.21982 580.295L7.13305 580.703C10.5611 573.019 15.225 566.409 21.1247 560.864L20.4398 560.135L19.7549 559.406C13.6547 565.141 8.83858 571.971 5.30658 579.888L6.21982 580.295ZM20.4398 560.135L19.7881 560.894L31.308 570.794L31.9598 570.035L32.6116 569.277L21.0916 559.377L20.4398 560.135ZM31.9598 570.035L31.2706 569.311C26.2579 574.079 22.2262 579.701 19.1754 586.169L20.0798 586.595L20.9843 587.022C23.9334 580.769 27.8218 575.351 32.649 570.76L31.9598 570.035ZM20.0798 586.595L19.1754 586.169C16.1143 592.658 14.5798 599.403 14.5798 606.395L15.5798 606.395L16.5798 606.395C16.5798 599.707 18.0454 593.252 20.9843 587.022L20.0798 586.595ZM15.5798 606.395L14.5798 606.395C14.5798 615.294 16.5905 622.332 20.7484 627.372L21.5198 626.735L22.2912 626.099C18.5291 621.539 16.5798 615.016 16.5798 606.395L15.5798 606.395ZM21.5198 626.735L20.7408 627.362C24.8922 632.52 30.3396 635.115 36.9998 635.115L36.9998 634.115L36.9998 633.115C30.9401 633.115 26.0675 630.79 22.2988 626.108L21.5198 626.735ZM36.9998 634.115L36.9998 635.115C41.8173 635.115 45.7694 634.065 48.7542 631.859L48.1598 631.055L47.5654 630.251C45.0303 632.125 41.5424 633.115 36.9998 633.115L36.9998 634.115ZM48.1598 631.055L48.7309 631.876C51.6368 629.854 54.0168 627.088 55.8813 623.607L54.9998 623.135L54.1183 622.663C52.3828 625.903 50.2028 628.416 47.5888 630.234L48.1598 631.055ZM54.9998 623.135L55.8601 623.645C57.8063 620.361 59.6853 616.601 61.499 612.369L60.5798 611.975L59.6607 611.581C57.8743 615.749 56.0333 619.429 54.1395 622.625L54.9998 623.135ZM60.5798 611.975L61.4958 612.376L69.7758 593.476L68.8598 593.075L67.9439 592.674L59.6639 611.574L60.5798 611.975ZM68.8598 593.075L69.7747 593.479C71.5498 589.455 73.8022 585.364 76.5355 581.204L75.6998 580.655L74.8641 580.106C72.0775 584.346 69.7698 588.535 67.9449 592.672L68.8598 593.075ZM75.6998 580.655L76.5281 581.215C79.2046 577.259 82.6996 573.935 87.0278 571.244L86.4998 570.395L85.9719 569.546C81.42 572.375 77.715 575.891 74.8715 580.095L75.6998 580.655ZM86.4998 570.395L87.0278 571.244C91.2781 568.602 96.4859 567.255 102.7 567.255L102.7 566.255L102.7 565.255C96.1938 565.255 90.6016 566.668 85.9719 569.546L86.4998 570.395ZM102.7 566.255L102.7 567.255C109.354 567.255 115.15 569.003 120.128 572.475L120.7 571.655L121.272 570.835C115.929 567.108 109.726 565.255 102.7 565.255L102.7 566.255ZM120.7 571.655L120.136 572.481C125.259 575.974 129.288 580.753 132.219 586.848L133.12 586.415L134.021 585.982C130.951 579.597 126.7 574.536 121.263 570.829L120.7 571.655ZM133.12 586.415L132.219 586.848C135.144 592.933 136.62 599.921 136.62 607.835L137.62 607.835L138.62 607.835C138.62 599.669 137.096 592.377 134.021 585.982L133.12 586.415ZM137.62 607.835L136.62 607.835C136.62 615.626 135.145 622.743 132.209 629.201L133.12 629.615L134.03 630.029C137.095 623.287 138.62 615.885 138.62 607.835L137.62 607.835ZM133.12 629.615L132.207 629.207C129.254 635.821 125.426 641.35 120.731 645.81L121.42 646.535L122.109 647.26C127.013 642.6 130.986 636.849 134.033 630.023L133.12 629.615ZM121.42 646.535L122.051 645.759L111.431 637.119L110.8 637.895L110.169 638.671L120.789 647.311L121.42 646.535ZM110.8 637.895L111.539 638.569C115.33 634.411 118.331 629.819 120.535 624.797L119.62 624.395L118.704 623.993C116.589 628.811 113.71 633.219 110.061 637.221L110.8 637.895ZM119.62 624.395L120.523 624.824C122.877 619.869 124.04 614.198 124.04 607.835L123.04 607.835L122.04 607.835C122.04 613.952 120.923 619.322 118.717 623.966L119.62 624.395ZM123.04 607.835L124.04 607.835C124.04 600.241 122.263 594.008 118.615 589.228L117.82 589.835L117.025 590.442C120.337 594.782 122.04 600.549 122.04 607.835L123.04 607.835ZM117.82 589.835L118.617 589.232C115.056 584.526 110.133 582.175 103.96 582.175L103.96 583.175L103.96 584.175C109.547 584.175 113.863 586.264 117.022 590.439L117.82 589.835ZM103.96 583.175L103.96 582.175C99.4697 582.175 95.6972 583.3 92.7235 585.628L93.3398 586.415L93.9561 587.203C96.5024 585.21 99.81 584.175 103.96 584.175L103.96 583.175ZM93.3398 586.415L92.7029 585.644C89.8302 588.017 87.5246 590.95 85.7854 594.428L86.6798 594.875L87.5743 595.322C89.195 592.081 91.3295 589.373 93.9767 587.186L93.3398 586.415ZM86.6798 594.875L85.7854 594.428C84.099 597.801 82.473 601.233 80.9073 604.726L81.8198 605.135L82.7323 605.544C84.2867 602.077 85.9006 598.67 87.5743 595.322L86.6798 594.875ZM81.8198 605.135L80.9021 604.738L72.8021 623.458L73.7198 623.855L74.6376 624.252L82.7376 605.532L81.8198 605.135ZM73.7198 623.855L72.8007 623.461C70.6683 628.437 68.1253 632.929 65.1742 636.943L65.9798 637.535L66.7855 638.127C69.8343 633.981 72.4513 629.354 74.639 624.249L73.7198 623.855ZM65.9798 637.535L65.1661 636.954C62.2526 641.033 58.6472 644.229 54.3443 646.555L54.8198 647.435L55.2953 648.315C59.8724 645.841 63.7071 642.437 66.7936 638.116L65.9798 637.535ZM54.8198 647.435L54.3443 646.555C50.086 648.857 44.7997 650.035 38.4398 650.035L38.4398 651.035L38.4398 652.035C45.0399 652.035 50.6736 650.813 55.2953 648.315L54.8198 647.435ZM38.4398 651.035L38.4398 650.035C31.6624 650.035 25.4868 648.285 19.8898 644.787L19.3598 645.635L18.8298 646.483C24.7528 650.185 31.2973 652.035 38.4398 652.035L38.4398 651.035ZM19.3598 645.635L19.8978 644.792C14.4283 641.301 10.0436 636.287 6.75424 629.708L5.85982 630.155L4.9654 630.602C8.39606 637.464 13.0113 642.769 18.8218 646.478L19.3598 645.635ZM5.85982 630.155L6.76059 629.721C3.59958 623.165 1.99982 615.34 1.99982 606.215L0.999821 606.215L-0.000179237 606.215C-0.000179646 615.57 1.64005 623.706 4.95905 630.589L5.85982 630.155Z" fill="white" mask="url(#path-1-outside-1_313_414)"/>
</svg>
