<svg width="136" height="901" viewBox="0 0 136 901" fill="none" xmlns="http://www.w3.org/2000/svg">
<mask id="path-1-outside-1_313_492" maskUnits="userSpaceOnUse" x="-0.660196" y="-0.295906" width="140" height="901" fill="black">
<rect fill="white" x="-0.660196" y="-0.295906" width="140" height="901"/>
<path d="M0.999841 47.4241C0.999842 38.0641 2.73984 29.4241 6.21984 21.5041C9.69984 13.7041 14.4398 6.9841 20.4398 1.3441L31.9598 11.2441C27.0398 15.9241 23.0798 21.4441 20.0798 27.8041C17.0798 34.1641 15.5798 40.7641 15.5798 47.6041C15.5798 56.3641 17.5598 63.1441 21.5198 67.9441C25.4798 72.8641 30.6398 75.3241 36.9998 75.3241C41.6798 75.3241 45.3998 74.3041 48.1598 72.2641C50.9198 70.3441 53.1998 67.7041 54.9998 64.3441C56.9198 61.1041 58.7798 57.3841 60.5798 53.1841L68.8598 34.2841C70.6598 30.2041 72.9398 26.0641 75.6998 21.8641C78.4598 17.7841 82.0598 14.3641 86.4998 11.6041C90.9398 8.8441 96.3398 7.4641 102.7 7.4641C109.54 7.4641 115.54 9.2641 120.7 12.8641C125.98 16.4641 130.12 21.3841 133.12 27.6241C136.12 33.8641 137.62 41.0041 137.62 49.0441C137.62 56.9641 136.12 64.2241 133.12 70.8241C130.12 77.5441 126.22 83.1841 121.42 87.7441L110.8 79.1041C114.52 75.0241 117.46 70.5241 119.62 65.6041C121.9 60.8041 123.04 55.2841 123.04 49.0441C123.04 41.6041 121.3 35.6041 117.82 31.0441C114.46 26.6041 109.84 24.3841 103.96 24.3841C99.6398 24.3841 96.0998 25.4641 93.3398 27.6241C90.5798 29.9041 88.3598 32.7241 86.6798 36.0841C84.9998 39.4441 83.3798 42.8641 81.8198 46.3441L73.7198 65.0641C71.5598 70.1041 68.9798 74.6641 65.9798 78.7441C62.9798 82.9441 59.2598 86.2441 54.8198 88.6441C50.3798 91.0441 44.9198 92.2441 38.4398 92.2441C31.4798 92.2441 25.1198 90.4441 19.3598 86.8441C13.7198 83.2441 9.21984 78.0841 5.85984 71.3641C2.61984 64.6441 0.999841 56.6641 0.999841 47.4241ZM0.999836 167.791C0.999836 159.631 2.49984 152.011 5.49984 144.931C8.61984 137.971 13.1198 131.911 18.9998 126.751C24.8798 121.591 32.0198 117.571 40.4198 114.691C48.9398 111.811 58.5398 110.371 69.2198 110.371C79.8998 110.371 89.4398 111.811 97.8398 114.691C106.36 117.691 113.56 121.831 119.44 127.111C125.32 132.391 129.82 138.571 132.94 145.651C136.06 152.731 137.62 160.471 137.62 168.871C137.62 176.911 135.94 183.991 132.58 190.111C129.34 196.231 125.62 201.211 121.42 205.051L110.62 196.051C114.34 192.571 117.34 188.611 119.62 184.171C121.9 179.731 123.04 174.691 123.04 169.051C123.04 160.771 120.88 153.511 116.56 147.271C112.24 141.031 106.06 136.171 98.0198 132.691C90.0998 129.211 80.6798 127.471 69.7598 127.471C58.5998 127.471 48.9398 129.151 40.7798 132.511C32.7398 135.871 26.4998 140.611 22.0598 146.731C17.7398 152.851 15.5798 160.111 15.5798 168.511C15.5798 174.751 16.8998 180.331 19.5398 185.251C22.1798 190.291 25.8398 194.911 30.5198 199.111L19.8998 208.291C13.8998 203.131 9.21984 197.251 5.85984 190.651C2.61984 184.051 0.999836 176.431 0.999836 167.791ZM3.33983 232.896L135.28 232.896L135.28 249.456L80.0198 249.456L80.0198 311.016L135.28 311.016L135.28 327.756L3.33983 327.756L3.33983 311.016L65.6198 311.016L65.6198 249.456L3.33983 249.456L3.33983 232.896ZM3.33983 363.853L135.28 363.853L135.28 439.813L121.24 439.813L121.24 380.413L79.8398 380.413L79.8398 430.453L65.6198 430.453L65.6198 380.413L17.5598 380.413L17.5598 441.793L3.33982 441.793L3.33983 363.853ZM3.33982 469.849L135.28 469.849L135.28 502.789C135.28 516.349 132.7 527.749 127.54 536.989C122.5 546.229 115.12 553.189 105.4 557.869C95.6798 562.549 83.7998 564.889 69.7598 564.889C55.8398 564.889 43.8998 562.549 33.9398 557.869C23.9798 553.189 16.3598 546.289 11.0798 537.169C5.91982 528.049 3.33982 516.829 3.33982 503.509L3.33982 469.849ZM17.0198 486.409L17.0198 501.349C17.0198 511.669 19.0598 520.249 23.1398 527.089C27.3398 534.049 33.3998 539.209 41.3198 542.569C49.2398 546.049 58.7198 547.789 69.7598 547.789C81.0398 547.789 90.5198 546.049 98.1998 542.569C105.88 539.209 111.7 534.049 115.66 527.089C119.74 520.249 121.78 511.669 121.78 501.349L121.78 486.409L17.0198 486.409ZM0.999815 640.575C0.999816 633.855 1.95982 627.615 3.87982 621.855C5.79982 616.095 8.97982 611.055 13.4198 606.735C17.8598 602.535 23.7398 599.235 31.0598 596.835C38.3798 594.435 47.2598 593.235 57.6998 593.235L135.28 593.235L135.28 609.795L57.3398 609.795C46.7798 609.795 38.4398 611.175 32.3198 613.935C26.3198 616.695 21.9998 620.355 19.3598 624.915C16.8398 629.595 15.5798 634.815 15.5798 640.575C15.5798 646.455 16.8398 651.735 19.3598 656.415C21.9998 661.095 26.3198 664.815 32.3198 667.575C38.4398 670.455 46.7798 671.895 57.3398 671.895L135.28 671.895L135.28 687.915L57.6998 687.915C47.2598 687.915 38.3798 686.715 31.0598 684.315C23.7398 682.035 17.8598 678.735 13.4198 674.415C8.97981 670.095 5.79981 665.055 3.87981 659.295C1.95981 653.535 0.999815 647.295 0.999815 640.575ZM3.33981 723.501L135.28 723.501L135.28 740.061L17.5598 740.061L17.5598 797.841L3.33981 797.841L3.33981 723.501ZM3.33981 821.236L135.28 821.236L135.28 897.196L121.24 897.196L121.24 837.796L79.8398 837.796L79.8398 887.836L65.6198 887.836L65.6198 837.796L17.5598 837.796L17.5598 899.176L3.3398 899.176L3.33981 821.236Z"/>
</mask>
<path d="M6.21985 21.5041L5.30659 21.0966L5.30432 21.1018L6.21985 21.5041ZM20.4398 1.3441L21.0916 0.585676L20.4099 -0.000184195L19.7549 0.615467L20.4398 1.3441ZM31.9598 11.2441L32.6491 11.9687L33.4503 11.2065L32.6116 10.4857L31.9598 11.2441ZM20.0798 27.8041L19.1754 27.3775V27.3775L20.0798 27.8041ZM21.5198 67.9441L22.2989 67.317L22.2912 67.3077L21.5198 67.9441ZM48.1598 72.2641L47.5888 71.4432L47.577 71.4514L47.5655 71.4599L48.1598 72.2641ZM54.9998 64.3441L54.1396 63.8343L54.1286 63.8529L54.1184 63.8719L54.9998 64.3441ZM60.5798 53.1841L59.6639 52.7828L59.6607 52.7902L60.5798 53.1841ZM68.8598 34.2841L67.9449 33.8805L67.9439 33.8828L68.8598 34.2841ZM75.6998 21.8641L74.8715 21.3037L74.8641 21.3149L75.6998 21.8641ZM120.7 12.8641L120.128 13.6843L120.137 13.6903L120.7 12.8641ZM133.12 27.6241L132.219 28.0574V28.0574L133.12 27.6241ZM133.12 70.8241L132.209 70.4103L132.207 70.4164L133.12 70.8241ZM121.42 87.7441L120.789 88.5198L121.471 89.0748L122.109 88.4691L121.42 87.7441ZM110.8 79.1041L110.061 78.4303L109.348 79.2121L110.169 79.8798L110.8 79.1041ZM119.62 65.6041L118.717 65.175L118.71 65.1885L118.704 65.2021L119.62 65.6041ZM117.82 31.0441L117.022 31.6476L117.025 31.6508L117.82 31.0441ZM93.3398 27.6241L92.7235 26.8366L92.7131 26.8447L92.703 26.8531L93.3398 27.6241ZM86.6798 36.0841L85.7854 35.6369V35.6369L86.6798 36.0841ZM81.8198 46.3441L80.9073 45.935L80.9021 45.947L81.8198 46.3441ZM73.7198 65.0641L72.8021 64.667L72.8007 64.6702L73.7198 65.0641ZM65.9798 78.7441L65.1741 78.1517L65.1661 78.1629L65.9798 78.7441ZM54.8198 88.6441L55.2954 89.5238V89.5238L54.8198 88.6441ZM19.3598 86.8441L18.8218 87.6871L18.8298 87.6921L19.3598 86.8441ZM5.85984 71.3641L4.95907 71.7984L4.9622 71.8049L4.96542 71.8113L5.85984 71.3641ZM0.999845 47.4241L1.99985 47.4241C1.99985 38.1911 3.71551 29.6895 7.13536 21.9064L6.21985 21.5041L5.30432 21.1018C1.76417 29.1587 -0.000154565 37.9371 -0.00015498 47.4241L0.999845 47.4241ZM6.21985 21.5041L7.13307 21.9115C10.5611 14.2281 15.225 7.61848 21.1248 2.07272L20.4398 1.3441L19.7549 0.615467C13.6547 6.34971 8.83861 13.1801 5.30661 21.0967L6.21985 21.5041ZM20.4398 1.3441L19.7881 2.10251L31.3081 12.0025L31.9598 11.2441L32.6116 10.4857L21.0916 0.585676L20.4398 1.3441ZM31.9598 11.2441L31.2706 10.5195C26.2579 15.2877 22.2262 20.9098 19.1754 27.3775L20.0798 27.8041L20.9843 28.2307C23.9335 21.9784 27.8218 16.5605 32.6491 11.9687L31.9598 11.2441ZM20.0798 27.8041L19.1754 27.3775C16.1143 33.867 14.5798 40.6124 14.5798 47.6041L15.5798 47.6041L16.5798 47.6041C16.5798 40.9158 18.0454 34.4612 20.9843 28.2307L20.0798 27.8041ZM15.5798 47.6041L14.5798 47.6041C14.5798 56.503 16.5906 63.5406 20.7485 68.5805L21.5198 67.9441L22.2912 67.3077C18.5291 62.7476 16.5798 56.2252 16.5798 47.6041L15.5798 47.6041ZM21.5198 67.9441L20.7408 68.5711C24.8922 73.7289 30.3396 76.3241 36.9998 76.3241L36.9998 75.3241L36.9998 74.3241C30.9401 74.3241 26.0675 71.9993 22.2989 67.3171L21.5198 67.9441ZM36.9998 75.3241L36.9998 76.3241C41.8173 76.3241 45.7694 75.2745 48.7542 73.0683L48.1598 72.2641L47.5655 71.4599C45.0303 73.3338 41.5424 74.3241 36.9998 74.3241L36.9998 75.3241ZM48.1598 72.2641L48.7309 73.085C51.6368 71.0635 54.0169 68.2967 55.8813 64.8163L54.9998 64.3441L54.1184 63.8719C52.3828 67.1115 50.2028 69.6247 47.5888 71.4432L48.1598 72.2641ZM54.9998 64.3441L55.8601 64.8539C57.8063 61.5697 59.6854 57.8098 61.499 53.578L60.5798 53.1841L59.6607 52.7902C57.8743 56.9584 56.0334 60.6385 54.1396 63.8343L54.9998 64.3441ZM60.5798 53.1841L61.4958 53.5854L69.7758 34.6854L68.8598 34.2841L67.9439 33.8828L59.6639 52.7828L60.5798 53.1841ZM68.8598 34.2841L69.7748 34.6877C71.5498 30.6643 73.8022 26.5728 76.5356 22.4133L75.6998 21.8641L74.8641 21.3149C72.0775 25.5554 69.7699 29.7439 67.9449 33.8805L68.8598 34.2841ZM75.6998 21.8641L76.5281 22.4244C79.2046 18.4678 82.6996 15.1439 87.0278 12.4534L86.4998 11.6041L85.9719 10.7548C81.4201 13.5843 77.715 17.1004 74.8716 21.3038L75.6998 21.8641ZM86.4998 11.6041L87.0278 12.4534C91.2781 9.8113 96.4859 8.4641 102.7 8.4641L102.7 7.4641L102.7 6.4641C96.1938 6.4641 90.6016 7.87689 85.9719 10.7548L86.4998 11.6041ZM102.7 7.4641L102.7 8.4641C109.354 8.4641 115.15 10.2116 120.128 13.6842L120.7 12.8641L121.272 12.044C115.929 8.31661 109.726 6.4641 102.7 6.4641L102.7 7.4641ZM120.7 12.8641L120.137 13.6903C125.259 17.1831 129.288 21.9622 132.219 28.0574L133.12 27.6241L134.021 27.1908C130.952 20.806 126.7 15.7451 121.263 12.0379L120.7 12.8641ZM133.12 27.6241L132.219 28.0574C135.144 34.142 136.62 41.13 136.62 49.0441L137.62 49.0441L138.62 49.0441C138.62 40.8782 137.096 33.5862 134.021 27.1908L133.12 27.6241ZM137.62 49.0441L136.62 49.0441C136.62 56.8347 135.145 63.9519 132.209 70.4103L133.12 70.8241L134.03 71.2379C137.095 64.4963 138.62 57.0935 138.62 49.0441L137.62 49.0441ZM133.12 70.8241L132.207 70.4164C129.254 77.0303 125.426 82.5587 120.731 87.0191L121.42 87.7441L122.109 88.4691C127.013 83.8095 130.986 78.0579 134.033 71.2318L133.12 70.8241ZM121.42 87.7441L122.051 86.9684L111.431 78.3284L110.8 79.1041L110.169 79.8798L120.789 88.5198L121.42 87.7441ZM110.8 79.1041L111.539 79.7779C115.33 75.6197 118.331 71.0284 120.535 66.0061L119.62 65.6041L118.704 65.2021C116.589 70.0198 113.71 74.4285 110.061 78.4303L110.8 79.1041ZM119.62 65.6041L120.523 66.0332C122.877 61.0777 124.04 55.4068 124.04 49.0441L123.04 49.0441L122.04 49.0441C122.04 55.1614 120.923 60.5305 118.717 65.175L119.62 65.6041ZM123.04 49.0441L124.04 49.0441C124.04 41.4503 122.263 35.2174 118.615 30.4374L117.82 31.0441L117.025 31.6508C120.337 35.9908 122.04 41.7579 122.04 49.0441L123.04 49.0441ZM117.82 31.0441L118.617 30.4407C115.056 25.735 110.133 23.3841 103.96 23.3841L103.96 24.3841L103.96 25.3841C109.547 25.3841 113.863 27.4732 117.022 31.6475L117.82 31.0441ZM103.96 24.3841L103.96 23.3841C99.4697 23.3841 95.6973 24.5093 92.7235 26.8366L93.3398 27.6241L93.9562 28.4116C96.5024 26.4189 99.81 25.3841 103.96 25.3841L103.96 24.3841ZM93.3398 27.6241L92.703 26.8531C89.8302 29.2263 87.5246 32.1585 85.7854 35.6369L86.6798 36.0841L87.5743 36.5313C89.1951 33.2897 91.3295 30.5819 93.9767 28.3951L93.3398 27.6241ZM86.6798 36.0841L85.7854 35.6369C84.099 39.0097 82.473 42.4424 80.9073 45.935L81.8198 46.3441L82.7324 46.7532C84.2867 43.2858 85.9007 39.8785 87.5743 36.5313L86.6798 36.0841ZM81.8198 46.3441L80.9021 45.947L72.8021 64.667L73.7198 65.0641L74.6376 65.4612L82.7376 46.7412L81.8198 46.3441ZM73.7198 65.0641L72.8007 64.6702C70.6684 69.6457 68.1253 74.1382 65.1742 78.1517L65.9798 78.7441L66.7855 79.3365C69.8344 75.19 72.4513 70.5625 74.639 65.458L73.7198 65.0641ZM65.9798 78.7441L65.1661 78.1629C62.2526 82.2418 58.6472 85.4385 54.3443 87.7644L54.8198 88.6441L55.2954 89.5238C59.8725 87.0497 63.7071 83.6464 66.7936 79.3253L65.9798 78.7441ZM54.8198 88.6441L54.3443 87.7644C50.0861 90.0662 44.7997 91.2441 38.4398 91.2441L38.4398 92.2441L38.4398 93.2441C45.04 93.2441 50.6736 92.022 55.2954 89.5238L54.8198 88.6441ZM38.4398 92.2441L38.4398 91.2441C31.6624 91.2441 25.4868 89.4942 19.8898 85.9961L19.3598 86.8441L18.8298 87.6921C24.7529 91.394 31.2973 93.2441 38.4398 93.2441L38.4398 92.2441ZM19.3598 86.8441L19.8979 86.0012C14.4284 82.51 10.0436 77.4955 6.75427 70.9169L5.85984 71.3641L4.96542 71.8113C8.39608 78.6727 13.0113 83.9782 18.8218 87.687L19.3598 86.8441ZM5.85984 71.3641L6.76062 70.9298C3.59961 64.3737 1.99984 56.5488 1.99985 47.4241L0.999845 47.4241L-0.00015498 47.4241C-0.000155389 56.7794 1.64007 64.9145 4.95907 71.7984L5.85984 71.3641ZM5.49984 144.931L4.58733 144.522L4.58311 144.531L4.57908 144.541L5.49984 144.931ZM40.4198 114.691L40.0996 113.743L40.0955 113.745L40.4198 114.691ZM97.8398 114.691L98.172 113.747L98.1642 113.745L97.8398 114.691ZM119.44 127.111L120.108 126.367V126.367L119.44 127.111ZM132.94 145.651L133.855 145.247V145.247L132.94 145.651ZM132.58 190.111L131.703 189.629L131.7 189.636L131.696 189.643L132.58 190.111ZM121.42 205.051L120.78 205.819L121.45 206.378L122.095 205.789L121.42 205.051ZM110.62 196.051L109.937 195.32L109.11 196.094L109.98 196.819L110.62 196.051ZM119.62 184.171L120.509 184.627V184.627L119.62 184.171ZM116.56 147.271L115.738 147.84V147.84L116.56 147.271ZM98.0198 132.691L97.6176 133.606L97.6226 133.608L98.0198 132.691ZM40.7798 132.511L40.3991 131.586L40.3943 131.588L40.7798 132.511ZM22.0598 146.731L21.2503 146.143L21.2429 146.154L22.0598 146.731ZM19.5398 185.251L20.4257 184.787L20.421 184.778L19.5398 185.251ZM30.5198 199.111L31.1738 199.867L32.0327 199.125L31.1878 198.366L30.5198 199.111ZM19.8998 208.291L19.2478 209.049L19.9015 209.611L20.5538 209.047L19.8998 208.291ZM5.85984 190.651L4.96216 191.091L4.96537 191.098L4.96867 191.104L5.85984 190.651ZM0.99984 167.791L1.99984 167.791C1.99984 159.756 3.47604 152.27 6.42059 145.321L5.49984 144.931L4.57908 144.541C1.52363 151.751 -0.000159879 159.505 -0.000160241 167.791L0.99984 167.791ZM5.49984 144.931L6.41235 145.34C9.47209 138.514 13.8845 132.57 19.6594 127.502L18.9998 126.751L18.3402 125.999C12.3552 131.251 7.76759 137.427 4.58733 144.522L5.49984 144.931ZM18.9998 126.751L19.6594 127.502C25.4291 122.439 32.451 118.48 40.7442 115.637L40.4198 114.691L40.0955 113.745C31.5887 116.661 24.3306 120.742 18.3402 125.999L18.9998 126.751ZM40.4198 114.691L40.7401 115.638C49.1396 112.799 58.6289 111.371 69.2198 111.371L69.2198 110.371L69.2198 109.371C58.4508 109.371 48.74 110.823 40.0996 113.743L40.4198 114.691ZM69.2198 110.371L69.2198 111.371C79.8112 111.371 89.2386 112.799 97.5155 115.637L97.8398 114.691L98.1642 113.745C89.6411 110.823 79.9885 109.371 69.2198 109.371L69.2198 110.371ZM97.8398 114.691L97.5077 115.634C105.921 118.596 113.003 122.674 118.772 127.855L119.44 127.111L120.108 126.367C114.117 120.987 106.798 116.785 98.172 113.747L97.8398 114.691ZM119.44 127.111L118.772 127.855C124.548 133.042 128.963 139.107 132.025 146.054L132.94 145.651L133.855 145.247C130.676 138.035 126.091 131.739 120.108 126.367L119.44 127.111ZM132.94 145.651L132.025 146.054C135.084 152.996 136.62 160.598 136.62 168.871L137.62 168.871L138.62 168.871C138.62 160.344 137.036 152.465 133.855 145.247L132.94 145.651ZM137.62 168.871L136.62 168.871C136.62 176.768 134.971 183.678 131.703 189.629L132.58 190.111L133.456 190.592C136.909 184.303 138.62 177.053 138.62 168.871L137.62 168.871ZM132.58 190.111L131.696 189.643C128.498 195.683 124.844 200.565 120.745 204.313L121.42 205.051L122.095 205.789C126.395 201.857 130.181 196.779 133.464 190.579L132.58 190.111ZM121.42 205.051L122.06 204.282L111.26 195.282L110.62 196.051L109.98 196.819L120.78 205.819L121.42 205.051ZM110.62 196.051L111.303 196.781C115.105 193.224 118.176 189.172 120.509 184.627L119.62 184.171L118.73 183.714C116.504 188.049 113.574 191.917 109.937 195.32L110.62 196.051ZM119.62 184.171L120.509 184.627C122.871 180.029 124.04 174.829 124.04 169.051L123.04 169.051L122.04 169.051C122.04 174.553 120.929 179.433 118.73 183.714L119.62 184.171ZM123.04 169.051L124.04 169.051C124.04 160.587 121.828 153.124 117.382 146.701L116.56 147.271L115.738 147.84C119.931 153.897 122.04 160.955 122.04 169.051L123.04 169.051ZM116.56 147.271L117.382 146.701C112.94 140.285 106.602 135.315 98.4171 131.773L98.0198 132.691L97.6226 133.608C105.518 137.026 111.54 141.776 115.738 147.84L116.56 147.271ZM98.0198 132.691L98.4221 131.775C90.3467 128.227 80.7833 126.471 69.7598 126.471L69.7598 127.471L69.7598 128.471C80.5764 128.471 89.853 130.194 97.6176 133.606L98.0198 132.691ZM69.7598 127.471L69.7598 126.471C58.5025 126.471 48.7072 128.165 40.3991 131.586L40.7798 132.511L41.1606 133.435C49.1725 130.136 58.6972 128.471 69.7598 128.471L69.7598 127.471ZM40.7798 132.511L40.3943 131.588C32.2112 135.008 25.8138 139.853 21.2504 146.143L22.0598 146.731L22.8693 147.318C27.1859 141.368 33.2685 136.734 41.1654 133.433L40.7798 132.511ZM22.0598 146.731L21.2429 146.154C16.7896 152.463 14.5798 159.93 14.5798 168.511L15.5798 168.511L16.5798 168.511C16.5798 160.291 18.6901 153.238 22.8768 147.307L22.0598 146.731ZM15.5798 168.511L14.5798 168.511C14.5798 174.896 15.9318 180.642 18.6587 185.723L19.5398 185.251L20.421 184.778C17.8678 180.02 16.5798 174.605 16.5798 168.511L15.5798 168.511ZM19.5398 185.251L18.654 185.715C21.3549 190.871 25.0925 195.584 29.8519 199.855L30.5198 199.111L31.1878 198.366C26.5872 194.238 23.0048 189.71 20.4257 184.787L19.5398 185.251ZM30.5198 199.111L29.8659 198.354L19.2459 207.534L19.8998 208.291L20.5538 209.047L31.1738 199.867L30.5198 199.111ZM19.8998 208.291L20.5519 207.532C14.6438 202.452 10.0479 196.673 6.751 190.197L5.85984 190.651L4.96867 191.104C8.39175 197.828 13.1559 203.81 19.2478 209.049L19.8998 208.291ZM5.85984 190.651L6.7575 190.21C3.59565 183.769 1.99984 176.304 1.99984 167.791L0.99984 167.791L-0.000160241 167.791C-0.000160624 176.557 1.64402 184.332 4.96216 191.091L5.85984 190.651ZM3.33983 232.896L3.33983 231.896L2.33983 231.896L2.33983 232.896L3.33983 232.896ZM135.28 232.896L136.28 232.896L136.28 231.896L135.28 231.896L135.28 232.896ZM135.28 249.456L135.28 250.456L136.28 250.456L136.28 249.456L135.28 249.456ZM80.0198 249.456L80.0198 248.456L79.0198 248.456L79.0198 249.456L80.0198 249.456ZM80.0198 311.016L79.0198 311.016L79.0198 312.016L80.0198 312.016L80.0198 311.016ZM135.28 311.016L136.28 311.016L136.28 310.016L135.28 310.016L135.28 311.016ZM135.28 327.756L135.28 328.756L136.28 328.756L136.28 327.756L135.28 327.756ZM3.33983 327.756L2.33983 327.756L2.33983 328.756L3.33983 328.756L3.33983 327.756ZM3.33983 311.016L3.33983 310.016L2.33983 310.016L2.33983 311.016L3.33983 311.016ZM65.6198 311.016L65.6198 312.016L66.6198 312.016L66.6198 311.016L65.6198 311.016ZM65.6198 249.456L66.6198 249.456L66.6198 248.456L65.6198 248.456L65.6198 249.456ZM3.33983 249.456L2.33983 249.456L2.33983 250.456L3.33983 250.456L3.33983 249.456ZM3.33983 232.896L3.33983 233.896L135.28 233.896L135.28 232.896L135.28 231.896L3.33983 231.896L3.33983 232.896ZM135.28 232.896L134.28 232.896L134.28 249.456L135.28 249.456L136.28 249.456L136.28 232.896L135.28 232.896ZM135.28 249.456L135.28 248.456L80.0198 248.456L80.0198 249.456L80.0198 250.456L135.28 250.456L135.28 249.456ZM80.0198 249.456L79.0198 249.456L79.0198 311.016L80.0198 311.016L81.0198 311.016L81.0198 249.456L80.0198 249.456ZM80.0198 311.016L80.0198 312.016L135.28 312.016L135.28 311.016L135.28 310.016L80.0198 310.016L80.0198 311.016ZM135.28 311.016L134.28 311.016L134.28 327.756L135.28 327.756L136.28 327.756L136.28 311.016L135.28 311.016ZM135.28 327.756L135.28 326.756L3.33983 326.756L3.33983 327.756L3.33983 328.756L135.28 328.756L135.28 327.756ZM3.33983 327.756L4.33983 327.756L4.33983 311.016L3.33983 311.016L2.33983 311.016L2.33983 327.756L3.33983 327.756ZM3.33983 311.016L3.33983 312.016L65.6198 312.016L65.6198 311.016L65.6198 310.016L3.33983 310.016L3.33983 311.016ZM65.6198 311.016L66.6198 311.016L66.6198 249.456L65.6198 249.456L64.6198 249.456L64.6198 311.016L65.6198 311.016ZM65.6198 249.456L65.6198 248.456L3.33983 248.456L3.33983 249.456L3.33983 250.456L65.6198 250.456L65.6198 249.456ZM3.33983 249.456L4.33983 249.456L4.33983 232.896L3.33983 232.896L2.33983 232.896L2.33983 249.456L3.33983 249.456ZM3.33983 363.853L3.33983 362.853L2.33983 362.853L2.33983 363.853L3.33983 363.853ZM135.28 363.853L136.28 363.853L136.28 362.853L135.28 362.853L135.28 363.853ZM135.28 439.813L135.28 440.813L136.28 440.813L136.28 439.813L135.28 439.813ZM121.24 439.813L120.24 439.813L120.24 440.813L121.24 440.813L121.24 439.813ZM121.24 380.413L122.24 380.413L122.24 379.413L121.24 379.413L121.24 380.413ZM79.8398 380.413L79.8398 379.413L78.8398 379.413L78.8398 380.413L79.8398 380.413ZM79.8398 430.453L79.8398 431.453L80.8398 431.453L80.8398 430.453L79.8398 430.453ZM65.6198 430.453L64.6198 430.453L64.6198 431.453L65.6198 431.453L65.6198 430.453ZM65.6198 380.413L66.6198 380.413L66.6198 379.413L65.6198 379.413L65.6198 380.413ZM17.5598 380.413L17.5598 379.413L16.5598 379.413L16.5598 380.413L17.5598 380.413ZM17.5598 441.793L17.5598 442.793L18.5598 442.793L18.5598 441.793L17.5598 441.793ZM3.33982 441.793L2.33982 441.793L2.33982 442.793L3.33982 442.793L3.33982 441.793ZM3.33983 363.853L3.33983 364.853L135.28 364.853L135.28 363.853L135.28 362.853L3.33983 362.853L3.33983 363.853ZM135.28 363.853L134.28 363.853L134.28 439.813L135.28 439.813L136.28 439.813L136.28 363.853L135.28 363.853ZM135.28 439.813L135.28 438.813L121.24 438.813L121.24 439.813L121.24 440.813L135.28 440.813L135.28 439.813ZM121.24 439.813L122.24 439.813L122.24 380.413L121.24 380.413L120.24 380.413L120.24 439.813L121.24 439.813ZM121.24 380.413L121.24 379.413L79.8398 379.413L79.8398 380.413L79.8398 381.413L121.24 381.413L121.24 380.413ZM79.8398 380.413L78.8398 380.413L78.8398 430.453L79.8398 430.453L80.8398 430.453L80.8398 380.413L79.8398 380.413ZM79.8398 430.453L79.8398 429.453L65.6198 429.453L65.6198 430.453L65.6198 431.453L79.8398 431.453L79.8398 430.453ZM65.6198 430.453L66.6198 430.453L66.6198 380.413L65.6198 380.413L64.6198 380.413L64.6198 430.453L65.6198 430.453ZM65.6198 380.413L65.6198 379.413L17.5598 379.413L17.5598 380.413L17.5598 381.413L65.6198 381.413L65.6198 380.413ZM17.5598 380.413L16.5598 380.413L16.5598 441.793L17.5598 441.793L18.5598 441.793L18.5598 380.413L17.5598 380.413ZM17.5598 441.793L17.5598 440.793L3.33982 440.793L3.33982 441.793L3.33982 442.793L17.5598 442.793L17.5598 441.793ZM3.33982 441.793L4.33982 441.793L4.33983 363.853L3.33983 363.853L2.33983 363.853L2.33982 441.793L3.33982 441.793ZM3.33982 469.849L3.33982 468.849L2.33982 468.849L2.33982 469.849L3.33982 469.849ZM135.28 469.849L136.28 469.849L136.28 468.849L135.28 468.849L135.28 469.849ZM127.54 536.989L126.667 536.501L126.662 536.51L127.54 536.989ZM105.4 557.869L105.834 558.77V558.77L105.4 557.869ZM33.9398 557.869L33.5145 558.774V558.774L33.9398 557.869ZM11.0798 537.169L10.2094 537.661L10.2144 537.67L11.0798 537.169ZM17.0198 486.409L17.0198 485.409L16.0198 485.409L16.0198 486.409L17.0198 486.409ZM23.1398 527.089L22.281 527.601L22.2836 527.606L23.1398 527.089ZM41.3198 542.569L41.7221 541.653L41.7104 541.648L41.3198 542.569ZM98.1998 542.569L97.799 541.653L97.7871 541.658L98.1998 542.569ZM115.66 527.089L114.801 526.577L114.796 526.586L114.791 526.594L115.66 527.089ZM121.78 486.409L122.78 486.409L122.78 485.409L121.78 485.409L121.78 486.409ZM3.33982 469.849L3.33982 470.849L135.28 470.849L135.28 469.849L135.28 468.849L3.33982 468.849L3.33982 469.849ZM135.28 469.849L134.28 469.849L134.28 502.789L135.28 502.789L136.28 502.789L136.28 469.849L135.28 469.849ZM135.28 502.789L134.28 502.789C134.28 516.225 131.723 527.447 126.667 536.501L127.54 536.989L128.413 537.476C133.676 528.051 136.28 516.473 136.28 502.789L135.28 502.789ZM127.54 536.989L126.662 536.51C121.725 545.562 114.502 552.376 104.966 556.968L105.4 557.869L105.834 558.77C115.737 554.002 123.275 546.896 128.418 537.468L127.54 536.989ZM105.4 557.869L104.966 556.968C95.4157 561.566 83.6932 563.889 69.7598 563.889L69.7598 564.889L69.7598 565.889C83.9065 565.889 95.9439 563.532 105.834 558.77L105.4 557.869ZM69.7598 564.889L69.7598 563.889C55.9491 563.889 44.1617 561.567 34.3651 556.964L33.9398 557.869L33.5145 558.774C43.638 563.531 55.7306 565.889 69.7598 565.889L69.7598 564.889ZM33.9398 557.869L34.3651 556.964C24.5809 552.366 17.1184 545.603 11.9452 536.668L11.0798 537.169L10.2144 537.67C15.6012 546.974 23.3787 554.011 33.5145 558.774L33.9398 557.869ZM11.0798 537.169L11.9502 536.677C6.89521 527.742 4.33982 516.702 4.33982 503.509L3.33982 503.509L2.33982 503.509C2.33982 516.956 4.94442 528.356 10.2095 537.661L11.0798 537.169ZM3.33982 503.509L4.33982 503.509L4.33982 469.849L3.33982 469.849L2.33982 469.849L2.33982 503.509L3.33982 503.509ZM17.0198 486.409L16.0198 486.409L16.0198 501.349L17.0198 501.349L18.0198 501.349L18.0198 486.409L17.0198 486.409ZM17.0198 501.349L16.0198 501.349C16.0198 511.797 18.0851 520.567 22.281 527.601L23.1398 527.089L23.9986 526.577C20.0346 519.931 18.0198 511.541 18.0198 501.349L17.0198 501.349ZM23.1398 527.089L22.2836 527.606C26.599 534.757 32.8274 540.052 40.9293 543.489L41.3198 542.569L41.7104 541.648C33.9722 538.366 28.0806 533.341 23.996 526.572L23.1398 527.089ZM41.3198 542.569L40.9175 543.484C48.9942 547.033 58.6181 548.789 69.7598 548.789L69.7598 547.789L69.7598 546.789C58.8215 546.789 49.4855 545.065 41.7221 541.653L41.3198 542.569ZM69.7598 547.789L69.7598 548.789C81.1365 548.789 90.7669 547.035 98.6126 543.48L98.1998 542.569L97.7871 541.658C90.2727 545.063 80.9431 546.789 69.7598 546.789L69.7598 547.789ZM98.1998 542.569L98.6006 543.485C106.468 540.043 112.457 534.74 116.529 527.583L115.66 527.089L114.791 526.594C110.942 533.358 105.291 538.375 97.799 541.653L98.1998 542.569ZM115.66 527.089L116.519 527.601C120.715 520.567 122.78 511.797 122.78 501.349L121.78 501.349L120.78 501.349C120.78 511.541 118.765 519.931 114.801 526.577L115.66 527.089ZM121.78 501.349L122.78 501.349L122.78 486.409L121.78 486.409L120.78 486.409L120.78 501.349L121.78 501.349ZM121.78 486.409L121.78 485.409L17.0198 485.409L17.0198 486.409L17.0198 487.409L121.78 487.409L121.78 486.409ZM3.87981 621.855L2.93114 621.539V621.539L3.87981 621.855ZM13.4198 606.735L12.7325 606.008L12.7225 606.018L13.4198 606.735ZM31.0598 596.835L31.3714 597.785V597.785L31.0598 596.835ZM135.28 593.235L136.28 593.235L136.28 592.235L135.28 592.235L135.28 593.235ZM135.28 609.795L135.28 610.795L136.28 610.795L136.28 609.795L135.28 609.795ZM32.3198 613.935L31.9087 613.023L31.9019 613.026L32.3198 613.935ZM19.3598 624.915L18.4944 624.414L18.4867 624.427L18.4793 624.441L19.3598 624.915ZM19.3598 656.415L18.4793 656.889L18.484 656.897L18.4888 656.906L19.3598 656.415ZM32.3198 667.575L32.7456 666.67L32.7377 666.666L32.3198 667.575ZM135.28 671.895L136.28 671.895L136.28 670.895L135.28 670.895L135.28 671.895ZM135.28 687.915L135.28 688.915L136.28 688.915L136.28 687.915L135.28 687.915ZM31.0598 684.315L31.3714 683.364L31.3643 683.362L31.3572 683.36L31.0598 684.315ZM3.87981 659.295L2.93114 659.611V659.611L3.87981 659.295ZM0.999819 640.575L1.99982 640.575C1.99982 633.951 2.94591 627.819 4.82849 622.171L3.87981 621.855L2.93114 621.539C0.973712 627.411 -0.000180609 633.759 -0.000180907 640.575L0.999819 640.575ZM3.87981 621.855L4.82849 622.171C6.69689 616.566 9.78934 611.662 14.1172 607.451L13.4198 606.735L12.7225 606.018C8.17029 610.447 4.90274 615.624 2.93114 621.539L3.87981 621.855ZM13.4198 606.735L14.107 607.461C18.4157 603.385 24.1561 600.151 31.3714 597.785L31.0598 596.835L30.7483 595.885C23.3235 598.319 17.3039 601.684 12.7326 606.008L13.4198 606.735ZM31.0598 596.835L31.3714 597.785C38.5622 595.427 47.3307 594.235 57.6998 594.235L57.6998 593.235L57.6998 592.235C47.189 592.235 38.1974 593.442 30.7483 595.885L31.0598 596.835ZM57.6998 593.235L57.6998 594.235L135.28 594.235L135.28 593.235L135.28 592.235L57.6998 592.235L57.6998 593.235ZM135.28 593.235L134.28 593.235L134.28 609.795L135.28 609.795L136.28 609.795L136.28 593.235L135.28 593.235ZM135.28 609.795L135.28 608.795L57.3398 608.795L57.3398 609.795L57.3398 610.795L135.28 610.795L135.28 609.795ZM57.3398 609.795L57.3398 608.795C46.7106 608.795 38.2108 610.181 31.9087 613.023L32.3198 613.935L32.7309 614.846C38.6689 612.168 46.8491 610.795 57.3398 610.795L57.3398 609.795ZM32.3198 613.935L31.9019 613.026C25.7621 615.851 21.2615 619.634 18.4944 624.414L19.3598 624.915L20.2252 625.416C22.7381 621.075 26.8775 617.539 32.7377 614.843L32.3198 613.935ZM19.3598 624.915L18.4793 624.441C15.8744 629.278 14.5798 634.663 14.5798 640.575L15.5798 640.575L16.5798 640.575C16.5798 634.966 17.8052 629.911 20.2403 625.389L19.3598 624.915ZM15.5798 640.575L14.5798 640.575C14.5798 646.602 15.8728 652.048 18.4793 656.889L19.3598 656.415L20.2403 655.941C17.8068 651.421 16.5798 646.307 16.5798 640.575L15.5798 640.575ZM19.3598 656.415L18.4888 656.906C21.2539 661.808 25.7553 665.656 31.9019 668.483L32.3198 667.575L32.7377 666.666C26.8844 663.974 22.7457 660.382 20.2308 655.923L19.3598 656.415ZM32.3198 667.575L31.894 668.48C38.2011 671.448 46.7068 672.895 57.3398 672.895L57.3398 671.895L57.3398 670.895C46.8529 670.895 38.6786 669.462 32.7456 666.67L32.3198 667.575ZM57.3398 671.895L57.3398 672.895L135.28 672.895L135.28 671.895L135.28 670.895L57.3398 670.895L57.3398 671.895ZM135.28 671.895L134.28 671.895L134.28 687.915L135.28 687.915L136.28 687.915L136.28 671.895L135.28 671.895ZM135.28 687.915L135.28 686.915L57.6998 686.915L57.6998 687.915L57.6998 688.915L135.28 688.915L135.28 687.915ZM57.6998 687.915L57.6998 686.915C47.3307 686.915 38.5622 685.722 31.3714 683.364L31.0598 684.315L30.7483 685.265C38.1974 687.707 47.189 688.915 57.6998 688.915L57.6998 687.915ZM31.0598 684.315L31.3572 683.36C24.1524 681.116 18.4208 677.885 14.1172 673.698L13.4198 674.415L12.7225 675.131C17.2988 679.584 23.3273 682.954 30.7624 685.269L31.0598 684.315ZM13.4198 674.415L14.1172 673.698C9.78934 669.487 6.69689 664.584 4.82849 658.979L3.87981 659.295L2.93114 659.611C4.90274 665.526 8.17029 670.702 12.7225 675.131L13.4198 674.415ZM3.87981 659.295L4.82849 658.979C2.94591 653.331 1.99982 647.199 1.99982 640.575L0.999819 640.575L-0.000180907 640.575C-0.000181205 647.391 0.973711 653.739 2.93114 659.611L3.87981 659.295ZM3.33981 723.501L3.33981 722.501L2.33981 722.501L2.33981 723.501L3.33981 723.501ZM135.28 723.501L136.28 723.501L136.28 722.501L135.28 722.501L135.28 723.501ZM135.28 740.061L135.28 741.061L136.28 741.061L136.28 740.061L135.28 740.061ZM17.5598 740.061L17.5598 739.061L16.5598 739.061L16.5598 740.061L17.5598 740.061ZM17.5598 797.841L17.5598 798.841L18.5598 798.841L18.5598 797.841L17.5598 797.841ZM3.33981 797.841L2.33981 797.841L2.33981 798.841L3.33981 798.841L3.33981 797.841ZM3.33981 723.501L3.33981 724.501L135.28 724.501L135.28 723.501L135.28 722.501L3.33981 722.501L3.33981 723.501ZM135.28 723.501L134.28 723.501L134.28 740.061L135.28 740.061L136.28 740.061L136.28 723.501L135.28 723.501ZM135.28 740.061L135.28 739.061L17.5598 739.061L17.5598 740.061L17.5598 741.061L135.28 741.061L135.28 740.061ZM17.5598 740.061L16.5598 740.061L16.5598 797.841L17.5598 797.841L18.5598 797.841L18.5598 740.061L17.5598 740.061ZM17.5598 797.841L17.5598 796.841L3.33981 796.841L3.33981 797.841L3.33981 798.841L17.5598 798.841L17.5598 797.841ZM3.33981 797.841L4.33981 797.841L4.33981 723.501L3.33981 723.501L2.33981 723.501L2.33981 797.841L3.33981 797.841ZM3.33981 821.236L3.33981 820.236L2.33981 820.236L2.33981 821.236L3.33981 821.236ZM135.28 821.236L136.28 821.236L136.28 820.236L135.28 820.236L135.28 821.236ZM135.28 897.196L135.28 898.196L136.28 898.196L136.28 897.196L135.28 897.196ZM121.24 897.196L120.24 897.196L120.24 898.196L121.24 898.196L121.24 897.196ZM121.24 837.796L122.24 837.796L122.24 836.796L121.24 836.796L121.24 837.796ZM79.8398 837.796L79.8398 836.796L78.8398 836.796L78.8398 837.796L79.8398 837.796ZM79.8398 887.836L79.8398 888.836L80.8398 888.836L80.8398 887.836L79.8398 887.836ZM65.6198 887.836L64.6198 887.836L64.6198 888.836L65.6198 888.836L65.6198 887.836ZM65.6198 837.796L66.6198 837.796L66.6198 836.796L65.6198 836.796L65.6198 837.796ZM17.5598 837.796L17.5598 836.796L16.5598 836.796L16.5598 837.796L17.5598 837.796ZM17.5598 899.176L17.5598 900.176L18.5598 900.176L18.5598 899.176L17.5598 899.176ZM3.3398 899.176L2.3398 899.176L2.3398 900.176L3.3398 900.176L3.3398 899.176ZM3.33981 821.236L3.33981 822.236L135.28 822.236L135.28 821.236L135.28 820.236L3.33981 820.236L3.33981 821.236ZM135.28 821.236L134.28 821.236L134.28 897.196L135.28 897.196L136.28 897.196L136.28 821.236L135.28 821.236ZM135.28 897.196L135.28 896.196L121.24 896.196L121.24 897.196L121.24 898.196L135.28 898.196L135.28 897.196ZM121.24 897.196L122.24 897.196L122.24 837.796L121.24 837.796L120.24 837.796L120.24 897.196L121.24 897.196ZM121.24 837.796L121.24 836.796L79.8398 836.796L79.8398 837.796L79.8398 838.796L121.24 838.796L121.24 837.796ZM79.8398 837.796L78.8398 837.796L78.8398 887.836L79.8398 887.836L80.8398 887.836L80.8398 837.796L79.8398 837.796ZM79.8398 887.836L79.8398 886.836L65.6198 886.836L65.6198 887.836L65.6198 888.836L79.8398 888.836L79.8398 887.836ZM65.6198 887.836L66.6198 887.836L66.6198 837.796L65.6198 837.796L64.6198 837.796L64.6198 887.836L65.6198 887.836ZM65.6198 837.796L65.6198 836.796L17.5598 836.796L17.5598 837.796L17.5598 838.796L65.6198 838.796L65.6198 837.796ZM17.5598 837.796L16.5598 837.796L16.5598 899.176L17.5598 899.176L18.5598 899.176L18.5598 837.796L17.5598 837.796ZM17.5598 899.176L17.5598 898.176L3.3398 898.176L3.3398 899.176L3.3398 900.176L17.5598 900.176L17.5598 899.176ZM3.3398 899.176L4.3398 899.176L4.33981 821.236L3.33981 821.236L2.33981 821.236L2.3398 899.176L3.3398 899.176Z" fill="#080052" fill-opacity="0.2" mask="url(#path-1-outside-1_313_492)"/>
</svg>
