<svg width="170" height="309" viewBox="0 0 170 309" fill="none" xmlns="http://www.w3.org/2000/svg">
<mask id="path-1-outside-1_313_651" maskUnits="userSpaceOnUse" x="-0.879897" y="-0.179696" width="171" height="309" fill="black">
<rect fill="white" x="-0.879897" y="-0.179696" width="171" height="309"/>
<path d="M34.1201 1.00031L166.06 1.00031L166.06 76.9603L152.02 76.9603L152.02 17.5603L107.38 17.5603L107.38 67.9603L93.3401 67.9603L93.3401 17.5603L34.1201 17.5603L34.1201 1.00031ZM34.1201 74.7708L166.06 119.411L166.06 137.951L34.1201 182.771L34.1201 165.131L107.92 142.091C115.48 139.691 122.86 137.411 130.06 135.251C137.38 133.091 144.88 130.931 152.56 128.771L152.56 128.051C144.88 126.011 137.38 123.851 130.06 121.571C122.86 119.411 115.48 117.191 107.92 114.911L34.1201 91.5108L34.1201 74.7708ZM74.4401 97.9908L87.5801 97.9908L87.5801 158.831L74.4401 158.831L74.4401 97.9908ZM31.7801 247.882C31.7801 236.842 34.5401 227.062 40.0601 218.542C45.7001 210.142 53.6801 203.542 64.0001 198.742C74.3201 193.942 86.5001 191.542 100.54 191.542C114.7 191.542 126.82 193.942 136.9 198.742C147.1 203.542 154.9 210.142 160.3 218.542C165.7 227.062 168.4 236.842 168.4 247.882C168.4 258.922 165.64 268.642 160.12 277.042C154.72 285.562 146.98 292.222 136.9 297.022C126.82 301.822 114.7 304.222 100.54 304.222C86.5001 304.222 74.3201 301.822 64.0001 297.022C53.6801 292.222 45.7001 285.562 40.0601 277.042C34.5401 268.642 31.7801 258.922 31.7801 247.882ZM45.6401 247.882C45.6401 255.802 47.8601 262.702 52.3001 268.582C56.7401 274.462 63.1001 279.022 71.3801 282.262C79.6601 285.502 89.3801 287.122 100.54 287.122C111.58 287.122 121.06 285.502 128.98 282.262C137.02 279.022 143.14 274.462 147.34 268.582C151.66 262.702 153.82 255.802 153.82 247.882C153.82 240.082 151.66 233.182 147.34 227.182C143.14 221.302 137.02 216.742 128.98 213.502C121.06 210.262 111.58 208.642 100.54 208.642C89.3801 208.642 79.6601 210.262 71.3801 213.502C63.1001 216.742 56.7401 221.302 52.3001 227.182C47.8601 233.182 45.6401 240.082 45.6401 247.882ZM1.0001 288.202C1.0001 279.922 2.4401 272.482 5.3201 265.882C8.2001 259.282 12.2201 253.702 17.3801 249.142C22.4201 244.702 28.1201 241.282 34.4801 238.882L35.9201 256.162C31.2401 257.962 27.3401 260.482 24.2201 263.722C21.1001 267.082 18.7601 270.982 17.2001 275.422C15.6401 279.982 14.8601 284.842 14.8601 290.002C14.8601 293.002 15.0401 295.642 15.4001 297.922C15.7601 300.202 16.2401 302.182 16.8401 303.862L4.0601 307.102C3.2201 305.182 2.5001 302.542 1.9001 299.182C1.3001 295.822 1.0001 292.162 1.0001 288.202Z"/>
</mask>
<path d="M34.1201 1.00031L34.1201 0.000305724L33.1201 0.00030568L33.1201 1.00031L34.1201 1.00031ZM166.06 1.00031L167.06 1.00031L167.06 0.000311535L166.06 0.000311491L166.06 1.00031ZM166.06 76.9603L166.06 77.9603L167.06 77.9603L167.06 76.9603L166.06 76.9603ZM152.02 76.9603L151.02 76.9603L151.02 77.9603L152.02 77.9603L152.02 76.9603ZM152.02 17.5603L153.02 17.5603L153.02 16.5603L152.02 16.5603L152.02 17.5603ZM107.38 17.5603L107.38 16.5603L106.38 16.5603L106.38 17.5603L107.38 17.5603ZM107.38 67.9603L107.38 68.9603L108.38 68.9603L108.38 67.9603L107.38 67.9603ZM93.3401 67.9603L92.3401 67.9603L92.3401 68.9603L93.3401 68.9603L93.3401 67.9603ZM93.3401 17.5603L94.3401 17.5603L94.3401 16.5603L93.3401 16.5603L93.3401 17.5603ZM34.1201 17.5603L33.1201 17.5603L33.1201 18.5603L34.1201 18.5603L34.1201 17.5603ZM34.1201 1.00031L34.1201 2.00031L166.06 2.00031L166.06 1.00031L166.06 0.000311491L34.1201 0.000305724L34.1201 1.00031ZM166.06 1.00031L165.06 1.00031L165.06 76.9603L166.06 76.9603L167.06 76.9603L167.06 1.00031L166.06 1.00031ZM166.06 76.9603L166.06 75.9603L152.02 75.9603L152.02 76.9603L152.02 77.9603L166.06 77.9603L166.06 76.9603ZM152.02 76.9603L153.02 76.9603L153.02 17.5603L152.02 17.5603L151.02 17.5603L151.02 76.9603L152.02 76.9603ZM152.02 17.5603L152.02 16.5603L107.38 16.5603L107.38 17.5603L107.38 18.5603L152.02 18.5603L152.02 17.5603ZM107.38 17.5603L106.38 17.5603L106.38 67.9603L107.38 67.9603L108.38 67.9603L108.38 17.5603L107.38 17.5603ZM107.38 67.9603L107.38 66.9603L93.3401 66.9603L93.3401 67.9603L93.3401 68.9603L107.38 68.9603L107.38 67.9603ZM93.3401 67.9603L94.3401 67.9603L94.3401 17.5603L93.3401 17.5603L92.3401 17.5603L92.3401 67.9603L93.3401 67.9603ZM93.3401 17.5603L93.3401 16.5603L34.1201 16.5603L34.1201 17.5603L34.1201 18.5603L93.3401 18.5603L93.3401 17.5603ZM34.1201 17.5603L35.1201 17.5603L35.1201 1.00031L34.1201 1.00031L33.1201 1.00031L33.1201 17.5603L34.1201 17.5603ZM34.1201 74.7708L34.4406 73.8235L33.1201 73.3768L33.1201 74.7708L34.1201 74.7708ZM166.06 119.411L167.06 119.411L167.06 118.693L166.381 118.464L166.06 119.411ZM166.06 137.951L166.382 138.898L167.06 138.667L167.06 137.951L166.06 137.951ZM34.1201 182.771L33.1201 182.771L33.1201 184.167L34.4418 183.718L34.1201 182.771ZM34.1201 165.131L33.8221 164.176L33.1201 164.395L33.1201 165.131L34.1201 165.131ZM107.92 142.091L108.218 143.045L108.223 143.044L107.92 142.091ZM130.06 135.251L129.777 134.292L129.773 134.293L130.06 135.251ZM152.56 128.771L152.831 129.733L153.56 129.528L153.56 128.771L152.56 128.771ZM152.56 128.051L153.56 128.051L153.56 127.282L152.817 127.084L152.56 128.051ZM130.06 121.571L130.358 120.616L130.347 120.613L130.06 121.571ZM107.92 114.911L107.618 115.864L107.631 115.868L107.92 114.911ZM34.1201 91.5108L33.1201 91.5108L33.1201 92.2428L33.8179 92.464L34.1201 91.5108ZM74.4401 97.9908L74.4401 96.9908L73.4401 96.9908L73.4401 97.9908L74.4401 97.9908ZM87.5801 97.9908L88.5801 97.9908L88.5801 96.9908L87.5801 96.9908L87.5801 97.9908ZM87.5801 158.831L87.5801 159.831L88.5801 159.831L88.5801 158.831L87.5801 158.831ZM74.4401 158.831L73.4401 158.831L73.4401 159.831L74.4401 159.831L74.4401 158.831ZM34.1201 74.7708L33.7996 75.718L165.74 120.358L166.06 119.411L166.381 118.464L34.4406 73.8235L34.1201 74.7708ZM166.06 119.411L165.06 119.411L165.06 137.951L166.06 137.951L167.06 137.951L167.06 119.411L166.06 119.411ZM166.06 137.951L165.738 137.004L33.7985 181.824L34.1201 182.771L34.4418 183.718L166.382 138.898L166.06 137.951ZM34.1201 182.771L35.1201 182.771L35.1201 165.131L34.1201 165.131L33.1201 165.131L33.1201 182.771L34.1201 182.771ZM34.1201 165.131L34.4181 166.085L108.218 143.045L107.92 142.091L107.622 141.136L33.8221 164.176L34.1201 165.131ZM107.92 142.091L108.223 143.044C115.778 140.645 123.153 138.367 130.347 136.209L130.06 135.251L129.773 134.293C122.567 136.455 115.182 138.736 107.618 141.138L107.92 142.091ZM130.06 135.251L130.343 136.21C137.659 134.051 145.155 131.892 152.831 129.733L152.56 128.771L152.289 127.808C144.605 129.969 137.101 132.13 129.777 134.292L130.06 135.251ZM152.56 128.771L153.56 128.771L153.56 128.051L152.56 128.051L151.56 128.051L151.56 128.771L152.56 128.771ZM152.56 128.051L152.817 127.084C145.15 125.048 137.664 122.892 130.358 120.616L130.06 121.571L129.763 122.526C137.097 124.81 144.61 126.974 152.303 129.017L152.56 128.051ZM130.06 121.571L130.347 120.613C123.148 118.453 115.768 116.233 108.209 113.953L107.92 114.911L107.631 115.868C115.192 118.148 122.572 120.368 129.773 122.529L130.06 121.571ZM107.92 114.911L108.222 113.958L34.4224 90.5575L34.1201 91.5108L33.8179 92.464L107.618 115.864L107.92 114.911ZM34.1201 91.5108L35.1201 91.5108L35.1201 74.7708L34.1201 74.7708L33.1201 74.7708L33.1201 91.5108L34.1201 91.5108ZM74.4401 97.9908L74.4401 98.9908L87.5801 98.9908L87.5801 97.9908L87.5801 96.9908L74.4401 96.9908L74.4401 97.9908ZM87.5801 97.9908L86.5801 97.9908L86.5801 158.831L87.5801 158.831L88.5801 158.831L88.5801 97.9908L87.5801 97.9908ZM87.5801 158.831L87.5801 157.831L74.4401 157.831L74.4401 158.831L74.4401 159.831L87.5801 159.831L87.5801 158.831ZM74.4401 158.831L75.4401 158.831L75.4401 97.9908L74.4401 97.9908L73.4401 97.9908L73.4401 158.831L74.4401 158.831ZM40.0601 218.542L39.2299 217.984L39.2253 217.991L39.2209 217.998L40.0601 218.542ZM64.0001 198.742L63.5784 197.835L64.0001 198.742ZM136.9 198.742L136.47 199.644L136.474 199.646L136.9 198.742ZM160.3 218.542L161.145 218.006L161.141 218.001L160.3 218.542ZM160.12 277.042L159.284 276.492L159.28 276.499L159.275 276.506L160.12 277.042ZM136.9 297.022L137.33 297.924V297.924L136.9 297.022ZM64.0001 297.022L63.5784 297.928V297.928L64.0001 297.022ZM40.0601 277.042L39.2244 277.591L39.2262 277.594L40.0601 277.042ZM52.3001 268.582L51.5021 269.184V269.184L52.3001 268.582ZM128.98 282.262L128.606 281.334L128.601 281.336L128.98 282.262ZM147.34 268.582L146.534 267.989L146.526 268L147.34 268.582ZM147.34 227.182L146.526 227.763L146.529 227.766L147.34 227.182ZM128.98 213.502L128.601 214.427L128.606 214.429L128.98 213.502ZM71.3801 213.502L71.0157 212.57V212.57L71.3801 213.502ZM52.3001 227.182L51.502 226.579L51.4963 226.587L52.3001 227.182ZM17.3801 249.142L16.7191 248.391L16.7179 248.392L17.3801 249.142ZM34.4801 238.882L35.4767 238.799L35.3666 237.478L34.127 237.946L34.4801 238.882ZM35.9201 256.162L36.2791 257.095L36.9789 256.826L36.9166 256.079L35.9201 256.162ZM24.2201 263.722L23.4998 263.028L23.4935 263.034L23.4873 263.041L24.2201 263.722ZM17.2001 275.422L16.2566 275.09L16.2539 275.098L17.2001 275.422ZM15.4001 297.922L16.3879 297.766V297.766L15.4001 297.922ZM16.8401 303.862L17.0858 304.831L18.1517 304.561L17.7818 303.525L16.8401 303.862ZM4.06011 307.102L3.14394 307.502L3.48384 308.279L4.30585 308.071L4.06011 307.102ZM1.9001 299.182L2.88454 299.006V299.006L1.9001 299.182ZM31.7801 247.882L32.7801 247.882C32.7801 237.017 35.4934 227.429 40.8994 219.085L40.0601 218.542L39.2209 217.998C33.5868 226.694 30.7801 236.666 30.7801 247.882L31.7801 247.882ZM40.0601 218.542L40.8903 219.099C46.4163 210.869 54.2461 204.381 64.4218 199.648L64.0001 198.742L63.5784 197.835C53.1141 202.702 44.9839 209.414 39.2299 217.984L40.0601 218.542ZM64.0001 198.742L64.4218 199.648C74.5826 194.922 86.6126 192.542 100.54 192.542L100.54 191.542L100.54 190.542C86.3876 190.542 74.0576 192.961 63.5784 197.835L64.0001 198.742ZM100.54 191.542L100.54 192.542C114.59 192.542 126.556 194.923 136.47 199.644L136.9 198.742L137.33 197.839C127.085 192.96 114.81 190.542 100.54 190.542L100.54 191.542ZM136.9 198.742L136.474 199.646C146.527 204.377 154.173 210.86 159.459 219.082L160.3 218.542L161.141 218.001C155.627 209.423 147.673 202.706 137.326 197.837L136.9 198.742ZM160.3 218.542L159.455 219.077C164.744 227.422 167.4 237.013 167.4 247.882L168.4 247.882L169.4 247.882C169.4 236.671 166.656 226.701 161.145 218.006L160.3 218.542ZM168.4 247.882L167.4 247.882C167.4 258.746 164.687 268.271 159.284 276.492L160.12 277.042L160.956 277.591C166.593 269.012 169.4 259.097 169.4 247.882L168.4 247.882ZM160.12 277.042L159.275 276.506C153.987 284.85 146.399 291.391 136.47 296.119L136.9 297.022L137.33 297.924C147.561 293.052 155.453 286.273 160.965 277.577L160.12 277.042ZM136.9 297.022L136.47 296.119C126.555 300.84 114.59 303.222 100.54 303.222L100.54 304.222L100.54 305.222C114.81 305.222 127.085 302.803 137.33 297.924L136.9 297.022ZM100.54 304.222L100.54 303.222C86.6126 303.222 74.5826 300.841 64.4218 296.115L64.0001 297.022L63.5784 297.928C74.0576 302.802 86.3876 305.222 100.54 305.222L100.54 304.222ZM64.0001 297.022L64.4218 296.115C54.2497 291.384 46.4207 284.838 40.894 276.49L40.0601 277.042L39.2262 277.594C44.9796 286.285 53.1105 293.06 63.5784 297.928L64.0001 297.022ZM40.0601 277.042L40.8958 276.492C35.4935 268.271 32.7801 258.746 32.7801 247.882L31.7801 247.882L30.7801 247.882C30.7801 259.097 33.5867 269.012 39.2244 277.591L40.0601 277.042ZM45.6401 247.882L44.6401 247.882C44.6401 256.002 46.9209 263.117 51.5021 269.184L52.3001 268.582L53.0981 267.979C48.7993 262.286 46.6401 255.601 46.6401 247.882L45.6401 247.882ZM52.3001 268.582L51.5021 269.184C56.0745 275.24 62.5993 279.899 71.0157 283.193L71.3801 282.262L71.7445 281.33C63.6009 278.144 57.4057 273.684 53.0981 267.979L52.3001 268.582ZM71.3801 282.262L71.0157 283.193C79.4373 286.488 89.286 288.122 100.54 288.122L100.54 287.122L100.54 286.122C89.4742 286.122 79.883 284.515 71.7445 281.33L71.3801 282.262ZM100.54 287.122L100.54 288.122C111.674 288.122 121.289 286.488 129.359 283.187L128.98 282.262L128.601 281.336C120.831 284.515 111.486 286.122 100.54 286.122L100.54 287.122ZM128.98 282.262L129.354 283.189C137.535 279.892 143.823 275.226 148.154 269.163L147.34 268.582L146.526 268C142.457 273.697 136.505 278.151 128.606 281.334L128.98 282.262ZM147.34 268.582L148.146 269.174C152.603 263.107 154.82 255.995 154.82 247.882L153.82 247.882L152.82 247.882C152.82 255.608 150.717 262.296 146.534 267.989L147.34 268.582ZM153.82 247.882L154.82 247.882C154.82 239.884 152.601 232.777 148.152 226.597L147.34 227.182L146.529 227.766C150.719 233.586 152.82 240.279 152.82 247.882L153.82 247.882ZM147.34 227.182L148.154 226.6C143.823 220.537 137.535 215.871 129.354 212.574L128.98 213.502L128.606 214.429C136.505 217.612 142.457 222.066 146.526 227.763L147.34 227.182ZM128.98 213.502L129.359 212.576C121.289 209.275 111.674 207.642 100.54 207.642L100.54 208.642L100.54 209.642C111.486 209.642 120.831 211.248 128.601 214.427L128.98 213.502ZM100.54 208.642L100.54 207.642C89.286 207.642 79.4373 209.275 71.0157 212.57L71.3801 213.502L71.7445 214.433C79.8829 211.248 89.4742 209.642 100.54 209.642L100.54 208.642ZM71.3801 213.502L71.0157 212.57C62.5993 215.864 56.0745 220.524 51.5021 226.579L52.3001 227.182L53.0981 227.784C57.4057 222.08 63.6009 217.619 71.7445 214.433L71.3801 213.502ZM52.3001 227.182L51.4963 226.587C46.9229 232.767 44.6401 239.878 44.6401 247.882L45.6401 247.882L46.6401 247.882C46.6401 240.285 48.7973 233.596 53.1039 227.776L52.3001 227.182ZM1.00011 288.202L2.00011 288.202C2.00011 280.039 3.41933 272.738 6.23664 266.281L5.3201 265.882L4.40357 265.482C1.46086 272.225 0.000109089 279.804 0.000108722 288.202L1.00011 288.202ZM5.3201 265.882L6.23664 266.281C9.06107 259.809 12.9965 254.35 18.0423 249.891L17.3801 249.142L16.7179 248.392C11.4437 253.053 7.33913 258.754 4.40357 265.482L5.3201 265.882ZM17.3801 249.142L18.0411 249.892C22.9894 245.533 28.5848 242.175 34.8332 239.817L34.4801 238.882L34.127 237.946C27.6554 240.388 21.8508 243.87 16.7191 248.391L17.3801 249.142ZM34.4801 238.882L33.4836 238.965L34.9236 256.245L35.9201 256.162L36.9166 256.079L35.4767 238.799L34.4801 238.882ZM35.9201 256.162L35.5611 255.228C30.7604 257.075 26.7324 259.671 23.4998 263.028L24.2201 263.722L24.9404 264.415C27.9478 261.292 31.7198 258.848 36.2791 257.095L35.9201 256.162ZM24.2201 263.722L23.4873 263.041C20.2714 266.504 17.8609 270.524 16.2566 275.09L17.2001 275.422L18.1436 275.753C19.6593 271.439 21.9288 267.659 24.9529 264.402L24.2201 263.722ZM17.2001 275.422L16.2539 275.098C14.6559 279.769 13.8601 284.739 13.8601 290.002L14.8601 290.002L15.8601 290.002C15.8601 284.944 16.6243 280.194 18.1463 275.745L17.2001 275.422ZM14.8601 290.002L13.8601 290.002C13.8601 293.039 14.0422 295.733 14.4123 298.078L15.4001 297.922L16.3879 297.766C16.038 295.55 15.8601 292.964 15.8601 290.002L14.8601 290.002ZM15.4001 297.922L14.4123 298.078C14.7794 300.402 15.2724 302.445 15.8984 304.198L16.8401 303.862L17.7818 303.525C17.2078 301.918 16.7408 300.001 16.3879 297.766L15.4001 297.922ZM16.8401 303.862L16.5944 302.892L3.81435 306.132L4.06011 307.102L4.30585 308.071L17.0858 304.831L16.8401 303.862ZM4.06011 307.102L4.97626 306.701C4.1812 304.883 3.47818 302.33 2.88454 299.006L1.9001 299.182L0.915666 299.357C1.52202 302.753 2.259 305.48 3.14394 307.502L4.06011 307.102ZM1.9001 299.182L2.88454 299.006C2.29637 295.712 2.00011 292.112 2.00011 288.202L1.00011 288.202L0.000108722 288.202C0.000108546 292.211 0.303819 295.931 0.915666 299.357L1.9001 299.182Z" fill="#080052" fill-opacity="0.4" mask="url(#path-1-outside-1_313_651)"/>
</svg>
