<svg width="139" height="821" viewBox="0 0 139 821" fill="none" xmlns="http://www.w3.org/2000/svg">
<mask id="path-1-outside-1_2_949" maskUnits="userSpaceOnUse" x="-0.660668" y="-0.434514" width="140.137" height="821.803" fill="black">
<rect fill="white" x="-0.660668" y="-0.434514" width="140.137" height="821.803"/>
<path d="M3.34328 1.0008L135.412 1.0008L135.412 38.6576C135.412 48.5072 134.151 57.1556 131.629 64.6029C129.226 72.0502 125.202 77.8158 119.557 81.8998C113.911 85.9838 106.284 88.0258 96.6744 88.0258C87.4254 88.0258 79.7979 85.9838 73.7921 81.8998C67.7862 77.8158 63.2818 72.1102 60.2789 64.7831C57.3961 57.4559 55.9547 48.9877 55.9547 39.3783L55.9547 17.577L3.34328 17.577L3.34328 1.0008ZM69.4679 17.577L69.4679 37.2162C69.4679 48.7474 71.63 57.3358 75.9542 62.9813C80.2784 68.6268 87.1852 71.4496 96.6744 71.4496C106.284 71.4496 112.89 68.5067 116.494 62.621C120.097 56.8553 121.899 48.1468 121.899 36.4955L121.899 17.577L69.4679 17.577ZM3.34327 115.018L135.412 115.018L135.412 156.279C135.412 165.287 134.211 173.215 131.809 180.062C129.526 187.029 125.683 192.494 120.277 196.458C114.872 200.422 107.605 202.404 98.4762 202.404C89.7076 202.404 82.3805 200.422 76.4947 196.458C70.7291 192.494 66.4049 187.029 63.522 180.062C60.7593 173.215 59.378 165.287 59.378 156.279L59.378 131.595L3.34327 131.595L3.34327 115.018ZM72.711 131.595L72.711 153.756C72.711 164.086 74.8131 172.014 79.0172 177.539C83.3414 183.065 89.8277 185.828 98.4762 185.828C107.125 185.828 113.191 183.065 116.674 177.539C120.157 172.014 121.899 164.086 121.899 153.756L121.899 131.595L72.711 131.595ZM3.34327 187.449L63.7022 152.855L72.5308 166.008L3.34327 206.187L3.34327 187.449ZM1.00098 278.035C1.00098 266.985 3.76368 257.195 9.28907 248.667C14.9346 240.259 22.9224 233.652 33.2525 228.847C43.5826 224.043 55.7745 221.64 69.8282 221.64C84.002 221.64 96.1339 224.043 106.224 228.847C116.434 233.652 124.241 240.259 129.647 248.667C135.052 257.195 137.755 266.985 137.755 278.035C137.755 289.086 134.992 298.816 129.466 307.224C124.061 315.752 116.314 322.419 106.224 327.223C96.1339 332.028 84.002 334.43 69.8282 334.43C55.7745 334.43 43.5826 332.028 33.2525 327.223C22.9224 322.419 14.9346 315.752 9.28907 307.224C3.76368 298.816 1.00098 289.086 1.00098 278.035ZM15.5952 278.035C15.5952 285.963 17.8174 292.87 22.2617 298.756C26.7061 304.641 33.0122 309.206 41.1802 312.449C49.3482 315.692 58.8975 317.314 69.8282 317.314C80.879 317.314 90.3683 315.692 98.296 312.449C106.344 309.206 112.47 304.641 116.674 298.756C120.998 292.87 123.16 285.963 123.16 278.035C123.16 270.228 120.998 263.321 116.674 257.315C112.47 251.429 106.344 246.865 98.296 243.622C90.3683 240.379 80.879 238.757 69.8282 238.757C58.8975 238.757 49.3482 240.379 41.1802 243.622C33.0122 246.865 26.7061 251.429 22.2617 257.315C17.8174 263.321 15.5952 270.228 15.5952 278.035ZM1.00097 415.003C1.00097 403.352 3.70361 393.021 9.10889 384.013C14.5142 375.124 22.3218 368.097 32.5318 362.932C42.7417 357.887 54.9937 355.365 69.2877 355.365C79.9781 355.365 89.5274 356.866 97.9356 359.869C106.464 362.872 113.671 367.076 119.557 372.481C125.443 378.007 129.947 384.433 133.07 391.76C136.193 399.087 137.755 407.135 137.755 415.904C137.755 425.153 136.013 432.84 132.529 438.966C129.166 445.092 125.503 450.077 121.539 453.921L110.728 444.912C114.212 441.549 117.154 437.585 119.557 433.021C121.959 428.576 123.16 423.051 123.16 416.444C123.16 407.556 120.998 399.808 116.674 393.202C112.35 386.595 106.164 381.49 98.1158 377.887C90.1881 374.283 80.7589 372.481 69.8282 372.481C58.6573 372.481 48.9878 374.163 40.8199 377.526C32.772 381.01 26.5259 386.055 22.0816 392.661C17.7573 399.268 15.5952 407.255 15.5952 416.624C15.5952 421.309 16.2559 425.753 17.5772 429.958C19.0186 434.282 20.9404 437.765 23.3428 440.408L57.9366 440.408L57.9366 412.3L71.8101 412.3L71.8101 455.723L16.3159 455.723C11.8716 451.398 8.20801 445.693 5.32519 438.606C2.44238 431.639 1.00097 423.771 1.00097 415.003ZM3.34326 487.335L135.412 487.335L135.412 528.595C135.412 537.604 134.211 545.532 131.809 552.379C129.526 559.345 125.683 564.811 120.277 568.775C114.872 572.739 107.605 574.72 98.4762 574.72C89.7076 574.72 82.3804 572.739 76.4947 568.775C70.7291 564.811 66.4048 559.345 63.522 552.379C60.7593 545.532 59.378 537.604 59.378 528.595L59.378 503.911L3.34326 503.911L3.34326 487.335ZM72.711 503.911L72.711 526.073C72.711 536.403 74.8131 544.331 79.0172 549.856C83.3414 555.382 89.8277 558.144 98.4762 558.144C107.125 558.144 113.191 555.382 116.674 549.856C120.157 544.331 121.899 536.403 121.899 526.073L121.899 503.911L72.711 503.911ZM3.34325 559.766L63.7022 525.172L72.5308 538.325L3.34325 578.504L3.34325 559.766ZM3.34325 582.996L135.412 627.68L135.412 646.238L3.34325 691.101L3.34325 673.444L77.2154 650.382C84.7828 647.979 92.17 645.697 99.377 643.535C106.704 641.373 114.212 639.211 121.899 637.049L121.899 636.328C114.212 634.286 106.704 632.124 99.377 629.842C92.17 627.68 84.7828 625.457 77.2154 623.175L3.34325 599.752L3.34325 582.996ZM43.7027 606.239L56.8555 606.239L56.8555 667.138L43.7027 667.138L43.7027 606.239ZM3.34325 710.092L135.412 710.092L135.412 730.091L64.7832 755.316C60.3389 756.998 55.7745 758.619 51.0899 760.181C46.4053 761.742 41.7808 763.304 37.2163 764.865L37.2163 765.586C41.7808 767.268 46.4053 768.829 51.0899 770.27C55.7744 771.832 60.3389 773.333 64.7832 774.775L135.412 800L135.412 819.999L3.34324 819.999L3.34324 804.504L76.4947 804.504C80.3384 804.504 84.4825 804.624 88.9268 804.864C93.4913 805.104 98.0557 805.405 102.62 805.765C107.305 806.125 111.569 806.426 115.413 806.666L115.413 805.945L85.3233 795.315L16.6763 770.451L16.6763 759.28L85.3233 734.235L115.413 723.605L115.413 722.884C111.569 723.365 107.305 723.725 102.62 723.965C98.0557 724.326 93.4913 724.566 88.9268 724.686C84.4825 724.926 80.3384 725.046 76.4947 725.046L3.34325 725.046L3.34325 710.092Z"/>
</mask>
<path d="M3.34328 1.00079L3.34328 -0.000182736L2.3423 -0.00018278L2.3423 1.00079L3.34328 1.00079ZM135.412 1.0008L136.413 1.0008L136.413 -0.000176919L135.412 -0.000176963L135.412 1.0008ZM131.629 64.6029L130.68 64.2818L130.678 64.2887L130.676 64.2956L131.629 64.6029ZM119.557 81.8998L118.97 81.0888V81.0888L119.557 81.8998ZM73.7921 81.8998L74.3549 81.0721V81.0721L73.7921 81.8998ZM60.2789 64.7831L59.3473 65.1496L59.3527 65.1627L60.2789 64.7831ZM55.9547 17.577L56.9556 17.577L56.9556 16.576L55.9547 16.576L55.9547 17.577ZM3.34328 17.577L2.3423 17.577L2.3423 18.578L3.34328 18.578L3.34328 17.577ZM69.4679 17.577L69.4679 16.576L68.4669 16.576L68.4669 17.577L69.4679 17.577ZM75.9542 62.9813L76.7488 62.3727V62.3727L75.9542 62.9813ZM116.494 62.621L115.645 62.0904L115.64 62.0983L116.494 62.621ZM121.899 17.577L122.9 17.577L122.9 16.576L121.899 16.576L121.899 17.577ZM3.34328 1.00079L3.34328 2.00177L135.412 2.00178L135.412 1.0008L135.412 -0.000176963L3.34328 -0.000182736L3.34328 1.00079ZM135.412 1.0008L134.411 1.0008L134.411 38.6576L135.412 38.6576L136.413 38.6576L136.413 1.0008L135.412 1.0008ZM135.412 38.6576L134.411 38.6576C134.411 48.4244 133.16 56.9603 130.68 64.2818L131.629 64.6029L132.577 64.924C135.142 57.351 136.413 48.59 136.413 38.6576L135.412 38.6576ZM131.629 64.6029L130.676 64.2956C128.33 71.5664 124.422 77.1447 118.97 81.0888L119.557 81.8998L120.143 82.7108C125.982 78.487 130.122 72.534 132.581 64.9102L131.629 64.6029ZM119.557 81.8998L118.97 81.0888C113.549 85.0103 106.151 87.0248 96.6744 87.0248L96.6744 88.0258L96.6744 89.0268C106.416 89.0268 114.273 86.9573 120.143 82.7108L119.557 81.8998ZM96.6744 88.0258L96.6744 87.0248C87.5714 87.0248 80.1546 85.0159 74.3549 81.0721L73.7921 81.8998L73.2292 82.7275C79.4412 86.9517 87.2794 89.0268 96.6744 89.0268L96.6744 88.0258ZM73.7921 81.8998L74.3549 81.0721C68.5262 77.1085 64.1405 71.566 61.2051 64.4035L60.2789 64.7831L59.3527 65.1627C62.4231 72.6545 67.0462 78.5231 73.2292 82.7275L73.7921 81.8998ZM60.2789 64.7831L61.2104 64.4166C58.3824 57.2288 56.9556 48.8891 56.9556 39.3783L55.9547 39.3783L54.9537 39.3783C54.9537 49.0863 56.4098 57.6831 59.3474 65.1496L60.2789 64.7831ZM55.9547 39.3783L56.9556 39.3783L56.9556 17.577L55.9547 17.577L54.9537 17.577L54.9537 39.3783L55.9547 39.3783ZM55.9547 17.577L55.9547 16.576L3.34328 16.576L3.34328 17.577L3.34328 18.578L55.9547 18.578L55.9547 17.577ZM3.34328 17.577L4.34425 17.577L4.34426 1.00079L3.34328 1.00079L2.3423 1.00079L2.3423 17.577L3.34328 17.577ZM69.4679 17.577L68.4669 17.577L68.4669 37.2162L69.4679 37.2162L70.4688 37.2162L70.4688 17.577L69.4679 17.577ZM69.4679 37.2162L68.4669 37.2162C68.4669 48.8412 70.641 57.6908 75.1595 63.59L75.9542 62.9813L76.7488 62.3727C72.619 56.9809 70.4688 48.6536 70.4688 37.2162L69.4679 37.2162ZM75.9542 62.9813L75.1595 63.59C79.7324 69.5602 86.9862 72.4506 96.6744 72.4506L96.6744 71.4496L96.6744 70.4486C87.3841 70.4486 80.8244 67.6935 76.7488 62.3727L75.9542 62.9813ZM96.6744 71.4496L96.6744 72.4506C106.481 72.4506 113.495 69.4362 117.347 63.1436L116.494 62.621L115.64 62.0983C112.286 67.5773 106.087 70.4486 96.6744 70.4486L96.6744 71.4496ZM116.494 62.621L117.343 63.1515C121.094 57.1499 122.9 48.2163 122.9 36.4955L121.899 36.4955L120.898 36.4955C120.898 48.0774 119.101 56.5608 115.645 62.0905L116.494 62.621ZM121.899 36.4955L122.9 36.4955L122.9 17.577L121.899 17.577L120.898 17.577L120.898 36.4955L121.899 36.4955ZM121.899 17.577L121.899 16.576L69.4679 16.576L69.4679 17.577L69.4679 18.578L121.899 18.578L121.899 17.577ZM3.34327 115.018L3.34327 114.017L2.3423 114.017L2.3423 115.018L3.34327 115.018ZM135.412 115.018L136.413 115.018L136.413 114.017L135.412 114.017L135.412 115.018ZM131.809 180.062L130.864 179.731L130.861 179.74L130.857 179.75L131.809 180.062ZM120.277 196.458L120.869 197.265V197.265L120.277 196.458ZM76.4947 196.458L75.9276 197.283L75.9356 197.288L76.4947 196.458ZM63.522 180.062L62.5938 180.436L62.5971 180.445L63.522 180.062ZM59.378 131.595L60.379 131.595L60.379 130.594L59.378 130.594L59.378 131.595ZM3.34327 131.595L2.34229 131.595L2.34229 132.596L3.34327 132.596L3.34327 131.595ZM72.711 131.595L72.711 130.594L71.71 130.594L71.71 131.595L72.711 131.595ZM79.0172 177.539L78.2205 178.146L78.2289 178.156L79.0172 177.539ZM116.674 177.539L115.827 177.006V177.006L116.674 177.539ZM121.899 131.595L122.9 131.595L122.9 130.594L121.899 130.594L121.899 131.595ZM3.34327 187.449L2.84553 186.581L2.34229 186.869L2.34229 187.449L3.34327 187.449ZM63.7022 152.855L64.5333 152.297L64.0136 151.523L63.2045 151.987L63.7022 152.855ZM72.5308 166.008L73.0335 166.874L73.9573 166.337L73.3619 165.45L72.5308 166.008ZM3.34327 206.187L2.34229 206.187L2.34229 207.926L3.84596 207.053L3.34327 206.187ZM3.34327 115.018L3.34327 116.019L135.412 116.019L135.412 115.018L135.412 114.017L3.34327 114.017L3.34327 115.018ZM135.412 115.018L134.411 115.018L134.411 156.279L135.412 156.279L136.413 156.279L136.413 115.018L135.412 115.018ZM135.412 156.279L134.411 156.279C134.411 165.201 133.221 173.013 130.864 179.731L131.809 180.062L132.753 180.393C135.201 173.418 136.413 165.374 136.413 156.279L135.412 156.279ZM131.809 180.062L130.857 179.75C128.634 186.538 124.906 191.822 119.686 195.651L120.277 196.458L120.869 197.265C126.459 193.166 130.419 187.519 132.76 180.374L131.809 180.062ZM120.277 196.458L119.686 195.651C114.504 199.45 107.468 201.403 98.4762 201.403L98.4762 202.404L98.4762 203.405C107.742 203.405 115.24 201.393 120.869 197.265L120.277 196.458ZM98.4762 202.404L98.4762 201.403C89.8596 201.403 82.7391 199.456 77.0539 195.628L76.4947 196.458L75.9356 197.288C82.0218 201.387 89.5557 203.405 98.4762 203.405L98.4762 202.404ZM76.4947 196.458L77.0618 195.633C71.4681 191.787 67.2618 186.482 64.447 179.679L63.522 180.062L62.5971 180.445C65.548 187.576 69.99 193.201 75.9276 197.283L76.4947 196.458ZM63.522 180.062L64.4503 179.687C61.7449 172.983 60.379 165.187 60.379 156.279L59.378 156.279L58.377 156.279C58.377 165.388 59.7737 173.448 62.5938 180.436L63.522 180.062ZM59.378 156.279L60.379 156.279L60.379 131.595L59.378 131.595L58.377 131.595L58.377 156.279L59.378 156.279ZM59.378 131.595L59.378 130.594L3.34327 130.594L3.34327 131.595L3.34327 132.596L59.378 132.596L59.378 131.595ZM3.34327 131.595L4.34425 131.595L4.34425 115.018L3.34327 115.018L2.3423 115.018L2.34229 131.595L3.34327 131.595ZM72.711 131.595L71.71 131.595L71.71 153.756L72.711 153.756L73.712 153.756L73.712 131.595L72.711 131.595ZM72.711 153.756L71.71 153.756C71.71 164.203 73.8331 172.379 78.2206 178.146L79.0172 177.539L79.8138 176.933C75.793 171.649 73.712 163.969 73.712 153.756L72.711 153.756ZM79.0172 177.539L78.2289 178.156C82.7868 183.98 89.5991 186.829 98.4762 186.829L98.4762 185.828L98.4762 184.827C90.0564 184.827 83.896 182.149 79.8054 176.923L79.0172 177.539ZM98.4762 185.828L98.4762 186.829C107.343 186.829 113.796 183.981 117.521 178.073L116.674 177.539L115.827 177.006C112.585 182.148 106.906 184.827 98.4762 184.827L98.4762 185.828ZM116.674 177.539L117.521 178.073C121.148 172.32 122.9 164.175 122.9 153.756L121.899 153.756L120.898 153.756C120.898 163.998 119.167 171.708 115.827 177.006L116.674 177.539ZM121.899 153.756L122.9 153.756L122.9 131.595L121.899 131.595L120.898 131.595L120.898 153.756L121.899 153.756ZM121.899 131.595L121.899 130.594L72.711 130.594L72.711 131.595L72.711 132.596L121.899 132.596L121.899 131.595ZM3.34327 187.449L3.84101 188.318L64.2 153.724L63.7022 152.855L63.2045 151.987L2.84553 186.581L3.34327 187.449ZM63.7022 152.855L62.8711 153.413L71.6997 166.566L72.5308 166.008L73.3619 165.45L64.5333 152.297L63.7022 152.855ZM72.5308 166.008L72.0282 165.143L2.84058 205.322L3.34327 206.187L3.84596 207.053L73.0335 166.874L72.5308 166.008ZM3.34327 206.187L4.34425 206.187L4.34425 187.449L3.34327 187.449L2.34229 187.449L2.34229 206.187L3.34327 206.187ZM9.28908 248.667L8.45803 248.109L8.45347 248.116L8.44901 248.122L9.28908 248.667ZM33.2525 228.847L32.8303 227.94L33.2525 228.847ZM106.224 228.847L105.793 229.751L105.798 229.753L106.224 228.847ZM129.647 248.667L130.492 248.131L130.489 248.125L129.647 248.667ZM129.466 307.224L128.63 306.674L128.625 306.681L128.621 306.688L129.466 307.224ZM106.224 327.223L106.654 328.127V328.127L106.224 327.223ZM33.2525 327.223L32.8303 328.131V328.131L33.2525 327.223ZM9.28907 307.224L8.45255 307.774L8.4544 307.776L9.28907 307.224ZM22.2617 298.756L21.4629 299.359V299.359L22.2617 298.756ZM41.1802 312.449L40.8108 313.379V313.379L41.1802 312.449ZM98.296 312.449L97.9218 311.521L97.917 311.523L98.296 312.449ZM116.674 298.756L115.867 298.163L115.859 298.174L116.674 298.756ZM116.674 257.315L115.859 257.897L115.862 257.9L116.674 257.315ZM98.296 243.622L97.917 244.548L97.9219 244.55L98.296 243.622ZM41.1802 243.622L40.8108 242.691V242.691L41.1802 243.622ZM22.2617 257.315L21.4629 256.712L21.4571 256.72L22.2617 257.315ZM1.00098 278.035L2.00196 278.035C2.00196 267.16 4.71795 257.563 10.1291 249.211L9.28908 248.667L8.44901 248.122C2.8094 256.827 4.91656e-06 266.809 4.42584e-06 278.035L1.00098 278.035ZM9.28908 248.667L10.1201 249.225C15.6515 240.986 23.489 234.492 33.6746 229.755L33.2525 228.847L32.8303 227.94C22.3558 232.812 14.2177 239.531 8.45803 248.109L9.28908 248.667ZM33.2525 228.847L33.6746 229.755C43.8453 225.024 55.8871 222.641 69.8282 222.641L69.8282 221.64L69.8282 220.639C55.6619 220.639 43.3198 223.061 32.8303 227.94L33.2525 228.847ZM69.8282 221.64L69.8282 222.641C83.8919 222.641 95.869 225.025 105.793 229.751L106.224 228.847L106.654 227.944C96.3988 223.06 84.1122 220.639 69.8282 220.639L69.8282 221.64ZM106.224 228.847L105.798 229.753C115.86 234.488 123.514 240.978 128.805 249.208L129.647 248.667L130.489 248.125C124.969 239.539 117.007 232.816 106.65 227.942L106.224 228.847ZM129.647 248.667L128.801 249.203C134.095 257.556 136.754 267.156 136.754 278.035L137.755 278.035L138.756 278.035C138.756 266.813 136.008 256.834 130.492 248.131L129.647 248.667ZM137.755 278.035L136.754 278.035C136.754 288.911 134.038 298.445 128.63 306.674L129.466 307.224L130.303 307.774C135.946 299.186 138.756 289.262 138.756 278.035L137.755 278.035ZM129.466 307.224L128.621 306.688C123.327 315.04 115.732 321.587 105.793 326.32L106.224 327.223L106.654 328.127C116.895 323.25 124.795 316.464 130.312 307.76L129.466 307.224ZM106.224 327.223L105.793 326.32C95.869 331.046 83.8919 333.429 69.8282 333.429L69.8282 334.43L69.8282 335.431C84.1122 335.431 96.3988 333.011 106.654 328.127L106.224 327.223ZM69.8282 334.43L69.8282 333.429C55.887 333.429 43.8453 331.046 33.6746 326.316L33.2525 327.223L32.8303 328.131C43.3198 333.01 55.6619 335.431 69.8282 335.431L69.8282 334.43ZM33.2525 327.223L33.6746 326.316C23.4925 321.58 15.6558 315.028 10.1237 306.671L9.28907 307.224L8.4544 307.776C14.2133 316.476 22.3522 323.258 32.8303 328.131L33.2525 327.223ZM9.28907 307.224L10.1256 306.674C4.71796 298.445 2.00196 288.911 2.00196 278.035L1.00098 278.035L4.42584e-06 278.035C3.93513e-06 289.262 2.80939 299.186 8.45255 307.774L9.28907 307.224ZM15.5952 278.035L14.5943 278.035C14.5943 286.164 16.8773 293.286 21.4629 299.359L22.2617 298.756L23.0606 298.152C18.7575 292.454 16.5962 285.763 16.5962 278.035L15.5952 278.035ZM22.2617 298.756L21.4629 299.359C26.0373 305.417 32.5053 310.082 40.8108 313.379L41.1802 312.449L41.5496 311.519C33.5191 308.33 27.3749 303.866 23.0606 298.152L22.2617 298.756ZM41.1802 312.449L40.8108 313.379C49.1212 316.679 58.8008 318.315 69.8282 318.315L69.8282 317.314L69.8282 316.313C58.9942 316.313 49.5752 314.705 41.5496 311.519L41.1802 312.449ZM69.8282 317.314L69.8282 318.315C80.9729 318.315 90.5976 316.68 98.675 313.375L98.296 312.449L97.917 311.523C90.1389 314.705 80.785 316.313 69.8282 316.313L69.8282 317.314ZM98.296 312.449L98.6701 313.377C106.859 310.077 113.153 305.407 117.488 299.337L116.674 298.756L115.859 298.174C111.787 303.876 105.829 308.334 97.9219 311.521L98.296 312.449ZM116.674 298.756L117.481 299.348C121.942 293.276 124.161 286.157 124.161 278.035L123.16 278.035L122.159 278.035C122.159 285.769 120.054 292.464 115.867 298.163L116.674 298.756ZM123.16 278.035L124.161 278.035C124.161 270.03 121.94 262.916 117.486 256.73L116.674 257.315L115.862 257.9C120.056 263.726 122.159 270.425 122.159 278.035L123.16 278.035ZM116.674 257.315L117.488 256.733C113.153 250.664 106.859 245.993 98.6701 242.693L98.296 243.622L97.9219 244.55C105.829 247.736 111.787 252.195 115.859 257.897L116.674 257.315ZM98.296 243.622L98.675 242.695C90.5976 239.391 80.9729 237.756 69.8282 237.756L69.8282 238.757L69.8282 239.758C80.785 239.758 90.1389 241.366 97.917 244.548L98.296 243.622ZM69.8282 238.757L69.8282 237.756C58.8008 237.756 49.1212 239.392 40.8108 242.691L41.1802 243.622L41.5496 244.552C49.5752 241.365 58.9942 239.758 69.8282 239.758L69.8282 238.757ZM41.1802 243.622L40.8108 242.691C32.5054 245.989 26.0373 250.654 21.4629 256.712L22.2617 257.315L23.0606 257.918C27.3749 252.205 33.5191 247.741 41.5496 244.552L41.1802 243.622ZM22.2617 257.315L21.4571 256.72C16.8793 262.906 14.5943 270.024 14.5943 278.035L15.5952 278.035L16.5962 278.035C16.5962 270.432 18.7555 263.736 23.0664 257.911L22.2617 257.315ZM9.10889 384.013L8.25362 383.493L8.25056 383.498L9.10889 384.013ZM32.5318 362.932L32.0883 362.035L32.0799 362.039L32.5318 362.932ZM97.9356 359.869L97.599 360.812L97.6032 360.813L97.9356 359.869ZM119.557 372.481L120.242 371.752L120.234 371.744L119.557 372.481ZM133.07 391.76L132.149 392.153V392.153L133.07 391.76ZM132.529 438.966L131.659 438.472L131.656 438.478L131.652 438.485L132.529 438.966ZM121.539 453.921L120.898 454.69L121.589 455.266L122.236 454.64L121.539 453.921ZM110.728 444.912L110.033 444.192L109.23 444.967L110.087 445.681L110.728 444.912ZM119.557 433.021L118.676 432.545L118.671 432.554L119.557 433.021ZM116.674 393.202L115.836 393.75V393.75L116.674 393.202ZM98.1158 377.887L97.7016 378.798L97.7068 378.8L98.1158 377.887ZM40.8199 377.526L40.4387 376.601L40.4305 376.604L40.4222 376.608L40.8199 377.526ZM22.0816 392.661L21.251 392.102L21.244 392.113L22.0816 392.661ZM17.5772 429.958L16.6222 430.258L16.6248 430.266L16.6275 430.274L17.5772 429.958ZM23.3428 440.408L22.6021 441.081L22.9 441.409L23.3428 441.409L23.3428 440.408ZM57.9366 440.408L57.9366 441.409L58.9376 441.409L58.9376 440.408L57.9366 440.408ZM57.9366 412.3L57.9366 411.299L56.9356 411.299L56.9356 412.3L57.9366 412.3ZM71.8101 412.3L72.8111 412.3L72.8111 411.299L71.8101 411.299L71.8101 412.3ZM71.8101 455.723L71.8101 456.724L72.8111 456.724L72.8111 455.723L71.8101 455.723ZM16.3159 455.723L15.6179 456.44L15.9093 456.724L16.3159 456.724L16.3159 455.723ZM5.32519 438.606L6.25241 438.229L6.25012 438.223L5.32519 438.606ZM1.00098 415.003L2.00195 415.003C2.00195 403.513 4.66522 393.364 9.96722 384.528L9.10889 384.013L8.25056 383.498C2.742 392.679 -1.04486e-06 403.19 -1.5612e-06 415.003L1.00098 415.003ZM9.10889 384.013L9.96415 384.533C15.2628 375.819 22.9231 368.915 32.9836 363.825L32.5318 362.932L32.0799 362.039C21.7205 367.28 13.7655 374.429 8.25363 383.493L9.10889 384.013ZM32.5318 362.932L32.9752 363.829C43.0166 358.868 55.1093 356.366 69.2877 356.366L69.2877 355.365L69.2877 354.364C54.8782 354.364 42.4668 356.906 32.0883 362.035L32.5318 362.932ZM69.2877 355.365L69.2877 356.366C79.8854 356.366 89.3178 357.854 97.599 360.812L97.9356 359.869L98.2723 358.926C89.7371 355.878 80.0708 354.364 69.2877 354.364L69.2877 355.365ZM97.9356 359.869L97.6032 360.813C106.021 363.777 113.106 367.916 118.88 373.219L119.557 372.481L120.234 371.744C114.236 366.236 106.907 361.967 98.2681 358.925L97.9356 359.869ZM119.557 372.481L118.872 373.211C124.658 378.643 129.081 384.955 132.149 392.153L133.07 391.76L133.991 391.368C130.813 383.911 126.227 377.371 120.242 371.752L119.557 372.481ZM133.07 391.76L132.149 392.153C135.214 399.344 136.754 407.256 136.754 415.904L137.755 415.904L138.756 415.904C138.756 407.014 137.172 398.831 133.991 391.368L133.07 391.76ZM137.755 415.904L136.754 415.904C136.754 425.032 135.034 432.536 131.659 438.472L132.529 438.966L133.4 439.461C136.991 433.144 138.756 425.274 138.756 415.904L137.755 415.904ZM132.529 438.966L131.652 438.485C128.325 444.545 124.718 449.444 120.842 453.202L121.539 453.921L122.236 454.64C126.287 450.711 130.008 445.639 133.407 439.448L132.529 438.966ZM121.539 453.921L122.179 453.152L111.369 444.143L110.728 444.912L110.087 445.681L120.898 454.69L121.539 453.921ZM110.728 444.912L111.423 445.632C114.988 442.19 117.994 438.139 120.443 433.487L119.557 433.021L118.671 432.554C116.315 437.031 113.435 440.907 110.033 444.192L110.728 444.912ZM119.557 433.021L120.437 433.496C122.939 428.868 124.161 423.167 124.161 416.444L123.16 416.444L122.159 416.444C122.159 422.934 120.979 428.284 118.676 432.545L119.557 433.021ZM123.16 416.444L124.161 416.444C124.161 407.386 121.955 399.443 117.511 392.653L116.674 393.202L115.836 393.75C120.041 400.173 122.159 407.725 122.159 416.444L123.16 416.444ZM116.674 393.202L117.511 392.653C113.07 385.868 106.726 380.645 98.5249 376.973L98.1158 377.887L97.7068 378.8C105.601 382.335 111.629 387.322 115.836 393.75L116.674 393.202ZM98.1158 377.887L98.53 376.975C90.4435 373.3 80.8664 371.48 69.8282 371.48L69.8282 372.481L69.8282 373.482C80.6513 373.482 89.9327 375.267 97.7016 378.798L98.1158 377.887ZM69.8282 372.481L69.8282 371.48C58.5598 371.48 48.755 373.176 40.4387 376.601L40.8199 377.526L41.201 378.452C49.2207 375.15 58.7548 373.482 69.8282 373.482L69.8282 372.481ZM40.8199 377.526L40.4222 376.608C32.2171 380.159 25.813 385.321 21.251 392.102L22.0816 392.661L22.9121 393.22C27.2388 386.788 33.3269 381.86 41.2175 378.445L40.8199 377.526ZM22.0816 392.661L21.244 392.113C16.7946 398.911 14.5943 407.098 14.5943 416.625L15.5952 416.625L16.5962 416.625C16.5962 407.413 18.7201 399.624 22.9191 393.209L22.0816 392.661ZM15.5952 416.625L14.5943 416.625C14.5943 421.404 15.2686 425.95 16.6222 430.258L17.5772 429.958L18.5321 429.657C17.2432 425.556 16.5962 421.214 16.5962 416.625L15.5952 416.625ZM17.5772 429.958L16.6275 430.274C18.1013 434.695 20.084 438.311 22.6021 441.081L23.3428 440.408L24.0835 439.734C21.7969 437.219 19.9358 433.868 18.5268 429.641L17.5772 429.958ZM23.3428 440.408L23.3428 441.409L57.9366 441.409L57.9366 440.408L57.9366 439.407L23.3428 439.407L23.3428 440.408ZM57.9366 440.408L58.9376 440.408L58.9376 412.3L57.9366 412.3L56.9356 412.3L56.9356 440.408L57.9366 440.408ZM57.9366 412.3L57.9366 413.301L71.8101 413.301L71.8101 412.3L71.8101 411.299L57.9366 411.299L57.9366 412.3ZM71.8101 412.3L70.8091 412.3L70.8091 455.723L71.8101 455.723L72.8111 455.723L72.8111 412.3L71.8101 412.3ZM71.8101 455.723L71.8101 454.722L16.3159 454.722L16.3159 455.723L16.3159 456.724L71.8101 456.724L71.8101 455.723ZM16.3159 455.723L17.014 455.005C12.689 450.797 9.09498 445.217 6.2524 438.229L5.32519 438.606L4.398 438.983C7.32104 446.169 11.0542 452 15.6179 456.44L16.3159 455.723ZM5.32519 438.606L6.25012 438.223C3.425 431.396 2.00195 423.661 2.00195 415.003L1.00098 415.003L-1.5612e-06 415.003C-1.9493e-06 423.882 1.45975 431.882 4.40028 438.989L5.32519 438.606ZM3.34326 487.335L3.34326 486.334L2.34228 486.334L2.34228 487.335L3.34326 487.335ZM135.412 487.335L136.413 487.335L136.413 486.334L135.412 486.334L135.412 487.335ZM131.809 552.379L130.864 552.047L130.861 552.057L130.857 552.067L131.809 552.379ZM120.277 568.775L120.869 569.582V569.582L120.277 568.775ZM76.4947 568.775L75.9276 569.6L75.9355 569.605L76.4947 568.775ZM63.522 552.379L62.5937 552.753L62.5971 552.761L63.522 552.379ZM59.378 503.911L60.379 503.911L60.379 502.91L59.378 502.91L59.378 503.911ZM3.34326 503.911L2.34228 503.911L2.34228 504.912L3.34326 504.912L3.34326 503.911ZM72.711 503.911L72.711 502.91L71.71 502.91L71.71 503.911L72.711 503.911ZM79.0172 549.856L78.2205 550.462L78.2289 550.473L79.0172 549.856ZM116.674 549.856L115.827 549.322V549.322L116.674 549.856ZM121.899 503.911L122.9 503.911L122.9 502.91L121.899 502.91L121.899 503.911ZM3.34325 559.766L2.84551 558.897L2.34228 559.186L2.34228 559.766L3.34325 559.766ZM63.7022 525.172L64.5333 524.614L64.0136 523.84L63.2045 524.304L63.7022 525.172ZM72.5308 538.325L73.0335 539.19L73.9573 538.654L73.3619 537.767L72.5308 538.325ZM3.34325 578.504L2.34228 578.504L2.34227 580.243L3.84594 579.37L3.34325 578.504ZM3.34326 487.335L3.34326 488.336L135.412 488.336L135.412 487.335L135.412 486.334L3.34326 486.334L3.34326 487.335ZM135.412 487.335L134.411 487.335L134.411 528.595L135.412 528.595L136.413 528.595L136.413 487.335L135.412 487.335ZM135.412 528.595L134.411 528.595C134.411 537.518 133.221 545.329 130.864 552.047L131.809 552.379L132.753 552.71C135.201 545.735 136.413 537.691 136.413 528.595L135.412 528.595ZM131.809 552.379L130.857 552.067C128.634 558.855 124.906 564.139 119.686 567.967L120.277 568.775L120.869 569.582C126.459 565.483 130.419 559.836 132.76 552.69L131.809 552.379ZM120.277 568.775L119.686 567.967C114.504 571.767 107.468 573.719 98.4762 573.719L98.4762 574.72L98.4762 575.721C107.742 575.721 115.24 573.71 120.869 569.582L120.277 568.775ZM98.4762 574.72L98.4762 573.719C89.8595 573.719 82.7391 571.773 77.0538 567.944L76.4947 568.775L75.9355 569.605C82.0218 573.704 89.5556 575.721 98.4762 575.721L98.4762 574.72ZM76.4947 568.775L77.0618 567.95C71.4681 564.104 67.2617 558.798 64.4469 551.996L63.522 552.379L62.5971 552.761C65.5479 559.893 69.99 565.517 75.9276 569.599L76.4947 568.775ZM63.522 552.379L64.4503 552.004C61.7449 545.299 60.379 537.503 60.379 528.595L59.378 528.595L58.377 528.595C58.377 537.705 59.7737 545.764 62.5938 552.753L63.522 552.379ZM59.378 528.595L60.379 528.595L60.379 503.911L59.378 503.911L58.377 503.911L58.377 528.595L59.378 528.595ZM59.378 503.911L59.378 502.91L3.34326 502.91L3.34326 503.911L3.34326 504.912L59.378 504.912L59.378 503.911ZM3.34326 503.911L4.34423 503.911L4.34423 487.335L3.34326 487.335L2.34228 487.335L2.34228 503.911L3.34326 503.911ZM72.711 503.911L71.71 503.911L71.71 526.073L72.711 526.073L73.712 526.073L73.712 503.911L72.711 503.911ZM72.711 526.073L71.71 526.073C71.71 536.52 73.8331 544.696 78.2206 550.462L79.0172 549.856L79.8138 549.25C75.793 543.966 73.712 536.286 73.712 526.073L72.711 526.073ZM79.0172 549.856L78.2289 550.473C82.7868 556.297 89.5991 559.145 98.4762 559.145L98.4762 558.144L98.4762 557.143C90.0564 557.143 83.896 554.466 79.8054 549.239L79.0172 549.856ZM98.4762 558.144L98.4762 559.145C107.343 559.145 113.796 556.298 117.521 550.39L116.674 549.856L115.827 549.322C112.585 554.465 106.906 557.143 98.4762 557.143L98.4762 558.144ZM116.674 549.856L117.521 550.39C121.148 544.637 122.9 536.492 122.9 526.073L121.899 526.073L120.898 526.073C120.898 536.314 119.167 544.024 115.827 549.322L116.674 549.856ZM121.899 526.073L122.9 526.073L122.9 503.911L121.899 503.911L120.898 503.911L120.898 526.073L121.899 526.073ZM121.899 503.911L121.899 502.91L72.711 502.91L72.711 503.911L72.711 504.912L121.899 504.912L121.899 503.911ZM3.34325 559.766L3.84099 560.634L64.1999 526.041L63.7022 525.172L63.2045 524.304L2.84551 558.897L3.34325 559.766ZM63.7022 525.172L62.8711 525.73L71.6997 538.883L72.5308 538.325L73.3619 537.767L64.5333 524.614L63.7022 525.172ZM72.5308 538.325L72.0281 537.459L2.84056 577.639L3.34325 578.504L3.84594 579.37L73.0335 539.19L72.5308 538.325ZM3.34325 578.504L4.34423 578.504L4.34423 559.766L3.34325 559.766L2.34228 559.766L2.34228 578.504L3.34325 578.504ZM3.34325 582.996L3.66406 582.048L2.34227 581.6L2.34227 582.996L3.34325 582.996ZM135.412 627.679L136.413 627.679L136.413 626.961L135.733 626.731L135.412 627.679ZM135.412 646.238L135.734 647.185L136.413 646.955L136.413 646.238L135.412 646.238ZM3.34325 691.101L2.34227 691.101L2.34227 692.499L3.66522 692.049L3.34325 691.101ZM3.34325 673.444L3.04495 672.489L2.34227 672.708L2.34227 673.444L3.34325 673.444ZM77.2154 650.382L77.5137 651.337L77.5183 651.336L77.2154 650.382ZM99.377 643.535L99.0937 642.575L99.0894 642.576L99.377 643.535ZM121.899 637.049L122.17 638.012L122.9 637.807L122.9 637.049L121.899 637.049ZM121.899 636.328L122.9 636.328L122.9 635.558L122.156 635.361L121.899 636.328ZM99.377 629.842L99.6747 628.886L99.6647 628.883L99.377 629.842ZM77.2154 623.175L76.9128 624.129L76.9264 624.133L77.2154 623.175ZM3.34325 599.752L2.34227 599.752L2.34227 600.485L3.04071 600.706L3.34325 599.752ZM43.7027 606.239L43.7027 605.238L42.7017 605.238L42.7017 606.239L43.7027 606.239ZM56.8555 606.239L57.8565 606.239L57.8565 605.238L56.8555 605.238L56.8555 606.239ZM56.8555 667.138L56.8555 668.139L57.8565 668.139L57.8565 667.138L56.8555 667.138ZM43.7027 667.138L42.7017 667.138L42.7017 668.139L43.7027 668.139L43.7027 667.138ZM3.34325 582.996L3.02244 583.944L135.091 628.628L135.412 627.679L135.733 626.731L3.66406 582.048L3.34325 582.996ZM135.412 627.679L134.411 627.679L134.411 646.238L135.412 646.238L136.413 646.238L136.413 627.679L135.412 627.679ZM135.412 646.238L135.09 645.29L3.02128 690.154L3.34325 691.101L3.66522 692.049L135.734 647.185L135.412 646.238ZM3.34325 691.101L4.34423 691.101L4.34423 673.444L3.34325 673.444L2.34227 673.444L2.34227 691.101L3.34325 691.101ZM3.34325 673.444L3.64154 674.4L77.5137 651.337L77.2154 650.382L76.9171 649.426L3.04495 672.489L3.34325 673.444ZM77.2154 650.382L77.5183 651.336C85.0809 648.935 92.463 646.654 99.6647 644.494L99.377 643.535L99.0894 642.576C91.877 644.74 84.4847 647.024 76.9125 649.428L77.2154 650.382ZM99.377 643.535L99.6603 644.495C106.983 642.334 114.486 640.173 122.17 638.012L121.899 637.049L121.628 636.085C113.937 638.248 106.425 640.412 99.0937 642.575L99.377 643.535ZM121.899 637.049L122.9 637.049L122.9 636.328L121.899 636.328L120.898 636.328L120.898 637.049L121.899 637.049ZM121.899 636.328L122.156 635.361C114.482 633.322 106.988 631.164 99.6747 628.886L99.377 629.842L99.0794 630.797C106.42 633.084 113.941 635.25 121.642 637.295L121.899 636.328ZM99.377 629.842L99.6647 628.883C92.4581 626.721 85.0714 624.499 77.5044 622.217L77.2154 623.175L76.9264 624.133C84.4942 626.416 91.8819 628.638 99.0894 630.8L99.377 629.842ZM77.2154 623.175L77.5179 622.221L3.64579 598.798L3.34325 599.752L3.04071 600.706L76.9129 624.129L77.2154 623.175ZM3.34325 599.752L4.34423 599.752L4.34423 582.996L3.34325 582.996L2.34227 582.996L2.34227 599.752L3.34325 599.752ZM43.7027 606.239L43.7027 607.24L56.8555 607.24L56.8555 606.239L56.8555 605.238L43.7027 605.238L43.7027 606.239ZM56.8555 606.239L55.8545 606.239L55.8545 667.138L56.8555 667.138L57.8565 667.138L57.8565 606.239L56.8555 606.239ZM56.8555 667.138L56.8555 666.137L43.7027 666.137L43.7027 667.138L43.7027 668.139L56.8555 668.139L56.8555 667.138ZM43.7027 667.138L44.7036 667.138L44.7036 606.239L43.7027 606.239L42.7017 606.239L42.7017 667.138L43.7027 667.138ZM3.34325 710.092L3.34325 709.091L2.34227 709.091L2.34227 710.092L3.34325 710.092ZM135.412 710.092L136.413 710.092L136.413 709.091L135.412 709.091L135.412 710.092ZM135.412 730.091L135.749 731.034L136.413 730.797L136.413 730.091L135.412 730.091ZM64.7832 755.316L64.4466 754.373L64.4378 754.376L64.429 754.38L64.7832 755.316ZM51.0899 760.181L50.7733 759.231V759.231L51.0899 760.181ZM37.2163 764.865L36.8923 763.918L36.2153 764.15L36.2153 764.865L37.2163 764.865ZM37.2163 765.586L36.2153 765.586L36.2153 766.284L36.8703 766.525L37.2163 765.586ZM51.0899 770.27L51.4064 769.321L51.3954 769.317L51.3843 769.314L51.0899 770.27ZM64.7832 774.775L65.1199 773.832L65.1061 773.827L65.0921 773.823L64.7832 774.775ZM135.412 800L136.413 800L136.413 799.294L135.749 799.057L135.412 800ZM135.412 819.999L135.412 821L136.413 821L136.413 819.999L135.412 819.999ZM3.34324 819.999L2.34226 819.999L2.34226 821L3.34324 821L3.34324 819.999ZM3.34324 804.504L3.34324 803.503L2.34227 803.503L2.34227 804.504L3.34324 804.504ZM88.9268 804.864L88.8728 805.864L88.8742 805.864L88.9268 804.864ZM102.62 805.765L102.541 806.763L102.543 806.763L102.62 805.765ZM115.413 806.666L115.35 807.665L116.414 807.732L116.414 806.666L115.413 806.666ZM115.413 805.945L116.414 805.945L116.414 805.237L115.746 805.002L115.413 805.945ZM85.3233 795.315L84.9824 796.256L84.9899 796.259L85.3233 795.315ZM16.6763 770.451L15.6753 770.451L15.6753 771.153L16.3354 771.392L16.6763 770.451ZM16.6763 759.28L16.3332 758.339L15.6753 758.579L15.6753 759.28L16.6763 759.28ZM85.3233 734.235L84.9899 733.291L84.9802 733.295L85.3233 734.235ZM115.413 723.605L115.746 724.549L116.414 724.313L116.414 723.605L115.413 723.605ZM115.413 722.884L116.414 722.884L116.414 721.75L115.289 721.891L115.413 722.884ZM102.62 723.965L102.569 722.966L102.555 722.966L102.541 722.967L102.62 723.965ZM88.9268 724.686L88.9005 723.685L88.8866 723.686L88.8728 723.686L88.9268 724.686ZM3.34325 725.046L2.34227 725.046L2.34227 726.047L3.34325 726.047L3.34325 725.046ZM3.34325 710.092L3.34325 711.093L135.412 711.093L135.412 710.092L135.412 709.091L3.34325 709.091L3.34325 710.092ZM135.412 710.092L134.411 710.092L134.411 730.091L135.412 730.091L136.413 730.091L136.413 710.092L135.412 710.092ZM135.412 730.091L135.076 729.149L64.4466 754.373L64.7832 755.316L65.1199 756.259L135.749 731.034L135.412 730.091ZM64.7832 755.316L64.429 754.38C59.9976 756.056 55.4457 757.674 50.7733 759.231L51.0899 760.181L51.4064 761.13C56.1031 759.565 60.6802 757.939 65.1375 756.252L64.7832 755.316ZM51.0899 760.181L50.7733 759.231C46.0863 760.793 41.4593 762.356 36.8923 763.918L37.2163 764.865L37.5403 765.812C42.1022 764.252 46.7243 762.691 51.4064 761.13L51.0899 760.181ZM37.2163 764.865L36.2153 764.865L36.2153 765.586L37.2163 765.586L38.2173 765.586L38.2173 764.865L37.2163 764.865ZM37.2163 765.586L36.8703 766.525C41.4519 768.213 46.0937 769.78 50.7955 771.227L51.0899 770.27L51.3843 769.314C46.7169 767.878 42.1096 766.322 37.5624 764.647L37.2163 765.586ZM51.0899 770.27L50.7733 771.22C55.4603 772.782 60.0274 774.285 64.4744 775.727L64.7832 774.775L65.0921 773.823C60.6504 772.382 56.0886 770.882 51.4064 769.321L51.0899 770.27ZM64.7832 774.775L64.4466 775.718L135.076 800.942L135.412 800L135.749 799.057L65.1199 773.832L64.7832 774.775ZM135.412 800L134.411 800L134.411 819.999L135.412 819.999L136.413 819.999L136.413 800L135.412 800ZM135.412 819.999L135.412 818.998L3.34324 818.998L3.34324 819.999L3.34324 821L135.412 821L135.412 819.999ZM3.34324 819.999L4.34422 819.999L4.34422 804.504L3.34324 804.504L2.34227 804.504L2.34226 819.999L3.34324 819.999ZM3.34324 804.504L3.34324 805.505L76.4947 805.505L76.4947 804.504L76.4947 803.503L3.34324 803.503L3.34324 804.504ZM76.4947 804.504L76.4947 805.505C80.3179 805.505 84.4437 805.624 88.8728 805.864L88.9268 804.864L88.9809 803.865C84.5213 803.624 80.359 803.503 76.4947 803.503L76.4947 804.504ZM88.9268 804.864L88.8742 805.864C93.4299 806.104 97.9857 806.403 102.541 806.763L102.62 805.765L102.699 804.767C98.1258 804.406 93.5526 804.105 88.9794 803.865L88.9268 804.864ZM102.62 805.765L102.543 806.763C107.232 807.124 111.501 807.424 115.35 807.665L115.413 806.666L115.475 805.667C111.637 805.427 107.378 805.127 102.697 804.767L102.62 805.765ZM115.413 806.666L116.414 806.666L116.414 805.945L115.413 805.945L114.412 805.945L114.412 806.666L115.413 806.666ZM115.413 805.945L115.746 805.002L85.6567 794.371L85.3233 795.315L84.9899 796.259L115.079 806.889L115.413 805.945ZM85.3233 795.315L85.6642 794.374L17.0172 769.51L16.6763 770.451L16.3354 771.392L84.9824 796.256L85.3233 795.315ZM16.6763 770.451L17.6772 770.451L17.6773 759.28L16.6763 759.28L15.6753 759.28L15.6753 770.451L16.6763 770.451ZM16.6763 759.28L17.0193 760.22L85.6664 735.176L85.3233 734.235L84.9802 733.295L16.3332 758.339L16.6763 759.28ZM85.3233 734.235L85.6567 735.179L115.746 724.549L115.413 723.605L115.079 722.661L84.9899 733.291L85.3233 734.235ZM115.413 723.605L116.414 723.605L116.414 722.884L115.413 722.884L114.412 722.884L114.412 723.605L115.413 723.605ZM115.413 722.884L115.289 721.891C111.473 722.368 107.234 722.726 102.569 722.966L102.62 723.965L102.671 724.965C107.376 724.724 111.664 724.361 115.537 723.877L115.413 722.884ZM102.62 723.965L102.541 722.967C97.9944 723.326 93.4474 723.566 88.9005 723.685L88.9268 724.686L88.9532 725.687C93.5352 725.566 98.1171 725.325 102.699 724.963L102.62 723.965ZM88.9268 724.686L88.8728 723.686C84.4437 723.926 80.3179 724.045 76.4947 724.045L76.4947 725.046L76.4947 726.047C80.359 726.047 84.5213 725.927 88.9809 725.685L88.9268 724.686ZM76.4947 725.046L76.4947 724.045L3.34325 724.045L3.34325 725.046L3.34325 726.047L76.4947 726.047L76.4947 725.046ZM3.34325 725.046L4.34422 725.046L4.34422 710.092L3.34325 710.092L2.34227 710.092L2.34227 725.046L3.34325 725.046Z" fill="white" fill-opacity="0.6" mask="url(#path-1-outside-1_2_949)"/>
</svg>
