<svg width="75" height="75" viewBox="0 0 75 75" fill="none" xmlns="http://www.w3.org/2000/svg">
<g clip-path="url(#clip0_4208_278)">
<path d="M37.5 0C58.1766 0 75 13.65 75 30.4313C75 37.1484 72.3984 43.1953 66.9609 49.1531C59.0953 58.2094 41.5031 69.2391 37.5 70.9266C33.6094 72.5672 34.0594 70.0031 34.2375 68.9906L34.2516 68.9062L34.7859 65.6953C34.9125 64.7391 35.0437 63.2531 34.6641 62.3062C34.2422 61.2609 32.5828 60.7172 31.3641 60.4547C13.3406 58.0781 0 45.4734 0 30.4313C0 13.65 16.8281 0 37.5 0ZM23.5406 36.0281H16.3922V23.0531C16.3922 22.86 16.3158 22.6747 16.1797 22.5377C16.0435 22.4007 15.8588 22.3231 15.6656 22.3219H13.0312C12.9352 22.3219 12.8401 22.3408 12.7514 22.3775C12.6627 22.4143 12.5821 22.4682 12.5142 22.5361C12.4463 22.604 12.3924 22.6846 12.3557 22.7733C12.3189 22.862 12.3 22.9571 12.3 23.0531V39.3938C12.3 39.5859 12.3797 39.7687 12.5062 39.8953V39.9L12.5156 39.9094L12.525 39.9187C12.5917 39.9843 12.6709 40.036 12.7578 40.0706C12.8447 40.1052 12.9377 40.1221 13.0312 40.1203H23.5406C23.9437 40.1203 24.2672 39.7922 24.2672 39.3891V36.7641C24.2678 36.668 24.2495 36.5728 24.2133 36.4839C24.1771 36.3949 24.1238 36.314 24.0563 36.2456C23.9889 36.1773 23.9086 36.1229 23.8201 36.0856C23.7316 36.0483 23.6367 36.0287 23.5406 36.0281ZM27.2484 22.3219C27.0545 22.3219 26.8685 22.3989 26.7314 22.5361C26.5942 22.6732 26.5172 22.8592 26.5172 23.0531V39.3938C26.5172 39.7969 26.8453 40.1203 27.2484 40.1203H29.8828C30.2859 40.1203 30.6094 39.7922 30.6094 39.3938V23.0531C30.6094 22.86 30.533 22.6747 30.3969 22.5377C30.2607 22.4007 30.0759 22.3231 29.8828 22.3219H27.2484ZM45.3562 22.3219C45.1623 22.3219 44.9763 22.3989 44.8392 22.5361C44.702 22.6732 44.625 22.8592 44.625 23.0531V32.7562L37.1391 22.65L37.0781 22.5797L37.0313 22.5281L37.0172 22.5141L36.9656 22.4719L36.9375 22.4531L36.9234 22.4438L36.9 22.4297L36.8625 22.4063H36.8531L36.8391 22.3969L36.7922 22.3781L36.7734 22.3687L36.7266 22.3547H36.7172L36.7031 22.35L36.6609 22.3406H36.6328L36.6187 22.3359H36.6L36.5906 22.3312H33.9C33.7069 22.3312 33.5216 22.4076 33.3846 22.5438C33.2476 22.6799 33.17 22.8647 33.1688 23.0578V39.3984C33.1688 39.8016 33.4969 40.125 33.9 40.125H36.525C36.9328 40.125 37.2609 39.7969 37.2609 39.3984V29.6953L44.7609 39.8203C44.8135 39.8877 44.875 39.9477 44.9438 39.9984L44.9484 40.0031L44.9953 40.0312L45.0141 40.0406L45.0516 40.0594L45.0844 40.0734L45.1078 40.0828L45.1547 40.0969H45.1687C45.2301 40.1126 45.293 40.122 45.3562 40.125H47.9813C48.3891 40.125 48.7172 39.7969 48.7172 39.3984V23.0531C48.7172 22.8592 48.6401 22.6732 48.503 22.5361C48.3659 22.3989 48.1799 22.3219 47.9859 22.3219H45.3562ZM63.2391 25.6828V23.0578C63.2397 22.9618 63.2214 22.8666 63.1852 22.7776C63.149 22.6887 63.0957 22.6077 63.0282 22.5394C62.9607 22.471 62.8805 22.4166 62.792 22.3793C62.7035 22.342 62.6085 22.3225 62.5125 22.3219H52.0031C51.8144 22.3245 51.6337 22.3981 51.4969 22.5281H51.4922L51.4875 22.5375L51.4781 22.5516C51.3492 22.6872 51.2757 22.8661 51.2719 23.0531V39.3938C51.2719 39.5859 51.3516 39.7687 51.4781 39.8953L51.4875 39.9094L51.4969 39.9187C51.6344 40.047 51.8151 40.119 52.0031 40.1203H62.5125C62.9156 40.1203 63.2391 39.7922 63.2391 39.3891V36.7641C63.2397 36.668 63.2214 36.5728 63.1852 36.4839C63.149 36.3949 63.0957 36.314 63.0282 36.2456C62.9607 36.1773 62.8805 36.1229 62.792 36.0856C62.7035 36.0483 62.6085 36.0287 62.5125 36.0281H55.3594V33.2672H62.5078C62.9109 33.2672 63.2344 32.9391 63.2344 32.5359V29.9109C63.235 29.8149 63.2167 29.7197 63.1805 29.6307C63.1443 29.5418 63.091 29.4608 63.0235 29.3925C62.956 29.3242 62.8758 29.2698 62.7873 29.2325C62.6988 29.1951 62.6038 29.1756 62.5078 29.175H55.3594V26.4141H62.5078C62.9109 26.4141 63.2344 26.0859 63.2344 25.6828H63.2391Z" fill="#00AF23"/>
</g>
<defs>
<clipPath id="clip0_4208_278">
<rect width="75" height="75" fill="white"/>
</clipPath>
</defs>
</svg>
