<svg width="64" height="64" viewBox="0 0 64 64" fill="none" xmlns="http://www.w3.org/2000/svg">
<path d="M59.0979 63.3333C52.4268 63.3333 45.5868 61.6629 38.5779 58.3221C31.569 54.9812 25.0457 50.2906 19.0079 44.2502C13.0176 38.2124 8.35208 31.701 5.01125 24.7158C1.67042 17.7307 0 10.9039 0 4.23542C0 3.04792 0.395834 2.04514 1.1875 1.22708C1.97917 0.409028 2.96875 0 4.15625 0H13.9452C15.0219 0 15.9613 0.339097 16.7635 1.01729C17.5658 1.69549 18.1081 2.565 18.3904 3.62583L20.3538 13.0625C20.5385 14.1708 20.5055 15.138 20.2548 15.964C20.0041 16.7899 19.5647 17.4668 18.9367 17.9946L10.2521 26.0933C11.8776 29.041 13.6734 31.7801 15.6394 34.3108C17.6053 36.8415 19.7033 39.239 21.9331 41.5031C24.229 43.799 26.7016 45.9365 29.351 47.9156C32.0005 49.8921 34.9085 51.7578 38.0752 53.5127L46.5421 44.8954C47.186 44.2014 47.9103 43.7435 48.7152 43.5219C49.5174 43.3028 50.4067 43.2593 51.3831 43.3912L59.7075 45.0933C60.7842 45.3572 61.6576 45.8995 62.3279 46.7202C62.9982 47.5409 63.3333 48.4803 63.3333 49.5385V59.1771C63.3333 60.3646 62.9243 61.3542 62.1063 62.1458C61.2882 62.9375 60.2854 63.3333 59.0979 63.3333Z" fill="#194986"/>
</svg>
