<svg width="40" height="40" viewBox="0 0 40 40" fill="none" xmlns="http://www.w3.org/2000/svg">
<path d="M24.8416 0.806867C13.3917 -0.320083 5.76287 7.80415 5.19005 16.3995C4.55214 25.9945 11.836 34.1697 21.0402 34.7682C29.9253 35.3412 40.1514 28.1784 39.2596 15.6737C41.3686 21.2257 39.0969 31.4064 30.8301 36.761C22.674 42.0456 12.2917 40.7722 5.34628 33.6094C-1.22159 26.8286 -1.79441 15.5909 3.94027 7.95695C9.62938 0.373915 19.4844 -1.22419 24.8416 0.806867Z" fill="#6085B7" fill-opacity="0.5"/>
<path d="M29.3536 20.3536C29.5488 20.1583 29.5488 19.8417 29.3536 19.6464L26.1716 16.4645C25.9763 16.2692 25.6597 16.2692 25.4645 16.4645C25.2692 16.6597 25.2692 16.9763 25.4645 17.1716L28.2929 20L25.4645 22.8284C25.2692 23.0237 25.2692 23.3403 25.4645 23.5355C25.6597 23.7308 25.9763 23.7308 26.1716 23.5355L29.3536 20.3536ZM11 20V20.5H29V20V19.5H11V20Z" fill="#6085B7" fill-opacity="0.8"/>
</svg>
