<svg width="394" height="448" viewBox="0 0 394 448" fill="none" xmlns="http://www.w3.org/2000/svg">
<g opacity="0.1">
<path d="M244.69 55.1528C131.909 43.8804 56.7643 125.144 51.122 211.12C44.8386 307.094 116.585 388.867 207.246 394.854C294.764 400.585 395.491 328.939 386.707 203.859C407.481 259.394 385.105 361.227 303.677 414.787C223.339 467.647 121.073 454.909 52.6608 383.263C-12.0327 315.437 -17.6749 203.032 38.8117 126.672C94.8494 50.8221 191.922 34.837 244.69 55.1528Z" fill="#1D385C"/>
<path d="M225.566 142.72C244.93 167.557 253.65 191.758 242.942 222.009C298.02 206.406 330.335 174.499 334.118 116.227C355.662 171.506 342.005 216.532 305.65 241.115C283.016 256.399 257.754 263.787 231.145 267.799C194.533 273.34 164.975 288.688 151.125 325.817C143.111 315.181 140.289 296.585 148.945 283.338C159.14 267.799 171.964 253.406 186.006 241.051C206.972 222.518 224.412 202.776 226.849 173.799C227.618 164.564 226.143 155.075 225.566 142.656V142.72Z" fill="#1D385C"/>
<path d="M154.012 235.065C141.701 235.065 132.147 226.531 132.211 215.577C132.211 203.731 143.176 194.051 156.32 194.306C168.824 194.56 177.224 202.903 176.903 214.876C176.646 226.786 167.221 235.065 154.012 235.065Z" fill="#1D385C"/>
<path d="M238.05 41.4595C268.891 43.8796 279.791 25.6017 286.074 0C285.818 5.60436 285.754 11.2724 285.305 16.8768C283.958 34.1357 286.587 37.2563 304.284 38.9121C307.105 39.1668 309.926 39.3579 312.491 39.549C301.527 44.6438 287.934 47.3186 280.624 55.4704C273.186 63.8133 271.904 77.5694 266.262 88.7782C267.159 80.8174 267.929 72.793 269.019 64.896C270.878 51.3945 265.749 44.198 251.322 44.1343C246.898 44.1343 242.538 42.4785 238.178 41.5232L238.05 41.4595Z" fill="#1D385C"/>
</g>
</svg>
