<svg width="60" height="61" viewBox="0 0 60 61" fill="none" xmlns="http://www.w3.org/2000/svg">
<path d="M38.0901 43.9483C34.0222 41.081 31.076 37.7354 29.56 32.3782C25.373 37.8364 13 46.0927 14 44.5927C20 35.5927 17.5 39.0927 22 33.0927C25 29.3072 25.8572 28.0927 28 25.0927C30.5 21.5927 31.6698 17.6132 29.88 10.9995C31.5942 12.2424 33.469 15.0242 33.7351 17.5858C34.0431 20.593 33.9894 23.5623 33.6391 26.2761C33.1232 30.3415 37 35.0927 40.5 39.0927C42 40.5927 45.879 44.6639 47 46.5927L38.0901 43.9483Z" fill="white"/>
<circle cx="30" cy="30" r="29.5" stroke="white"/>
</svg>
