<svg width="94" height="107" viewBox="0 0 94 107" fill="none" xmlns="http://www.w3.org/2000/svg">
<path d="M58.2379 13.096C31.3953 10.4193 13.5103 29.7153 12.1674 50.1303C10.6719 72.9195 27.7481 92.3364 49.326 93.7579C70.1561 95.1189 94.1299 78.1064 92.0392 48.4063C96.9835 61.5929 91.6577 85.7733 72.2773 98.4911C53.1563 111.043 28.8163 108.018 12.5337 91.0056C-2.86386 74.9005 -4.20676 48.2098 9.23747 30.0782C22.5749 12.0677 45.6788 8.27198 58.2379 13.096Z" fill="#1D385C" fill-opacity="0.2"/>
<path d="M53.69 33.8891C58.2986 39.7868 60.3741 45.5332 57.8256 52.7163C70.9344 49.0113 78.6257 41.4351 79.526 27.5983C84.6536 40.7244 81.4031 51.4158 72.7504 57.2529C67.3634 60.8823 61.3507 62.6364 55.0176 63.5891C46.3039 64.9048 39.2687 68.5492 35.9725 77.3655C34.0649 74.8401 33.3934 70.4244 35.4536 67.279C37.88 63.5891 40.9321 60.1715 44.2742 57.2378C49.2644 52.8372 53.4153 48.1494 53.9952 41.2688C54.1783 39.076 53.8273 36.8228 53.69 33.874V33.8891Z" fill="#1D385C" fill-opacity="0.2"/>
<path d="M36.6602 55.8161C33.7302 55.8161 31.4564 53.7897 31.4716 51.1887C31.4716 48.376 34.0812 46.0774 37.2096 46.1379C40.1854 46.1984 42.1845 48.1794 42.1082 51.0224C42.0472 53.8502 39.8039 55.8161 36.6602 55.8161Z" fill="#1D385C" fill-opacity="0.2"/>
<path d="M56.6656 9.84456C64.006 10.4192 66.6003 6.07913 68.0958 0C68.0347 1.33075 68.0195 2.67663 67.9127 4.00739C67.5922 8.10551 68.2179 8.8465 72.4298 9.23967C73.1013 9.30016 73.7727 9.34553 74.3831 9.3909C71.7736 10.6007 68.5384 11.2358 66.7986 13.1714C65.0284 15.1525 64.7232 18.4189 63.3803 21.0804C63.5939 19.1901 63.7771 17.2847 64.0365 15.4095C64.479 12.2036 63.2582 10.4948 59.8246 10.4797C58.7716 10.4797 57.7339 10.0865 56.6962 9.85968L56.6656 9.84456Z" fill="#1D385C" fill-opacity="0.2"/>
</svg>
