<svg width="79" height="90" viewBox="0 0 79 90" fill="none" xmlns="http://www.w3.org/2000/svg">
<path d="M48.5631 11.9352C26.1797 9.69056 11.2659 25.8724 10.1461 42.9927C8.89904 62.1039 23.1384 78.3872 41.1317 79.5793C58.5014 80.7206 78.4925 66.4537 76.7492 41.5469C80.8721 52.6054 76.431 72.8834 60.2702 83.5486C44.3257 94.0744 24.0292 91.5381 10.4515 77.2712C-2.3881 63.7652 -3.50791 41.3821 7.70289 26.1767C18.8246 11.0729 38.0904 7.88976 48.5631 11.9352Z" fill="#1D385C" fill-opacity="0.2"/>
<path d="M44.891 28.8293C48.8757 33.7249 50.6701 38.495 48.4666 44.4576C59.8006 41.3822 66.4506 35.0932 67.229 23.6074C71.6624 34.5032 68.8519 43.3781 61.3707 48.2235C56.7131 51.2361 51.5145 52.6923 46.0389 53.4831C38.5049 54.5752 32.4223 57.6004 29.5723 64.9187C27.923 62.8224 27.3425 59.157 29.1237 56.546C31.2216 53.4831 33.8605 50.6462 36.75 48.2109C41.0646 44.558 44.6535 40.6667 45.1549 34.9551C45.3132 33.135 45.0097 31.2646 44.891 28.8168V28.8293Z" fill="#1D385C" fill-opacity="0.2"/>
<path d="M30.875 47.2137C28.4369 47.2137 26.5449 45.3604 26.5576 42.9816C26.5576 40.4092 28.729 38.307 31.3321 38.3623C33.8083 38.4176 35.4717 40.2294 35.4082 42.8295C35.3574 45.4157 33.4908 47.2137 30.875 47.2137Z" fill="#1D385C" fill-opacity="0.2"/>
<path d="M47.2128 8.2682C53.3253 8.75083 55.4857 5.10571 56.7311 0C56.6803 1.11767 56.6676 2.24804 56.5786 3.3657C56.3117 6.80761 56.8328 7.42995 60.3402 7.76017C60.8993 7.81097 61.4585 7.84907 61.9668 7.88718C59.7937 8.90324 57.0996 9.43667 55.6509 11.0624C54.1768 12.7262 53.9226 15.4695 52.8043 17.7049C52.9822 16.1173 53.1347 14.517 53.3508 12.9421C53.7193 10.2495 52.7026 8.81433 49.8433 8.80163C48.9665 8.80163 48.1023 8.47141 47.2382 8.2809L47.2128 8.2682Z" fill="#1D385C" fill-opacity="0.2"/>
</svg>
