<svg width="20" height="20" viewBox="0 0 20 20" fill="none" xmlns="http://www.w3.org/2000/svg">
<path d="M0 9.34003C8.28596 9.88522 11.2145 5.76758 12.9027 0C12.8338 1.26255 12.8165 2.53945 12.6959 3.80201C12.3342 7.6901 13.0405 8.39311 17.795 8.76614C18.553 8.82353 19.3109 8.86657 20 8.90961C17.0543 10.0574 13.4022 10.66 11.4384 12.4964C9.44014 14.3759 9.0956 17.4749 7.57967 20C7.82084 18.2066 8.02756 16.3989 8.32041 14.6198C8.81998 11.5782 7.44186 9.95696 3.56589 9.94261C2.37726 9.94261 1.20586 9.56958 0.0344538 9.35438L0 9.34003Z" fill="#FFF4F4"/>
</svg>
