<svg width="56" height="56" viewBox="0 0 56 56" fill="none" xmlns="http://www.w3.org/2000/svg">
<path d="M14.8 41C13.8925 41 13.1159 40.682 12.4702 40.0461C11.8245 39.4102 11.5011 38.6448 11.5 37.75V18.25C11.5 17.3562 11.8234 16.5914 12.4702 15.9555C13.117 15.3196 13.8936 15.0011 14.8 15H41.2C42.1075 15 42.8846 15.3185 43.5314 15.9555C44.1782 16.5925 44.5011 17.3573 44.5 18.25V37.75C44.5 38.6437 44.1771 39.4091 43.5314 40.0461C42.8857 40.6831 42.1086 41.0011 41.2 41H14.8ZM28 29.625L41.2 21.5V18.25L28 26.375L14.8 18.25V21.5L28 29.625Z" fill="black" fill-opacity="0.3"/>
</svg>
