<svg width="56" height="56" viewBox="0 0 56 56" fill="none" xmlns="http://www.w3.org/2000/svg">
<path d="M35.7343 6H20.2656C17.6192 6 15.4661 8.04772 15.4661 10.5651V45.4349C15.4661 47.952 17.6192 50 20.2656 50H35.7343C38.3809 50 40.5339 47.9519 40.5339 45.4353V10.5651C40.5339 8.04772 38.3809 6 35.7343 6ZM28 47.3035C26.9276 47.3035 26.055 46.4735 26.055 45.4536C26.055 44.4334 26.9275 43.6037 28 43.6037C29.0724 43.6037 29.9449 44.4334 29.9449 45.4536C29.9449 46.4735 29.0724 47.3035 28 47.3035ZM37.6925 11.7811V41.0133H18.3074V11.7811H37.6925Z" fill="#B3B3B3"/>
<path d="M28.1989 18.9825C30.5683 19.9606 31.4496 20.3624 34.3893 21.3487V27.5694C34.3893 29.8159 32.8851 31.5756 31.2203 32.8272C30.401 33.4432 29.5775 33.9089 28.9567 34.2208C28.6481 34.3758 28.392 34.4918 28.2145 34.5684L28.2125 34.5674C28.0363 34.4802 27.7817 34.3489 27.4752 34.1768C26.8604 33.8316 26.0441 33.3256 25.2321 32.6807C23.5704 31.3612 22.1002 29.6011 22.1002 27.5694V21.3663C24.4218 20.6646 25.9302 19.9576 28.1989 18.9825Z" stroke="#B3B3B3" stroke-width="1.4"/>
<path d="M26.8094 29.0603L24.8223 26.3103L25.595 25.5973L27.3613 27.0232L30.7836 23.3566L31.6667 23.9677L27.8029 29.0603H26.8094Z" fill="#B3B3B3"/>
</svg>
