<?xml version="1.0" encoding="UTF-8"?>
<svg id="_レイヤー_2" data-name="レイヤー_2" xmlns="http://www.w3.org/2000/svg" xmlns:xlink="http://www.w3.org/1999/xlink" viewBox="0 0 222.3 23.45">
  <defs>
    <style>
      .cls-1, .cls-2 {
        fill: #1b2a33;
      }

      .cls-3 {
        fill: #fff;
      }

      .cls-4 {
        fill: url(#_ロゴ);
      }

      .cls-2 {
        opacity: .2;
      }
    </style>
    <linearGradient id="_ロゴ" data-name="ロゴ" x1="3.21" y1="17.21" x2="16.43" y2="4.88" gradientUnits="userSpaceOnUse">
      <stop offset="0" stop-color="#0080f9"/>
      <stop offset="1" stop-color="#01b0eb"/>
    </linearGradient>
  </defs>
  <g id="_レイヤー_1-2" data-name="レイヤー_1">
    <g>
      <rect class="cls-1" x="150.75" y="6.25" width="71.55" height="13.77"/>
      <g>
        <g>
          <path class="cls-1" d="M30.21,19.54c-1.49,0-2.79-.32-3.88-.97-1.09-.65-1.93-1.55-2.51-2.71-.58-1.16-.88-2.5-.88-4.03s.29-2.87.88-4.04c.58-1.17,1.42-2.08,2.51-2.73,1.09-.65,2.38-.98,3.88-.98,1.81,0,3.29.45,4.43,1.35,1.15.9,1.86,2.15,2.15,3.76h-3.08c-.17-.81-.56-1.44-1.15-1.9-.6-.46-1.4-.68-2.39-.68-.91,0-1.69.21-2.35.63-.66.42-1.16,1.02-1.52,1.8s-.53,1.72-.53,2.8.18,2.01.53,2.79c.36.78.86,1.37,1.52,1.79.65.42,1.44.63,2.35.63,1,0,1.79-.21,2.38-.64s.98-1.05,1.16-1.86h3.05c-.27,1.58-.98,2.81-2.13,3.68-1.15.88-2.62,1.31-4.43,1.31Z"/>
          <path class="cls-1" d="M38.26,19.29V3.91h2.78v15.38h-2.78Z"/>
          <path class="cls-1" d="M48.06,19.54c-1.07,0-2.03-.23-2.88-.7-.85-.47-1.53-1.12-2.03-1.96-.5-.84-.75-1.8-.75-2.88s.25-2.06.75-2.89c.5-.83,1.18-1.48,2.04-1.95.86-.47,1.82-.7,2.87-.7s2.03.23,2.88.7c.85.47,1.53,1.12,2.03,1.95.5.83.75,1.8.75,2.89s-.25,2.04-.75,2.88c-.5.84-1.17,1.5-2.03,1.96-.85.47-1.82.7-2.88.7ZM48.06,17.15c.51,0,.98-.12,1.41-.35.43-.23.77-.59,1.01-1.06.25-.47.37-1.05.37-1.75s-.13-1.28-.38-1.75c-.26-.47-.59-.82-1.01-1.06-.42-.24-.89-.35-1.4-.35s-.96.12-1.39.35c-.43.23-.77.59-1.03,1.06-.26.47-.38,1.05-.38,1.75s.12,1.28.37,1.75c.25.47.59.82,1.01,1.06.43.24.9.35,1.41.35Z"/>
          <path class="cls-1" d="M58.8,19.54c-1.21,0-2.17-.42-2.87-1.25-.7-.83-1.06-2.05-1.06-3.64v-5.96h2.78v5.7c0,.91.17,1.61.52,2.08.35.48.86.72,1.53.72.75,0,1.34-.27,1.75-.8.41-.53.62-1.28.62-2.23v-5.47h2.78v10.59h-2.78v-1.56c-.31.56-.74,1-1.28,1.32-.54.33-1.2.49-1.99.49Z"/>
          <path class="cls-1" d="M71.38,19.54c-1,0-1.89-.24-2.68-.73s-1.41-1.15-1.87-2c-.46-.85-.68-1.8-.68-2.85s.23-2.02.68-2.85c.46-.83,1.08-1.49,1.87-1.96.79-.48,1.68-.72,2.68-.72.8,0,1.49.15,2.08.45.59.3,1.06.71,1.42,1.24V3.91h2.78v15.38h-2.78v-1.52c-.33.47-.77.88-1.33,1.24-.56.36-1.28.53-2.17.53ZM71.98,17.13c.58,0,1.1-.14,1.55-.41.45-.27.8-.64,1.05-1.12s.37-1.01.37-1.61-.12-1.15-.37-1.62-.6-.84-1.05-1.11c-.45-.27-.96-.41-1.55-.41s-1.08.14-1.54.41c-.46.27-.81.64-1.07,1.1s-.38,1-.38,1.61.13,1.16.38,1.63.61.85,1.07,1.12c.46.27.97.41,1.54.41Z"/>
          <path class="cls-1" d="M85.16,19.54c-.7,0-1.39-.1-2.07-.29-.68-.19-1.31-.5-1.88-.92-.57-.42-1.04-.96-1.42-1.62-.38-.66-.6-1.46-.67-2.38h2.56c.11.73.35,1.3.72,1.71.36.41.8.7,1.3.86.51.16,1.01.25,1.51.25.56,0,1.05-.09,1.48-.26.43-.17.78-.42,1.03-.74s.37-.69.37-1.12-.12-.84-.36-1.19c-.24-.35-.76-.59-1.56-.74l-2.54-.47c-1.22-.23-2.18-.72-2.87-1.46-.69-.75-1.04-1.63-1.04-2.66,0-.94.24-1.74.7-2.39.47-.65,1.1-1.16,1.9-1.52s1.67-.53,2.63-.53,1.89.17,2.69.51c.8.34,1.44.86,1.94,1.57s.8,1.61.9,2.72h-2.61c-.09-.64-.27-1.14-.57-1.48-.29-.35-.64-.59-1.05-.74-.41-.14-.82-.21-1.25-.21-.4,0-.81.06-1.24.19s-.78.34-1.07.63c-.29.29-.43.69-.43,1.19,0,.43.16.81.48,1.14s.84.57,1.55.69l2.35.43c1.25.23,2.24.67,2.96,1.33.72.66,1.08,1.63,1.08,2.89,0,.75-.16,1.41-.48,1.98-.32.56-.74,1.04-1.27,1.43-.53.39-1.12.69-1.77.89s-1.32.3-2.01.3Z"/>
          <path class="cls-1" d="M97.2,19.54c-1.08,0-2.04-.23-2.86-.69-.83-.46-1.47-1.1-1.94-1.92-.47-.82-.7-1.77-.7-2.85s.23-2.07.69-2.93c.46-.85,1.11-1.52,1.93-2,.83-.48,1.79-.72,2.88-.72s1.98.23,2.78.68,1.42,1.07,1.87,1.86c.45.78.67,1.67.67,2.67v.47c0,.17-.01.35-.04.53h-8.78v-1.71h6.02c-.04-.68-.3-1.23-.77-1.64s-1.05-.62-1.73-.62c-.51,0-.98.11-1.41.34s-.77.57-1.01,1.01c-.25.45-.37,1.02-.37,1.72v.6c0,.6.12,1.12.36,1.56.24.44.57.78.98,1.01.41.24.88.35,1.41.35s1-.12,1.37-.36c.37-.24.65-.56.85-.96h2.82c-.2.67-.53,1.28-.99,1.83-.46.55-1.04.98-1.72,1.29s-1.45.47-2.31.47Z"/>
          <path class="cls-1" d="M109.1,19.54c-1.08,0-2.04-.24-2.87-.72s-1.49-1.13-1.97-1.96-.72-1.79-.72-2.87.24-2.04.72-2.87,1.13-1.49,1.97-1.96c.83-.48,1.79-.72,2.87-.72,1.35,0,2.49.35,3.42,1.06.93.7,1.52,1.68,1.77,2.92h-2.93c-.13-.48-.4-.87-.81-1.16-.41-.29-.9-.44-1.47-.44-.48,0-.93.13-1.35.38-.41.26-.74.62-.98,1.09-.24.47-.36,1.04-.36,1.71s.12,1.22.36,1.71c.24.48.57.85.98,1.1.41.25.86.37,1.35.37.57,0,1.06-.14,1.47-.42.41-.28.68-.67.81-1.19h2.93c-.24,1.2-.83,2.16-1.76,2.88-.93.73-2.08,1.09-3.43,1.09Z"/>
          <path class="cls-1" d="M119.39,19.54c-1.21,0-2.17-.42-2.87-1.25-.7-.83-1.06-2.05-1.06-3.64v-5.96h2.78v5.7c0,.91.17,1.61.52,2.08.35.48.86.72,1.53.72.75,0,1.34-.27,1.75-.8.41-.53.62-1.28.62-2.23v-5.47h2.78v10.59h-2.78v-1.56c-.31.56-.74,1-1.28,1.32-.54.33-1.2.49-1.99.49Z"/>
          <path class="cls-1" d="M127.16,19.29v-10.59h2.78v1.62c.27-.54.62-.96,1.05-1.27.43-.31.92-.46,1.47-.46h1.35v2.48h-1.62c-.51,0-.94.14-1.27.41-.33.27-.58.68-.74,1.22-.16.54-.23,1.21-.23,2.01v4.59h-2.78Z"/>
          <path class="cls-1" d="M139.36,19.54c-1.08,0-2.04-.23-2.86-.69-.83-.46-1.47-1.1-1.94-1.92-.47-.82-.7-1.77-.7-2.85s.23-2.07.69-2.93c.46-.85,1.11-1.52,1.93-2,.83-.48,1.79-.72,2.88-.72s1.98.23,2.78.68,1.42,1.07,1.87,1.86c.45.78.67,1.67.67,2.67v.47c0,.17-.01.35-.04.53h-8.78v-1.71h6.02c-.04-.68-.3-1.23-.77-1.64s-1.05-.62-1.73-.62c-.51,0-.98.11-1.41.34s-.77.57-1.01,1.01c-.25.45-.37,1.02-.37,1.72v.6c0,.6.12,1.12.36,1.56.24.44.57.78.98,1.01.41.24.88.35,1.41.35s1-.12,1.37-.36c.37-.24.65-.56.85-.96h2.82c-.2.67-.53,1.28-.99,1.83-.46.55-1.04.98-1.72,1.29s-1.45.47-2.31.47Z"/>
        </g>
        <g>
          <g>
            <polygon class="cls-2" points="9.64 15.6 9.61 15.62 8.81 14.77 9.64 15.6"/>
            <polygon class="cls-1" points="9.64 15.6 9.61 15.62 8.81 14.77 9.64 15.6"/>
            <polygon class="cls-1" points="19.42 6.48 16.71 9 11.81 13.57 9.64 15.6 8.81 14.77 8.8 14.76 5.03 10.99 7.13 8.89 9.71 11.47 14.85 6.68 16.88 4.78 19.42 6.48"/>
          </g>
          <path class="cls-4" d="M16.45,11.62c-1.09,5.55-5.27,8.13-6.73,8.87-1.49-.76-5.76-3.39-6.78-9.11-.15-.82-.22-1.67-.22-2.54v-.91l7-4.67,3.69,2.46,2.04-1.9L9.71,0,0,6.48v2.36c0,1.03.09,2.05.27,3.02,1.48,8.33,8.64,11.27,8.95,11.39l.5.2.5-.2c.3-.12,7.46-3.06,8.95-11.39v-.06c.02-.08.26-1.89.26-2.95l-2.98,2.77Z"/>
        </g>
      </g>
      <g>
        <path class="cls-3" d="M155.74,8.47h1.51l.94,3.83c.23.97.41,2.58.41,2.58h.02s.26-1.68.48-2.63l.97-3.79h1.45l.96,3.78c.22.96.46,2.64.46,2.64h.02s.21-1.63.46-2.59l.94-3.82h1.51l-2.19,7.91h-1.44l-1.01-4.14c-.21-.84-.42-2.37-.42-2.37h-.02s-.21,1.53-.4,2.37l-1.06,4.14h-1.47l-2.11-7.91Z"/>
        <path class="cls-3" d="M166.79,8.47h3.42c.89,0,1.57.27,2.01.74.42.46.67,1.03.67,1.73,0,1.49-.95,2.46-2.62,2.46h-2v2.98h-1.49v-7.91ZM168.28,12.23h1.77c.9,0,1.37-.49,1.37-1.25s-.49-1.23-1.35-1.23h-1.79v2.49Z"/>
        <path class="cls-3" d="M176.14,13.85h1.48c.11,1.02.78,1.53,1.99,1.53.86,0,1.57-.37,1.57-1.16,0-.85-.79-1.04-2.04-1.33-1.48-.33-2.71-.72-2.71-2.31,0-1.5,1.23-2.25,2.92-2.25,1.84,0,2.9.88,3.05,2.34h-1.44c-.12-.78-.7-1.21-1.64-1.21-.88,0-1.47.37-1.47,1,0,.73.77.93,1.99,1.18,1.47.32,2.82.76,2.82,2.47,0,1.57-1.32,2.46-3.07,2.46-2.17,0-3.39-1.1-3.46-2.71Z"/>
        <path class="cls-3" d="M183.42,13.56c0-1.69,1.14-3,2.82-3,.83,0,1.48.29,1.96.8.55.59.82,1.48.81,2.53h-4.24c.1.98.62,1.64,1.56,1.64.65,0,1.07-.28,1.25-.74h1.32c-.28,1.02-1.19,1.78-2.58,1.78-1.81,0-2.89-1.32-2.89-3ZM184.78,13.04h2.83c-.05-.94-.55-1.5-1.37-1.5-.88,0-1.34.61-1.46,1.5Z"/>
        <path class="cls-3" d="M189.66,13.56c0-1.69,1.12-3,2.86-3,1.45,0,2.36.82,2.56,2.04h-1.32c-.13-.62-.55-1.01-1.23-1.01-.99,0-1.5.82-1.5,1.97s.51,1.95,1.5,1.95c.74,0,1.19-.44,1.27-1.18h1.32c-.08,1.32-1.05,2.23-2.57,2.23-1.76,0-2.88-1.32-2.88-3Z"/>
        <path class="cls-3" d="M199.65,16.39v-.81h-.02c-.41.62-.91.96-1.71.96-1.24,0-1.97-.78-1.97-2v-3.83h1.35v3.64c0,.67.38,1.06,1.06,1.06.77,0,1.25-.58,1.25-1.37v-3.33h1.34v5.68h-1.31Z"/>
        <path class="cls-3" d="M203.5,11.73h.03c.36-.73.9-1.11,1.63-1.11.16,0,.27.01.36.05v1.21h-.04c-.13-.03-.23-.04-.37-.04-.89-.01-1.56.6-1.56,1.69v2.85h-1.35v-5.68h1.31v1.02Z"/>
        <path class="cls-3" d="M206.38,8.47h1.38v1.31h-1.38v-1.31ZM206.4,10.71h1.35v5.68h-1.35v-5.68Z"/>
        <path class="cls-3" d="M208.63,10.71h.87v-1.81h1.33v1.81h1.14v.93h-1.14v3.18c0,.41.22.53.61.53.14,0,.33-.02.44-.04h.06v1.05c-.22.04-.53.08-.89.08-.91,0-1.54-.33-1.54-1.33v-3.48h-.87v-.93Z"/>
        <path class="cls-3" d="M212.91,18.26v-1.1h.07c.05.03.42.05.56.05.46,0,.71-.17.83-.63,0-.11.05-.64-.06-.95l-1.96-4.94h1.44l.94,2.64c.24.7.48,1.77.48,1.77h.02s.26-1.07.49-1.77l.9-2.64h1.36l-2.2,6c-.47,1.25-.96,1.62-1.88,1.62-.17,0-.89-.03-.99-.06Z"/>
      </g>
    </g>
  </g>
</svg>