<svg width="42" height="42" viewBox="0 0 42 42" fill="none" xmlns="http://www.w3.org/2000/svg">
<path d="M7.35156 22.7391C7.35156 21.6252 7.79406 20.5569 8.58171 19.7692C9.36937 18.9816 10.4377 18.5391 11.5516 18.5391H30.4516C31.5655 18.5391 32.6338 18.9816 33.4214 19.7692C34.2091 20.5569 34.6516 21.6252 34.6516 22.7391V25.8891C34.6516 26.446 34.4303 26.9802 34.0365 27.374C33.6427 27.7678 33.1085 27.9891 32.5516 27.9891H9.45156C8.89461 27.9891 8.36046 27.7678 7.96664 27.374C7.57281 26.9802 7.35156 26.446 7.35156 25.8891V22.7391Z" stroke="#323232" stroke-linecap="round" stroke-linejoin="round"/>
<path d="M8.92578 27.9242V30.8101C8.92578 31.0886 9.03641 31.3557 9.23332 31.5526C9.43023 31.7495 9.6973 31.8601 9.97578 31.8601H13.1258C13.4043 31.8601 13.6713 31.7495 13.8682 31.5526C14.0652 31.3557 14.1758 31.0886 14.1758 30.8101V27.9904M27.8258 27.9904V30.8101C27.8258 31.0886 27.9364 31.3557 28.1333 31.5526C28.3302 31.7495 28.5973 31.8601 28.8758 31.8601H32.0258C32.3043 31.8601 32.5713 31.7495 32.7682 31.5526C32.9652 31.3557 33.0758 31.0886 33.0758 30.8101V27.9242M31.4378 18.5404L29.4496 13.44C29.1424 12.652 28.6045 11.9752 27.9062 11.498C27.208 11.0208 26.382 10.7656 25.5363 10.7656H16.4648C15.6192 10.7657 14.7932 11.021 14.0951 11.4982C13.397 11.9753 12.8591 12.6521 12.552 13.44L10.5633 18.5404M11.0258 23.4601C11.0258 23.0424 11.1917 22.6418 11.4871 22.3464C11.7825 22.0511 12.1831 21.8851 12.6008 21.8851C13.0185 21.8851 13.4191 22.0511 13.7145 22.3464C14.0098 22.6418 14.1758 23.0424 14.1758 23.4601C14.1758 23.8778 14.0098 24.2784 13.7145 24.5738C13.4191 24.8692 13.0185 25.0351 12.6008 25.0351C12.1831 25.0351 11.7825 24.8692 11.4871 24.5738C11.1917 24.2784 11.0258 23.8778 11.0258 23.4601ZM30.9758 23.4601C30.9758 23.0424 30.8098 22.6418 30.5145 22.3464C30.2191 22.0511 29.8185 21.8851 29.4008 21.8851C28.9831 21.8851 28.5825 22.0511 28.2871 22.3464C27.9917 22.6418 27.8258 23.0424 27.8258 23.4601C27.8258 23.8778 27.9917 24.2784 28.2871 24.5738C28.5825 24.8692 28.9831 25.0351 29.4008 25.0351C29.8185 25.0351 30.2191 24.8692 30.5145 24.5738C30.8098 24.2784 30.9758 23.8778 30.9758 23.4601Z" stroke="#323232" stroke-linecap="round" stroke-linejoin="round"/>
</svg>
