<svg width="44" height="44" viewBox="0 0 44 44" fill="none" xmlns="http://www.w3.org/2000/svg">
<path d="M24.6351 15.7951L29.8821 10.548C30.3294 10.1007 30.936 9.84945 31.5686 9.84945C32.2011 9.84945 32.8078 10.1007 33.255 10.548C33.7023 10.9953 33.9536 11.6019 33.9536 12.2344C33.9536 12.867 33.7023 13.4736 33.255 13.9209L28.0079 19.168C27.8935 19.2824 27.81 19.4241 27.7653 19.5796C27.7207 19.7352 27.7163 19.8996 27.7527 20.0573L30.8873 33.6433C30.9236 33.8007 30.9193 33.9648 30.8749 34.1202C30.8305 34.2756 30.7473 34.4171 30.6332 34.5315L29.6213 35.5434C29.5188 35.6458 29.3944 35.7235 29.2574 35.7706C29.1204 35.8178 28.9745 35.8331 28.8307 35.8154C28.6869 35.7978 28.549 35.7476 28.4275 35.6687C28.306 35.5898 28.204 35.4843 28.1294 35.3601L22.6406 26.2106C22.5659 26.0864 22.464 25.9809 22.3424 25.902C22.2209 25.8231 22.083 25.7729 21.9393 25.7553C21.7955 25.7376 21.6495 25.7529 21.5125 25.8C21.3755 25.8472 21.2511 25.9249 21.1486 26.0273L17.8207 29.3552C17.7244 29.4514 17.6498 29.5671 17.6019 29.6945C17.554 29.8219 17.5339 29.9581 17.543 30.0939L17.8466 34.6473C17.9106 35.6131 16.6615 36.0504 16.1118 35.2533L13.1155 30.9281C13.0504 30.8342 12.9689 30.7527 12.8749 30.6875L8.54975 27.6913C7.75375 27.1404 8.18997 25.8924 9.15687 25.9554L13.7103 26.2589C13.8458 26.268 13.9817 26.248 14.1089 26.2003C14.2361 26.1526 14.3516 26.0783 14.4478 25.9823L17.7757 22.6544C17.8783 22.5519 17.9561 22.4273 18.0033 22.2901C18.0505 22.1529 18.0658 22.0068 18.048 21.8629C18.0302 21.7189 17.9798 21.5809 17.9007 21.4594C17.8216 21.3378 17.7158 21.2359 17.5913 21.1614L8.44407 15.6748C8.31963 15.6003 8.21382 15.4984 8.13469 15.3768C8.05556 15.2552 8.00519 15.1172 7.98741 14.9733C7.96964 14.8293 7.98492 14.6832 8.0321 14.546C8.07928 14.4089 8.15711 14.2843 8.25968 14.1817L9.27155 13.1699C9.38596 13.0558 9.52748 12.9726 9.68284 12.9281C9.83819 12.8837 10.0023 12.8794 10.1597 12.9158L23.7446 16.0514C23.9026 16.0879 24.0672 16.0835 24.223 16.0386C24.3788 15.9938 24.5206 15.91 24.6351 15.7951Z" stroke="#323232" stroke-linecap="round" stroke-linejoin="round"/>
</svg>
