<svg width="42" height="43" viewBox="0 0 42 43" fill="none" xmlns="http://www.w3.org/2000/svg">
<path d="M8.86754 28.0033C9.25764 28.8399 9.82626 29.5808 10.5334 30.174C11.6717 31.1299 13.11 31.6527 14.5961 31.6527H27.403C29.0794 31.6525 30.6871 30.9865 31.8724 29.801C33.0578 28.6156 33.7237 27.0078 33.7237 25.3314V12.5277C33.7235 10.8514 33.0576 9.24381 31.8722 8.05848C30.6869 6.87315 29.0793 6.20717 27.403 6.20703H14.5966C12.9201 6.20703 11.3123 6.87302 10.1268 8.05848C8.94138 9.24394 8.27539 10.8518 8.27539 12.5283V25.3319C8.27532 26.255 8.47744 27.1668 8.86754 28.0033Z" stroke="#323232" stroke-linecap="round" stroke-linejoin="round"/>
<path d="M10.9263 35.8979L15.1676 31.6565M31.0728 35.8979L26.8314 31.6565M8.27539 12.5703H33.7237V21.0531H8.27539V12.5703ZM19.409 26.3548C19.409 25.933 19.5766 25.5284 19.8749 25.2301C20.1731 24.9319 20.5777 24.7643 20.9995 24.7643C21.4214 24.7643 21.8259 24.9319 22.1242 25.2301C22.4225 25.5284 22.59 25.933 22.59 26.3548C22.59 26.7766 22.4225 27.1812 22.1242 27.4795C21.8259 27.7777 21.4214 27.9453 20.9995 27.9453C20.5777 27.9453 20.1731 27.7777 19.8749 27.4795C19.5766 27.1812 19.409 26.7766 19.409 26.3548Z" stroke="#323232" stroke-linecap="round" stroke-linejoin="round"/>
</svg>
