<svg width="136" height="476" viewBox="0 0 136 476" fill="none" xmlns="http://www.w3.org/2000/svg">
<mask id="path-1-outside-1_313_483" maskUnits="userSpaceOnUse" x="-4.00002" y="-0.180183" width="140" height="476" fill="black">
<rect fill="white" x="-4.00002" y="-0.180183" width="140" height="476"/>
<path d="M-7.94673e-07 0.999818L131.94 0.999824L131.94 38.6198C131.94 48.4598 130.68 57.0998 128.16 64.5398C125.76 71.9798 121.74 77.7398 116.1 81.8198C110.46 85.8998 102.84 87.9398 93.24 87.9398C84 87.9398 76.38 85.8998 70.38 81.8198C64.38 77.7398 59.88 72.0398 56.88 64.7198C54 57.3998 52.56 48.9398 52.56 39.3398L52.56 17.5598L-1.51853e-06 17.5598L-7.94673e-07 0.999818ZM66.06 17.5598L66.06 37.1798C66.06 48.6998 68.22 57.2798 72.54 62.9198C76.86 68.5598 83.76 71.3798 93.24 71.3798C102.84 71.3798 109.44 68.4398 113.04 62.5598C116.64 56.7998 118.44 48.0998 118.44 36.4598L118.44 17.5598L66.06 17.5598ZM-5.77367e-06 114.906L131.94 114.906L131.94 156.126C131.94 165.126 130.74 173.046 128.34 179.886C126.06 186.846 122.22 192.306 116.82 196.266C111.42 200.226 104.16 202.206 95.04 202.206C86.28 202.206 78.96 200.226 73.08 196.266C67.32 192.306 63 186.846 60.12 179.886C57.36 173.046 55.98 165.126 55.98 156.126L55.98 131.466L-6.49753e-06 131.466L-5.77367e-06 114.906ZM69.3 131.466L69.3 153.606C69.3 163.926 71.4 171.846 75.6 177.366C79.92 182.886 86.4 185.646 95.04 185.646C103.68 185.646 109.74 182.886 113.22 177.366C116.7 171.846 118.44 163.926 118.44 153.606L118.44 131.466L69.3 131.466ZM-8.93663e-06 187.266L60.3 152.706L69.12 165.846L-9.75491e-06 205.986L-8.93663e-06 187.266ZM-1.0768e-05 229.164L131.94 229.164L131.94 245.724L-1.14919e-05 245.724L-1.0768e-05 229.164ZM-2.34002 331.578C-2.34001 323.418 -0.840015 315.798 2.15999 308.718C5.27999 301.758 9.77999 295.698 15.66 290.538C21.54 285.378 28.68 281.358 37.08 278.478C45.6 275.598 55.2 274.158 65.88 274.158C76.56 274.158 86.1 275.598 94.5 278.478C103.02 281.478 110.22 285.618 116.1 290.898C121.98 296.178 126.48 302.358 129.6 309.438C132.72 316.518 134.28 324.258 134.28 332.658C134.28 340.698 132.6 347.778 129.24 353.898C126 360.018 122.28 364.998 118.08 368.838L107.28 359.838C111 356.358 114 352.398 116.28 347.958C118.56 343.518 119.7 338.478 119.7 332.838C119.7 324.558 117.54 317.298 113.22 311.058C108.9 304.818 102.72 299.958 94.68 296.478C86.76 292.998 77.34 291.258 66.42 291.258C55.26 291.258 45.6 292.938 37.44 296.298C29.4 299.658 23.16 304.398 18.72 310.518C14.4 316.638 12.24 323.898 12.24 332.298C12.24 338.538 13.56 344.118 16.2 349.038C18.84 354.078 22.5 358.698 27.18 362.898L16.56 372.078C10.56 366.918 5.87998 361.038 2.51998 354.438C-0.720016 347.838 -2.34002 340.218 -2.34002 331.578ZM-1.80906e-05 396.683L131.94 396.683L131.94 472.643L117.9 472.643L117.9 413.243L76.5 413.243L76.5 463.283L62.28 463.283L62.28 413.243L14.22 413.243L14.22 474.623L-2.14974e-05 474.623L-1.80906e-05 396.683Z"/>
</mask>
<path d="M-7.94673e-07 0.999817L-7.50962e-07 -0.000182557L-1 -0.000182601L-1 0.999817L-7.94673e-07 0.999817ZM131.94 0.999823L132.94 0.999823L132.94 -0.000176746L131.94 -0.00017679L131.94 0.999823ZM128.16 64.5398L127.213 64.219L127.211 64.2259L127.208 64.2328L128.16 64.5398ZM116.1 81.8198L115.514 81.0096V81.0096L116.1 81.8198ZM70.38 81.8198L70.9423 80.9929V80.9929L70.38 81.8198ZM56.88 64.7198L55.9493 65.086L55.9547 65.099L56.88 64.7198ZM52.56 17.5598L53.56 17.5598L53.56 16.5598L52.56 16.5598L52.56 17.5598ZM-1.51853e-06 17.5598L-1 17.5598L-1 18.5598L-1.56225e-06 18.5598L-1.51853e-06 17.5598ZM66.06 17.5598L66.06 16.5598L65.06 16.5598L65.06 17.5598L66.06 17.5598ZM72.54 62.9198L73.3339 62.3117V62.3117L72.54 62.9198ZM113.04 62.5598L112.192 62.0298L112.187 62.0377L113.04 62.5598ZM118.44 17.5598L119.44 17.5598L119.44 16.5598L118.44 16.5598L118.44 17.5598ZM-7.94673e-07 0.999817L-8.38384e-07 1.99982L131.94 1.99982L131.94 0.999823L131.94 -0.00017679L-7.50962e-07 -0.000182557L-7.94673e-07 0.999817ZM131.94 0.999823L130.94 0.999823L130.94 38.6198L131.94 38.6198L132.94 38.6198L132.94 0.999823L131.94 0.999823ZM131.94 38.6198L130.94 38.6198C130.94 48.3771 129.69 56.9047 127.213 64.219L128.16 64.5398L129.107 64.8606C131.67 57.295 132.94 48.5426 132.94 38.6198L131.94 38.6198ZM128.16 64.5398L127.208 64.2328C124.865 71.4965 120.961 77.0694 115.514 81.0096L116.1 81.8198L116.686 82.63C122.519 78.4103 126.655 72.4631 129.112 64.8468L128.16 64.5398ZM116.1 81.8198L115.514 81.0096C110.098 84.9273 102.707 86.9398 93.24 86.9398L93.24 87.9398L93.24 88.9398C102.973 88.9398 110.822 86.8724 116.686 82.63L116.1 81.8198ZM93.24 87.9398L93.24 86.9398C84.1458 86.9398 76.7364 84.9328 70.9423 80.9929L70.38 81.8198L69.8177 82.6467C76.0236 86.8668 83.8542 88.9398 93.24 88.9398L93.24 87.9398ZM70.38 81.8198L70.9423 80.9929C65.1193 77.0332 60.7379 71.4961 57.8053 64.3406L56.88 64.7198L55.9547 65.099C59.0221 72.5836 63.6407 78.4464 69.8177 82.6467L70.38 81.8198ZM56.88 64.7198L57.8106 64.3537C54.9853 57.1729 53.56 48.8413 53.56 39.3398L52.56 39.3398L51.56 39.3398C51.56 49.0383 53.0147 57.6267 55.9494 65.0859L56.88 64.7198ZM52.56 39.3398L53.56 39.3398L53.56 17.5598L52.56 17.5598L51.56 17.5598L51.56 39.3398L52.56 39.3398ZM52.56 17.5598L52.56 16.5598L-1.47482e-06 16.5598L-1.51853e-06 17.5598L-1.56225e-06 18.5598L52.56 18.5598L52.56 17.5598ZM-1.51853e-06 17.5598L0.999998 17.5598L0.999999 0.999817L-7.94673e-07 0.999817L-1 0.999817L-1 17.5598L-1.51853e-06 17.5598ZM66.06 17.5598L65.06 17.5598L65.06 37.1798L66.06 37.1798L67.06 37.1798L67.06 17.5598L66.06 17.5598ZM66.06 37.1798L65.06 37.1798C65.06 48.7935 67.232 57.6344 71.7461 63.5279L72.54 62.9198L73.3339 62.3117C69.208 56.9252 67.06 48.6061 67.06 37.1798L66.06 37.1798ZM72.54 62.9198L71.7461 63.5279C76.3146 69.4923 83.5612 72.3798 93.24 72.3798L93.24 71.3798L93.24 70.3798C83.9588 70.3798 77.4054 67.6274 73.3339 62.3117L72.54 62.9198ZM93.24 71.3798L93.24 72.3798C103.037 72.3798 110.044 69.3684 113.893 63.082L113.04 62.5598L112.187 62.0377C108.836 67.5113 102.643 70.3798 93.24 70.3798L93.24 71.3798ZM113.04 62.5598L113.888 63.0898C117.635 57.094 119.44 48.1692 119.44 36.4598L118.44 36.4598L117.44 36.4598C117.44 48.0304 115.645 56.5056 112.192 62.0298L113.04 62.5598ZM118.44 36.4598L119.44 36.4598L119.44 17.5598L118.44 17.5598L117.44 17.5598L117.44 36.4598L118.44 36.4598ZM118.44 17.5598L118.44 16.5598L66.06 16.5598L66.06 17.5598L66.06 18.5598L118.44 18.5598L118.44 17.5598ZM-5.77367e-06 114.906L-5.72996e-06 113.906L-1.00001 113.906L-1.00001 114.906L-5.77367e-06 114.906ZM131.94 114.906L132.94 114.906L132.94 113.906L131.94 113.906L131.94 114.906ZM128.34 179.886L127.396 179.555L127.393 179.565L127.39 179.575L128.34 179.886ZM116.82 196.266L117.411 197.072V197.072L116.82 196.266ZM73.08 196.266L72.5134 197.09L72.5214 197.096L73.08 196.266ZM60.12 179.886L59.1926 180.26L59.196 180.268L60.12 179.886ZM55.98 131.466L56.98 131.466L56.98 130.466L55.98 130.466L55.98 131.466ZM-6.49753e-06 131.466L-1.00001 131.466L-1.00001 132.466L-6.54125e-06 132.466L-6.49753e-06 131.466ZM69.3 131.466L69.3 130.466L68.3 130.466L68.3 131.466L69.3 131.466ZM75.6 177.366L74.8041 177.972L74.8125 177.982L75.6 177.366ZM113.22 177.366L112.374 176.833V176.833L113.22 177.366ZM118.44 131.466L119.44 131.466L119.44 130.466L118.44 130.466L118.44 131.466ZM-8.93663e-06 187.266L-0.497262 186.398L-1.00001 186.687L-1.00001 187.266L-8.93663e-06 187.266ZM60.3 152.706L61.1303 152.149L60.6111 151.375L59.8027 151.838L60.3 152.706ZM69.12 165.846L69.6222 166.711L70.5451 166.175L69.9503 165.289L69.12 165.846ZM-9.75491e-06 205.986L-1.00001 205.986L-1.00001 207.723L0.502187 206.851L-9.75491e-06 205.986ZM-5.77367e-06 114.906L-5.81738e-06 115.906L131.94 115.906L131.94 114.906L131.94 113.906L-5.72996e-06 113.906L-5.77367e-06 114.906ZM131.94 114.906L130.94 114.906L130.94 156.126L131.94 156.126L132.94 156.126L132.94 114.906L131.94 114.906ZM131.94 156.126L130.94 156.126C130.94 165.039 129.751 172.844 127.396 179.555L128.34 179.886L129.284 180.217C131.729 173.249 132.94 165.213 132.94 156.126L131.94 156.126ZM128.34 179.886L127.39 179.575C125.168 186.356 121.444 191.635 116.229 195.46L116.82 196.266L117.411 197.072C122.996 192.977 126.952 187.336 129.29 180.197L128.34 179.886ZM116.82 196.266L116.229 195.46C111.052 199.256 104.023 201.206 95.04 201.206L95.04 202.206L95.04 203.206C104.297 203.206 111.788 201.197 117.411 197.072L116.82 196.266ZM95.04 202.206L95.04 201.206C86.4318 201.206 79.3183 199.262 73.6386 195.437L73.08 196.266L72.5214 197.096C78.6017 201.19 86.1282 203.206 95.04 203.206L95.04 202.206ZM73.08 196.266L73.6465 195.442C68.0583 191.6 63.8561 186.3 61.044 179.504L60.12 179.886L59.196 180.268C62.1439 187.393 66.5817 193.012 72.5135 197.09L73.08 196.266ZM60.12 179.886L61.0473 179.512C58.3446 172.814 56.98 165.025 56.98 156.126L55.98 156.126L54.98 156.126C54.98 165.227 56.3754 173.278 59.1926 180.26L60.12 179.886ZM55.98 156.126L56.98 156.126L56.98 131.466L55.98 131.466L54.98 131.466L54.98 156.126L55.98 156.126ZM55.98 131.466L55.98 130.466L-6.45382e-06 130.466L-6.49753e-06 131.466L-6.54125e-06 132.466L55.98 132.466L55.98 131.466ZM-6.49753e-06 131.466L0.999994 131.466L0.999994 114.906L-5.77367e-06 114.906L-1.00001 114.906L-1.00001 131.466L-6.49753e-06 131.466ZM69.3 131.466L68.3 131.466L68.3 153.606L69.3 153.606L70.3 153.606L70.3 131.466L69.3 131.466ZM69.3 153.606L68.3 153.606C68.3 164.043 70.421 172.211 74.8042 177.972L75.6 177.366L76.3958 176.761C72.379 171.481 70.3 163.809 70.3 153.606L69.3 153.606ZM75.6 177.366L74.8125 177.982C79.366 183.801 86.1716 186.646 95.04 186.646L95.04 185.646L95.04 184.646C86.6284 184.646 80.474 181.971 76.3875 176.75L75.6 177.366ZM95.04 185.646L95.04 186.646C103.898 186.646 110.345 183.802 114.066 177.899L113.22 177.366L112.374 176.833C109.135 181.97 103.462 184.646 95.04 184.646L95.04 185.646ZM113.22 177.366L114.066 177.899C117.689 172.152 119.44 164.015 119.44 153.606L118.44 153.606L117.44 153.606C117.44 163.838 115.711 171.54 112.374 176.833L113.22 177.366ZM118.44 153.606L119.44 153.606L119.44 131.466L118.44 131.466L117.44 131.466L117.44 153.606L118.44 153.606ZM118.44 131.466L118.44 130.466L69.3 130.466L69.3 131.466L69.3 132.466L118.44 132.466L118.44 131.466ZM-8.93663e-06 187.266L0.497244 188.134L60.7972 153.574L60.3 152.706L59.8027 151.838L-0.497262 186.398L-8.93663e-06 187.266ZM60.3 152.706L59.4697 153.263L68.2897 166.403L69.12 165.846L69.9503 165.289L61.1303 152.149L60.3 152.706ZM69.12 165.846L68.6178 164.981L-0.502207 205.121L-9.75491e-06 205.986L0.502187 206.851L69.6222 166.711L69.12 165.846ZM-9.75491e-06 205.986L0.99999 205.986L0.999991 187.266L-8.93663e-06 187.266L-1.00001 187.266L-1.00001 205.986L-9.75491e-06 205.986ZM-1.0768e-05 229.164L-1.07243e-05 228.164L-1.00001 228.164L-1.00001 229.164L-1.0768e-05 229.164ZM131.94 229.164L132.94 229.164L132.94 228.164L131.94 228.164L131.94 229.164ZM131.94 245.724L131.94 246.724L132.94 246.724L132.94 245.724L131.94 245.724ZM-1.14919e-05 245.724L-1.00001 245.724L-1.00001 246.724L-1.15356e-05 246.724L-1.14919e-05 245.724ZM-1.0768e-05 229.164L-1.08118e-05 230.164L131.94 230.164L131.94 229.164L131.94 228.164L-1.07243e-05 228.164L-1.0768e-05 229.164ZM131.94 229.164L130.94 229.164L130.94 245.724L131.94 245.724L132.94 245.724L132.94 229.164L131.94 229.164ZM131.94 245.724L131.94 244.724L-1.14482e-05 244.724L-1.14919e-05 245.724L-1.15356e-05 246.724L131.94 246.724L131.94 245.724ZM-1.14919e-05 245.724L0.999989 245.724L0.999989 229.164L-1.0768e-05 229.164L-1.00001 229.164L-1.00001 245.724L-1.14919e-05 245.724ZM2.15999 308.718L1.24748 308.309L1.24326 308.319L1.23923 308.328L2.15999 308.718ZM37.08 278.478L36.7598 277.531L36.7557 277.532L37.08 278.478ZM94.5 278.478L94.8321 277.535L94.8243 277.532L94.5 278.478ZM116.1 290.898L116.768 290.154V290.154L116.1 290.898ZM129.6 309.438L130.515 309.035V309.035L129.6 309.438ZM129.24 353.898L128.363 353.417L128.36 353.424L128.356 353.43L129.24 353.898ZM118.08 368.838L117.44 369.607L118.11 370.165L118.755 369.576L118.08 368.838ZM107.28 359.838L106.597 359.108L105.77 359.882L106.64 360.607L107.28 359.838ZM116.28 347.958L117.17 348.415V348.415L116.28 347.958ZM113.22 311.058L112.398 311.627V311.627L113.22 311.058ZM94.68 296.478L94.2777 297.394L94.2828 297.396L94.68 296.478ZM37.44 296.298L37.0592 295.374L37.0544 295.376L37.44 296.298ZM18.72 310.518L17.9105 309.931L17.903 309.942L18.72 310.518ZM16.2 349.038L17.0859 348.574L17.0811 348.565L16.2 349.038ZM27.18 362.898L27.8339 363.655L28.6929 362.912L27.8479 362.154L27.18 362.898ZM16.56 372.078L15.9079 372.836L16.5617 373.399L17.2139 372.835L16.56 372.078ZM2.51999 354.438L1.62231 354.879L1.62552 354.885L1.62881 354.892L2.51999 354.438ZM-2.34001 331.578L-1.34001 331.578C-1.34001 323.544 0.136185 316.058 3.08074 309.108L2.15999 308.718L1.23923 308.328C-1.81622 315.539 -3.34001 323.293 -3.34001 331.578L-2.34001 331.578ZM2.15999 308.718L3.0725 309.127C6.13223 302.302 10.5446 296.358 16.3196 291.29L15.66 290.538L15.0004 289.787C9.01532 295.039 4.42774 301.215 1.24748 308.309L2.15999 308.718ZM15.66 290.538L16.3196 291.29C22.0892 286.227 29.1111 282.268 37.4043 279.424L37.08 278.478L36.7557 277.532C28.2489 280.449 20.9908 284.53 15.0004 289.787L15.66 290.538ZM37.08 278.478L37.4002 279.426C45.7998 276.586 55.289 275.158 65.88 275.158L65.88 274.158L65.88 273.158C55.1109 273.158 45.4002 274.61 36.7598 277.531L37.08 278.478ZM65.88 274.158L65.88 275.158C76.4713 275.158 85.8988 276.586 94.1757 279.424L94.5 278.478L94.8243 277.532C86.3012 274.61 76.6487 273.158 65.88 273.158L65.88 274.158ZM94.5 278.478L94.1679 279.422C102.581 282.384 109.663 286.462 115.432 291.642L116.1 290.898L116.768 290.154C110.777 284.775 103.459 280.572 94.8321 277.535L94.5 278.478ZM116.1 290.898L115.432 291.642C121.209 296.83 125.623 302.894 128.685 309.842L129.6 309.438L130.515 309.035C127.337 301.822 122.751 295.527 116.768 290.154L116.1 290.898ZM129.6 309.438L128.685 309.842C131.744 316.784 133.28 324.385 133.28 332.658L134.28 332.658L135.28 332.658C135.28 324.131 133.696 316.253 130.515 309.035L129.6 309.438ZM134.28 332.658L133.28 332.658C133.28 340.556 131.631 347.466 128.363 353.417L129.24 353.898L130.117 354.38C133.569 348.091 135.28 340.841 135.28 332.658L134.28 332.658ZM129.24 353.898L128.356 353.43C125.159 359.47 121.504 364.352 117.405 368.1L118.08 368.838L118.755 369.576C123.056 365.644 126.841 360.566 130.124 354.366L129.24 353.898ZM118.08 368.838L118.72 368.07L107.92 359.07L107.28 359.838L106.64 360.607L117.44 369.607L118.08 368.838ZM107.28 359.838L107.963 360.569C111.765 357.012 114.836 352.96 117.17 348.415L116.28 347.958L115.39 347.501C113.164 351.837 110.235 355.705 106.597 359.108L107.28 359.838ZM116.28 347.958L117.17 348.415C119.531 343.816 120.7 338.616 120.7 332.838L119.7 332.838L118.7 332.838C118.7 338.34 117.589 343.22 115.39 347.501L116.28 347.958ZM119.7 332.838L120.7 332.838C120.7 324.374 118.489 316.912 114.042 310.489L113.22 311.058L112.398 311.627C116.591 317.685 118.7 324.742 118.7 332.838L119.7 332.838ZM113.22 311.058L114.042 310.489C109.6 304.073 103.262 299.103 95.0772 295.561L94.68 296.478L94.2828 297.396C102.178 300.813 108.2 305.564 112.398 311.627L113.22 311.058ZM94.68 296.478L95.0823 295.563C87.0069 292.014 77.4434 290.258 66.42 290.258L66.42 291.258L66.42 292.258C77.2366 292.258 86.5131 293.982 94.2777 297.394L94.68 296.478ZM66.42 291.258L66.42 290.258C55.1626 290.258 45.3674 291.953 37.0592 295.374L37.44 296.298L37.8207 297.223C45.8326 293.924 55.3574 292.258 66.42 292.258L66.42 291.258ZM37.44 296.298L37.0544 295.376C28.8713 298.795 22.474 303.641 17.9106 309.931L18.72 310.518L19.5294 311.105C23.846 305.156 29.9287 300.521 37.8256 297.221L37.44 296.298ZM18.72 310.518L17.903 309.942C13.4497 316.25 11.24 323.718 11.24 332.298L12.24 332.298L13.24 332.298C13.24 324.079 15.3503 317.026 19.537 311.095L18.72 310.518ZM12.24 332.298L11.24 332.298C11.24 338.684 12.592 344.429 15.3188 349.511L16.2 349.038L17.0811 348.565C14.528 343.807 13.24 338.393 13.24 332.298L12.24 332.298ZM16.2 349.038L15.3141 349.502C18.015 354.658 21.7526 359.371 26.5121 363.643L27.18 362.898L27.8479 362.154C23.2473 358.025 19.6649 353.498 17.0858 348.574L16.2 349.038ZM27.18 362.898L26.526 362.142L15.906 371.322L16.56 372.078L17.2139 372.835L27.8339 363.655L27.18 362.898ZM16.56 372.078L17.212 371.32C11.304 366.239 6.70807 360.461 3.41115 353.985L2.51999 354.438L1.62881 354.892C5.05189 361.616 9.81601 367.597 15.9079 372.836L16.56 372.078ZM2.51999 354.438L3.41765 353.998C0.255798 347.557 -1.34001 340.092 -1.34001 331.578L-2.34001 331.578L-3.34001 331.578C-3.34001 340.344 -1.69583 348.12 1.62231 354.879L2.51999 354.438ZM-1.80906e-05 396.683L-1.80468e-05 395.683L-1.00002 395.683L-1.00002 396.683L-1.80906e-05 396.683ZM131.94 396.683L132.94 396.683L132.94 395.683L131.94 395.683L131.94 396.683ZM131.94 472.643L131.94 473.643L132.94 473.643L132.94 472.643L131.94 472.643ZM117.9 472.643L116.9 472.643L116.9 473.643L117.9 473.643L117.9 472.643ZM117.9 413.243L118.9 413.243L118.9 412.243L117.9 412.243L117.9 413.243ZM76.5 413.243L76.5 412.243L75.5 412.243L75.5 413.243L76.5 413.243ZM76.5 463.283L76.5 464.283L77.5 464.283L77.5 463.283L76.5 463.283ZM62.28 463.283L61.28 463.283L61.28 464.283L62.28 464.283L62.28 463.283ZM62.28 413.243L63.28 413.243L63.28 412.243L62.28 412.243L62.28 413.243ZM14.22 413.243L14.22 412.243L13.22 412.243L13.22 413.243L14.22 413.243ZM14.22 474.623L14.22 475.623L15.22 475.623L15.22 474.623L14.22 474.623ZM-2.14974e-05 474.623L-1.00002 474.623L-1.00002 475.623L-2.15411e-05 475.623L-2.14974e-05 474.623ZM-1.80906e-05 396.683L-1.81343e-05 397.683L131.94 397.683L131.94 396.683L131.94 395.683L-1.80468e-05 395.683L-1.80906e-05 396.683ZM131.94 396.683L130.94 396.683L130.94 472.643L131.94 472.643L132.94 472.643L132.94 396.683L131.94 396.683ZM131.94 472.643L131.94 471.643L117.9 471.643L117.9 472.643L117.9 473.643L131.94 473.643L131.94 472.643ZM117.9 472.643L118.9 472.643L118.9 413.243L117.9 413.243L116.9 413.243L116.9 472.643L117.9 472.643ZM117.9 413.243L117.9 412.243L76.5 412.243L76.5 413.243L76.5 414.243L117.9 414.243L117.9 413.243ZM76.5 413.243L75.5 413.243L75.5 463.283L76.5 463.283L77.5 463.283L77.5 413.243L76.5 413.243ZM76.5 463.283L76.5 462.283L62.28 462.283L62.28 463.283L62.28 464.283L76.5 464.283L76.5 463.283ZM62.28 463.283L63.28 463.283L63.28 413.243L62.28 413.243L61.28 413.243L61.28 463.283L62.28 463.283ZM62.28 413.243L62.28 412.243L14.22 412.243L14.22 413.243L14.22 414.243L62.28 414.243L62.28 413.243ZM14.22 413.243L13.22 413.243L13.22 474.623L14.22 474.623L15.22 474.623L15.22 413.243L14.22 413.243ZM14.22 474.623L14.22 473.623L-2.14537e-05 473.623L-2.14974e-05 474.623L-2.15411e-05 475.623L14.22 475.623L14.22 474.623ZM-2.14974e-05 474.623L0.999979 474.623L0.999982 396.683L-1.80906e-05 396.683L-1.00002 396.683L-1.00002 474.623L-2.14974e-05 474.623Z" fill="url(#paint0_linear_313_483)" fill-opacity="0.5" mask="url(#path-1-outside-1_313_483)"/>
<defs>
<linearGradient id="paint0_linear_313_483" x1="-18" y1="233.82" x2="162" y2="233.82" gradientUnits="userSpaceOnUse">
<stop stop-color="white"/>
<stop offset="1" stop-color="white" stop-opacity="0"/>
</linearGradient>
</defs>
</svg>
