<svg width="134" height="642" viewBox="0 0 134 642" fill="none" xmlns="http://www.w3.org/2000/svg">
<mask id="path-1-outside-1_313_576" maskUnits="userSpaceOnUse" x="-6.00003" y="-0.326179" width="140" height="643" fill="black">
<rect fill="white" x="-6.00003" y="-0.326179" width="140" height="643"/>
<path d="M-2 1.39382L129.94 46.0338L129.94 64.5738L-2 109.394L-2 91.7538L71.8 68.7138C79.36 66.3138 86.74 64.0338 93.94 61.8738C101.26 59.7138 108.76 57.5538 116.44 55.3938L116.44 54.6738C108.76 52.6338 101.26 50.4738 93.94 48.1938C86.74 46.0338 79.36 43.8138 71.8 41.5338L-2 18.1338L-2 1.39382ZM38.32 24.6138L51.46 24.6138L51.46 85.4538L38.32 85.4538L38.32 24.6138ZM-4.34001 175.585C-4.34001 167.425 -2.84001 159.805 0.159993 152.725C3.27999 145.765 7.77999 139.705 13.66 134.545C19.54 129.385 26.68 125.365 35.08 122.485C43.6 119.605 53.2 118.165 63.88 118.165C74.56 118.165 84.1 119.605 92.5 122.485C101.02 125.485 108.22 129.625 114.1 134.905C119.98 140.185 124.48 146.365 127.6 153.445C130.72 160.525 132.28 168.265 132.28 176.665C132.28 184.705 130.6 191.785 127.24 197.905C124 204.025 120.28 209.005 116.08 212.845L105.28 203.845C109 200.365 112 196.405 114.28 191.965C116.56 187.525 117.7 182.485 117.7 176.845C117.7 168.565 115.54 161.305 111.22 155.065C106.9 148.825 100.72 143.965 92.68 140.485C84.76 137.005 75.34 135.265 64.42 135.265C53.26 135.265 43.6 136.945 35.44 140.305C27.4 143.665 21.16 148.405 16.72 154.525C12.4 160.645 10.24 167.905 10.24 176.305C10.24 182.545 11.56 188.125 14.2 193.045C16.84 198.085 20.5 202.705 25.18 206.905L14.56 216.085C8.55999 210.925 3.87999 205.045 0.519991 198.445C-2.72001 191.845 -4.34001 184.225 -4.34001 175.585ZM-4.34001 284.217C-4.34001 276.057 -2.84001 268.437 0.159989 261.357C3.27999 254.397 7.77999 248.337 13.66 243.177C19.54 238.017 26.68 233.997 35.08 231.117C43.6 228.237 53.2 226.797 63.88 226.797C74.56 226.797 84.1 228.237 92.5 231.117C101.02 234.117 108.22 238.257 114.1 243.537C119.98 248.817 124.48 254.997 127.6 262.077C130.72 269.157 132.28 276.897 132.28 285.297C132.28 293.337 130.6 300.417 127.24 306.537C124 312.657 120.28 317.637 116.08 321.477L105.28 312.477C109 308.997 112 305.037 114.28 300.597C116.56 296.157 117.7 291.117 117.7 285.477C117.7 277.197 115.54 269.937 111.22 263.697C106.9 257.457 100.72 252.597 92.68 249.117C84.76 245.637 75.34 243.897 64.42 243.897C53.26 243.897 43.6 245.577 35.44 248.937C27.4 252.297 21.16 257.037 16.72 263.157C12.4 269.277 10.24 276.537 10.24 284.937C10.24 291.177 11.56 296.757 14.2 301.677C16.84 306.717 20.5 311.337 25.18 315.537L14.56 324.717C8.55999 319.557 3.87999 313.677 0.519987 307.077C-2.72001 300.477 -4.34001 292.857 -4.34001 284.217ZM-2.00002 349.323L129.94 349.323L129.94 425.283L115.9 425.283L115.9 365.883L74.5 365.883L74.5 415.923L60.28 415.923L60.28 365.883L12.22 365.883L12.22 427.263L-2.00002 427.263L-2.00002 349.323ZM-4.34002 491.859C-4.34002 482.499 -2.60002 473.859 0.87998 465.939C4.35998 458.139 9.09998 451.419 15.1 445.779L26.62 455.679C21.7 460.359 17.74 465.879 14.74 472.239C11.74 478.599 10.24 485.199 10.24 492.039C10.24 500.799 12.22 507.579 16.18 512.379C20.14 517.299 25.3 519.759 31.66 519.759C36.34 519.759 40.06 518.739 42.82 516.699C45.58 514.779 47.86 512.139 49.66 508.779C51.58 505.539 53.44 501.819 55.24 497.619L63.52 478.719C65.32 474.639 67.6 470.499 70.36 466.299C73.12 462.219 76.72 458.799 81.16 456.039C85.6 453.279 91 451.899 97.36 451.899C104.2 451.899 110.2 453.699 115.36 457.299C120.64 460.899 124.78 465.819 127.78 472.059C130.78 478.299 132.28 485.439 132.28 493.479C132.28 501.399 130.78 508.659 127.78 515.259C124.78 521.979 120.88 527.619 116.08 532.179L105.46 523.539C109.18 519.459 112.12 514.959 114.28 510.039C116.56 505.239 117.7 499.719 117.7 493.479C117.7 486.039 115.96 480.039 112.48 475.479C109.12 471.039 104.5 468.819 98.62 468.819C94.3 468.819 90.76 469.899 88 472.059C85.24 474.339 83.02 477.159 81.34 480.519C79.66 483.879 78.04 487.299 76.48 490.779L68.38 509.499C66.22 514.539 63.64 519.099 60.64 523.179C57.64 527.379 53.92 530.679 49.48 533.079C45.04 535.479 39.58 536.679 33.1 536.679C26.14 536.679 19.78 534.879 14.02 531.279C8.37998 527.679 3.87998 522.519 0.519978 515.799C-2.72002 509.079 -4.34002 501.099 -4.34002 491.859ZM-4.34003 595.921C-4.34003 586.561 -2.60003 577.921 0.879975 570.001C4.35998 562.201 9.09998 555.481 15.1 549.841L26.62 559.741C21.7 564.421 17.74 569.941 14.74 576.301C11.74 582.661 10.24 589.261 10.24 596.101C10.24 604.861 12.22 611.641 16.18 616.441C20.14 621.361 25.3 623.821 31.66 623.821C36.34 623.821 40.06 622.801 42.82 620.761C45.58 618.841 47.86 616.201 49.66 612.841C51.58 609.601 53.44 605.881 55.24 601.681L63.52 582.781C65.32 578.701 67.6 574.561 70.36 570.361C73.12 566.281 76.72 562.861 81.16 560.101C85.6 557.341 91 555.961 97.36 555.961C104.2 555.961 110.2 557.761 115.36 561.361C120.64 564.961 124.78 569.881 127.78 576.121C130.78 582.361 132.28 589.501 132.28 597.541C132.28 605.461 130.78 612.721 127.78 619.321C124.78 626.041 120.88 631.681 116.08 636.241L105.46 627.601C109.18 623.521 112.12 619.021 114.28 614.101C116.56 609.301 117.7 603.781 117.7 597.541C117.7 590.101 115.96 584.101 112.48 579.541C109.12 575.101 104.5 572.881 98.62 572.881C94.3 572.881 90.76 573.961 88 576.121C85.24 578.401 83.02 581.221 81.34 584.581C79.66 587.941 78.04 591.361 76.48 594.841L68.38 613.561C66.22 618.601 63.64 623.161 60.64 627.241C57.64 631.441 53.92 634.741 49.48 637.141C45.04 639.541 39.58 640.741 33.1 640.741C26.14 640.741 19.78 638.941 14.02 635.341C8.37997 631.741 3.87997 626.581 0.519973 619.861C-2.72003 613.141 -4.34003 605.161 -4.34003 595.921Z"/>
</mask>
<path d="M-2 1.39382L-1.6795 0.446569L-3 -0.000199648L-3 1.39382L-2 1.39382ZM129.94 46.0338L130.94 46.0338L130.94 45.3165L130.26 45.0866L129.94 46.0338ZM129.94 64.5738L130.262 65.5207L130.94 65.2903L130.94 64.5738L129.94 64.5738ZM-2 109.394L-3 109.394L-3 110.79L-1.67835 110.341L-2 109.394ZM-2 91.7538L-2.29801 90.7993L-3 91.0184L-3 91.7538L-2 91.7538ZM71.8 68.7138L72.098 69.6684L72.1026 69.667L71.8 68.7138ZM93.94 61.8738L93.657 60.9147L93.6527 60.916L93.94 61.8738ZM116.44 55.3938L116.711 56.3565L117.44 56.1514L117.44 55.3938L116.44 55.3938ZM116.44 54.6738L117.44 54.6738L117.44 53.9048L116.697 53.7073L116.44 54.6738ZM93.94 48.1938L94.2374 47.239L94.2274 47.236L93.94 48.1938ZM71.8 41.5338L71.4977 42.4872L71.5113 42.4912L71.8 41.5338ZM-2 18.1338L-3 18.1338L-3 18.8658L-2.30225 19.0871L-2 18.1338ZM38.32 24.6138L38.32 23.6138L37.32 23.6138L37.32 24.6138L38.32 24.6138ZM51.46 24.6138L52.46 24.6138L52.46 23.6138L51.46 23.6138L51.46 24.6138ZM51.46 85.4538L51.46 86.4538L52.46 86.4538L52.46 85.4538L51.46 85.4538ZM38.32 85.4538L37.32 85.4538L37.32 86.4538L38.32 86.4538L38.32 85.4538ZM-2 1.39382L-2.3205 2.34107L129.62 46.9811L129.94 46.0338L130.26 45.0866L-1.6795 0.446569L-2 1.39382ZM129.94 46.0338L128.94 46.0338L128.94 64.5738L129.94 64.5738L130.94 64.5738L130.94 46.0338L129.94 46.0338ZM129.94 64.5738L129.618 63.627L-2.32166 108.447L-2 109.394L-1.67835 110.341L130.262 65.5207L129.94 64.5738ZM-2 109.394L-1 109.394L-1 91.7538L-2 91.7538L-3 91.7538L-3 109.394L-2 109.394ZM-2 91.7538L-1.702 92.7084L72.098 69.6684L71.8 68.7138L71.502 67.7593L-2.29801 90.7993L-2 91.7538ZM71.8 68.7138L72.1026 69.667C79.6578 67.2685 87.0327 64.99 94.2274 62.8317L93.94 61.8738L93.6527 60.916C86.4473 63.0776 79.0622 65.3592 71.4974 67.7607L71.8 68.7138ZM93.94 61.8738L94.223 62.8329C101.539 60.6742 109.035 58.5154 116.711 56.3565L116.44 55.3938L116.169 54.4312C108.485 56.5923 100.981 58.7535 93.657 60.9147L93.94 61.8738ZM116.44 55.3938L117.44 55.3938L117.44 54.6738L116.44 54.6738L115.44 54.6738L115.44 55.3938L116.44 55.3938ZM116.44 54.6738L116.697 53.7073C109.03 51.6708 101.543 49.5147 94.2374 47.2391L93.94 48.1938L93.6426 49.1486C100.977 51.4329 108.49 53.5968 116.183 55.6403L116.44 54.6738ZM93.94 48.1938L94.2274 47.236C87.0278 45.0761 79.6483 42.8563 72.0887 40.5764L71.8 41.5338L71.5113 42.4912C79.0717 44.7714 86.4522 46.9915 93.6527 49.1517L93.94 48.1938ZM71.8 41.5338L72.1022 40.5806L-1.69775 17.1806L-2 18.1338L-2.30225 19.0871L71.4978 42.4871L71.8 41.5338ZM-2 18.1338L-1 18.1338L-1 1.39382L-2 1.39382L-3 1.39382L-3 18.1338L-2 18.1338ZM38.32 24.6138L38.32 25.6138L51.46 25.6138L51.46 24.6138L51.46 23.6138L38.32 23.6138L38.32 24.6138ZM51.46 24.6138L50.46 24.6138L50.46 85.4538L51.46 85.4538L52.46 85.4538L52.46 24.6138L51.46 24.6138ZM51.46 85.4538L51.46 84.4538L38.32 84.4538L38.32 85.4538L38.32 86.4538L51.46 86.4538L51.46 85.4538ZM38.32 85.4538L39.32 85.4538L39.32 24.6138L38.32 24.6138L37.32 24.6138L37.32 85.4538L38.32 85.4538ZM0.159997 152.725L-0.752509 152.316L-0.756736 152.325L-0.760764 152.334L0.159997 152.725ZM35.08 122.485L34.7598 121.537L34.7557 121.539L35.08 122.485ZM92.5 122.485L92.8321 121.541L92.8243 121.539L92.5 122.485ZM114.1 134.905L114.768 134.161V134.161L114.1 134.905ZM127.6 153.445L128.515 153.041V153.041L127.6 153.445ZM127.24 197.905L126.363 197.423L126.36 197.43L126.356 197.437L127.24 197.905ZM116.08 212.845L115.44 213.613L116.11 214.172L116.755 213.583L116.08 212.845ZM105.28 203.845L104.597 203.114L103.77 203.888L104.64 204.613L105.28 203.845ZM114.28 191.965L115.17 192.421V192.421L114.28 191.965ZM111.22 155.065L110.398 155.634V155.634L111.22 155.065ZM92.68 140.485L92.2777 141.4L92.2828 141.402L92.68 140.485ZM35.44 140.305L35.0592 139.38L35.0544 139.382L35.44 140.305ZM16.72 154.525L15.9105 153.937L15.903 153.948L16.72 154.525ZM14.2 193.045L15.0859 192.581L15.0812 192.572L14.2 193.045ZM25.18 206.905L25.8339 207.661L26.6929 206.919L25.8479 206.16L25.18 206.905ZM14.56 216.085L13.9079 216.843L14.5617 217.405L15.2139 216.841L14.56 216.085ZM0.519996 198.445L-0.377679 198.885L-0.374475 198.892L-0.371179 198.898L0.519996 198.445ZM-4.34 175.585L-3.34 175.585C-3.34 167.55 -1.86381 160.064 1.08074 153.115L0.159997 152.725L-0.760764 152.334C-3.81621 159.545 -5.34 167.299 -5.34 175.585L-4.34 175.585ZM0.159997 152.725L1.0725 153.134C4.13224 146.308 8.54466 140.364 14.3196 135.296L13.66 134.545L13.0004 133.793C7.01533 139.045 2.42774 145.221 -0.752509 152.316L0.159997 152.725ZM13.66 134.545L14.3196 135.296C20.0892 130.233 27.1111 126.274 35.4043 123.431L35.08 122.485L34.7557 121.539C26.2489 124.455 18.9908 128.536 13.0004 133.793L13.66 134.545ZM35.08 122.485L35.4002 123.432C43.7998 120.593 53.289 119.165 63.88 119.165L63.88 118.165L63.88 117.165C53.111 117.165 43.4002 118.617 34.7598 121.537L35.08 122.485ZM63.88 118.165L63.88 119.165C74.4713 119.165 83.8988 120.593 92.1757 123.431L92.5 122.485L92.8243 121.539C84.3012 118.616 74.6487 117.165 63.88 117.165L63.88 118.165ZM92.5 122.485L92.1679 123.428C100.581 126.39 107.663 130.468 113.432 135.649L114.1 134.905L114.768 134.161C108.777 128.781 101.459 124.579 92.8321 121.541L92.5 122.485ZM114.1 134.905L113.432 135.649C119.209 140.836 123.623 146.901 126.685 153.848L127.6 153.445L128.515 153.041C125.337 145.829 120.751 139.533 114.768 134.161L114.1 134.905ZM127.6 153.445L126.685 153.848C129.744 160.79 131.28 168.391 131.28 176.665L132.28 176.665L133.28 176.665C133.28 168.138 131.696 160.259 128.515 153.041L127.6 153.445ZM132.28 176.665L131.28 176.665C131.28 184.562 129.631 191.472 126.363 197.423L127.24 197.905L128.117 198.386C131.569 192.097 133.28 184.847 133.28 176.665L132.28 176.665ZM127.24 197.905L126.356 197.437C123.159 203.477 119.504 208.359 115.405 212.107L116.08 212.845L116.755 213.583C121.056 209.651 124.841 204.573 128.124 198.372L127.24 197.905ZM116.08 212.845L116.72 212.076L105.92 203.076L105.28 203.845L104.64 204.613L115.44 213.613L116.08 212.845ZM105.28 203.845L105.963 204.575C109.765 201.018 112.836 196.966 115.17 192.421L114.28 191.965L113.39 191.508C111.164 195.843 108.235 199.711 104.597 203.114L105.28 203.845ZM114.28 191.965L115.17 192.421C117.531 187.823 118.7 182.623 118.7 176.845L117.7 176.845L116.7 176.845C116.7 182.347 115.589 187.227 113.39 191.508L114.28 191.965ZM117.7 176.845L118.7 176.845C118.7 168.381 116.489 160.918 112.042 154.495L111.22 155.065L110.398 155.634C114.591 161.691 116.7 168.749 116.7 176.845L117.7 176.845ZM111.22 155.065L112.042 154.495C107.6 148.079 101.262 143.109 93.0772 139.567L92.68 140.485L92.2828 141.402C100.178 144.82 106.2 149.57 110.398 155.634L111.22 155.065ZM92.68 140.485L93.0823 139.569C85.0069 136.021 75.4434 134.265 64.42 134.265L64.42 135.265L64.42 136.265C75.2366 136.265 84.5131 137.988 92.2777 141.4L92.68 140.485ZM64.42 135.265L64.42 134.265C53.1626 134.265 43.3674 135.959 35.0592 139.38L35.44 140.305L35.8207 141.229C43.8326 137.93 53.3574 136.265 64.42 136.265L64.42 135.265ZM35.44 140.305L35.0544 139.382C26.8713 142.802 20.474 147.647 15.9106 153.937L16.72 154.525L17.5294 155.112C21.846 149.162 27.9287 144.527 35.8256 141.227L35.44 140.305ZM16.72 154.525L15.903 153.948C11.4497 160.257 9.24 167.724 9.24 176.305L10.24 176.305L11.24 176.305C11.24 168.085 13.3503 161.032 17.537 155.101L16.72 154.525ZM10.24 176.305L9.24 176.305C9.24 182.69 10.592 188.436 13.3188 193.517L14.2 193.045L15.0812 192.572C12.528 187.814 11.24 182.399 11.24 176.305L10.24 176.305ZM14.2 193.045L13.3142 193.509C16.015 198.665 19.7526 203.378 24.5121 207.649L25.18 206.905L25.8479 206.16C21.2474 202.032 17.665 197.504 15.0858 192.581L14.2 193.045ZM25.18 206.905L24.526 206.148L13.906 215.328L14.56 216.085L15.2139 216.841L25.8339 207.661L25.18 206.905ZM14.56 216.085L15.212 215.326C9.30396 210.245 4.70808 204.467 1.41115 197.991L0.519996 198.445L-0.371179 198.898C3.0519 205.622 7.81602 211.604 13.9079 216.843L14.56 216.085ZM0.519996 198.445L1.41765 198.004C-1.74419 191.563 -3.34 184.098 -3.34 175.585L-4.34 175.585L-5.34 175.585C-5.34 184.351 -3.69582 192.126 -0.377679 198.885L0.519996 198.445ZM0.159992 261.357L-0.752514 260.948L-0.756741 260.958L-0.760769 260.967L0.159992 261.357ZM35.08 231.117L34.7598 230.17L34.7557 230.171L35.08 231.117ZM92.5 231.117L92.8321 230.174L92.8243 230.171L92.5 231.117ZM114.1 243.537L114.768 242.793V242.793L114.1 243.537ZM127.6 262.077L128.515 261.674V261.674L127.6 262.077ZM127.24 306.537L126.363 306.056L126.36 306.063L126.356 306.07L127.24 306.537ZM116.08 321.477L115.44 322.246L116.11 322.805L116.755 322.215L116.08 321.477ZM105.28 312.477L104.597 311.747L103.77 312.521L104.64 313.246L105.28 312.477ZM114.28 300.597L115.17 301.054V301.054L114.28 300.597ZM111.22 263.697L110.398 264.267V264.267L111.22 263.697ZM92.68 249.117L92.2777 250.033L92.2828 250.035L92.68 249.117ZM35.44 248.937L35.0592 248.013L35.0544 248.015L35.44 248.937ZM16.72 263.157L15.9105 262.57L15.903 262.581L16.72 263.157ZM14.2 301.677L15.0859 301.213L15.0811 301.205L14.2 301.677ZM25.18 315.537L25.8339 316.294L26.6929 315.551L25.8479 314.793L25.18 315.537ZM14.56 324.717L13.9079 325.476L14.5617 326.038L15.2139 325.474L14.56 324.717ZM0.519991 307.077L-0.377684 307.518L-0.374479 307.525L-0.371183 307.531L0.519991 307.077ZM-4.34001 284.217L-3.34001 284.217C-3.34001 276.183 -1.86381 268.697 1.08074 261.748L0.159992 261.357L-0.760769 260.967C-3.81622 268.178 -5.34001 275.932 -5.34001 284.217L-4.34001 284.217ZM0.159992 261.357L1.0725 261.766C4.13224 254.941 8.54465 248.997 14.3196 243.929L13.66 243.177L13.0004 242.426C7.01532 247.678 2.42774 253.854 -0.752514 260.948L0.159992 261.357ZM13.66 243.177L14.3196 243.929C20.0892 238.866 27.1111 234.907 35.4043 232.063L35.08 231.117L34.7557 230.171C26.2489 233.088 18.9908 237.169 13.0004 242.426L13.66 243.177ZM35.08 231.117L35.4002 232.065C43.7998 229.225 53.289 227.797 63.88 227.797L63.88 226.797L63.88 225.797C53.111 225.797 43.4002 227.249 34.7598 230.17L35.08 231.117ZM63.88 226.797L63.88 227.797C74.4713 227.797 83.8988 229.226 92.1757 232.063L92.5 231.117L92.8243 230.171C84.3012 227.249 74.6487 225.797 63.88 225.797L63.88 226.797ZM92.5 231.117L92.1679 232.061C100.581 235.023 107.663 239.101 113.432 244.281L114.1 243.537L114.768 242.793C108.777 237.414 101.459 233.212 92.8321 230.174L92.5 231.117ZM114.1 243.537L113.432 244.281C119.209 249.469 123.623 255.533 126.685 262.481L127.6 262.077L128.515 261.674C125.337 254.462 120.751 248.166 114.768 242.793L114.1 243.537ZM127.6 262.077L126.685 262.481C129.744 269.423 131.28 277.024 131.28 285.297L132.28 285.297L133.28 285.297C133.28 276.771 131.696 268.892 128.515 261.674L127.6 262.077ZM132.28 285.297L131.28 285.297C131.28 293.195 129.631 300.105 126.363 306.056L127.24 306.537L128.117 307.019C131.569 300.73 133.28 293.48 133.28 285.297L132.28 285.297ZM127.24 306.537L126.356 306.07C123.159 312.109 119.504 316.992 115.405 320.739L116.08 321.477L116.755 322.215C121.056 318.283 124.841 313.205 128.124 307.005L127.24 306.537ZM116.08 321.477L116.72 320.709L105.92 311.709L105.28 312.477L104.64 313.246L115.44 322.246L116.08 321.477ZM105.28 312.477L105.963 313.208C109.765 309.651 112.836 305.599 115.17 301.054L114.28 300.597L113.39 300.141C111.164 304.476 108.235 308.344 104.597 311.747L105.28 312.477ZM114.28 300.597L115.17 301.054C117.531 296.455 118.7 291.255 118.7 285.477L117.7 285.477L116.7 285.477C116.7 290.979 115.589 295.859 113.39 300.141L114.28 300.597ZM117.7 285.477L118.7 285.477C118.7 277.013 116.489 269.551 112.042 263.128L111.22 263.697L110.398 264.267C114.591 270.324 116.7 277.381 116.7 285.477L117.7 285.477ZM111.22 263.697L112.042 263.128C107.6 256.712 101.262 251.742 93.0772 248.2L92.68 249.117L92.2828 250.035C100.178 253.453 106.2 258.203 110.398 264.267L111.22 263.697ZM92.68 249.117L93.0823 248.202C85.0069 244.654 75.4434 242.897 64.42 242.897L64.42 243.897L64.42 244.897C75.2366 244.897 84.5131 246.621 92.2777 250.033L92.68 249.117ZM64.42 243.897L64.42 242.897C53.1626 242.897 43.3674 244.592 35.0592 248.013L35.44 248.937L35.8207 249.862C43.8326 246.563 53.3574 244.897 64.42 244.897L64.42 243.897ZM35.44 248.937L35.0544 248.015C26.8713 251.435 20.474 256.28 15.9106 262.57L16.72 263.157L17.5294 263.745C21.846 257.795 27.9287 253.16 35.8256 249.86L35.44 248.937ZM16.72 263.157L15.903 262.581C11.4497 268.89 9.23999 276.357 9.23999 284.937L10.24 284.937L11.24 284.937C11.24 276.718 13.3503 269.665 17.537 263.734L16.72 263.157ZM10.24 284.937L9.23999 284.937C9.23999 291.323 10.592 297.068 13.3188 302.15L14.2 301.677L15.0811 301.205C12.528 296.446 11.24 291.032 11.24 284.937L10.24 284.937ZM14.2 301.677L13.3142 302.141C16.015 307.298 19.7526 312.01 24.5121 316.282L25.18 315.537L25.8479 314.793C21.2473 310.664 17.6649 306.137 15.0858 301.213L14.2 301.677ZM25.18 315.537L24.526 314.781L13.906 323.961L14.56 324.717L15.2139 325.474L25.8339 316.294L25.18 315.537ZM14.56 324.717L15.212 323.959C9.30396 318.878 4.70807 313.1 1.41115 306.624L0.519991 307.077L-0.371183 307.531C3.0519 314.255 7.81601 320.237 13.9079 325.476L14.56 324.717ZM0.519991 307.077L1.41765 306.637C-1.7442 300.196 -3.34001 292.731 -3.34001 284.217L-4.34001 284.217L-5.34001 284.217C-5.34001 292.984 -3.69583 300.759 -0.377684 307.518L0.519991 307.077ZM-2.00002 349.323L-2.00002 348.323L-3.00002 348.323L-3.00002 349.323L-2.00002 349.323ZM129.94 349.323L130.94 349.323L130.94 348.323L129.94 348.323L129.94 349.323ZM129.94 425.283L129.94 426.283L130.94 426.283L130.94 425.283L129.94 425.283ZM115.9 425.283L114.9 425.283L114.9 426.283L115.9 426.283L115.9 425.283ZM115.9 365.883L116.9 365.883L116.9 364.883L115.9 364.883L115.9 365.883ZM74.5 365.883L74.5 364.883L73.5 364.883L73.5 365.883L74.5 365.883ZM74.5 415.923L74.5 416.923L75.5 416.923L75.5 415.923L74.5 415.923ZM60.28 415.923L59.28 415.923L59.28 416.923L60.28 416.923L60.28 415.923ZM60.28 365.883L61.28 365.883L61.28 364.883L60.28 364.883L60.28 365.883ZM12.22 365.883L12.22 364.883L11.22 364.883L11.22 365.883L12.22 365.883ZM12.22 427.263L12.22 428.263L13.22 428.263L13.22 427.263L12.22 427.263ZM-2.00002 427.263L-3.00002 427.263L-3.00002 428.263L-2.00002 428.263L-2.00002 427.263ZM-2.00002 349.323L-2.00002 350.323L129.94 350.323L129.94 349.323L129.94 348.323L-2.00002 348.323L-2.00002 349.323ZM129.94 349.323L128.94 349.323L128.94 425.283L129.94 425.283L130.94 425.283L130.94 349.323L129.94 349.323ZM129.94 425.283L129.94 424.283L115.9 424.283L115.9 425.283L115.9 426.283L129.94 426.283L129.94 425.283ZM115.9 425.283L116.9 425.283L116.9 365.883L115.9 365.883L114.9 365.883L114.9 425.283L115.9 425.283ZM115.9 365.883L115.9 364.883L74.5 364.883L74.5 365.883L74.5 366.883L115.9 366.883L115.9 365.883ZM74.5 365.883L73.5 365.883L73.5 415.923L74.5 415.923L75.5 415.923L75.5 365.883L74.5 365.883ZM74.5 415.923L74.5 414.923L60.28 414.923L60.28 415.923L60.28 416.923L74.5 416.923L74.5 415.923ZM60.28 415.923L61.28 415.923L61.28 365.883L60.28 365.883L59.28 365.883L59.28 415.923L60.28 415.923ZM60.28 365.883L60.28 364.883L12.22 364.883L12.22 365.883L12.22 366.883L60.28 366.883L60.28 365.883ZM12.22 365.883L11.22 365.883L11.22 427.263L12.22 427.263L13.22 427.263L13.22 365.883L12.22 365.883ZM12.22 427.263L12.22 426.263L-2.00002 426.263L-2.00002 427.263L-2.00002 428.263L12.22 428.263L12.22 427.263ZM-2.00002 427.263L-1.00002 427.263L-1.00002 349.323L-2.00002 349.323L-3.00002 349.323L-3.00002 427.263L-2.00002 427.263ZM0.879985 465.939L-0.0332692 465.531L-0.0355428 465.536L0.879985 465.939ZM15.1 445.779L15.7518 445.02L15.07 444.434L14.4151 445.05L15.1 445.779ZM26.62 455.679L27.3092 456.403L28.1105 455.641L27.2718 454.92L26.62 455.679ZM14.74 472.239L13.8356 471.812V471.812L14.74 472.239ZM16.18 512.379L16.9591 511.752L16.9513 511.742L16.18 512.379ZM42.82 516.699L42.2489 515.878L42.2371 515.886L42.2256 515.895L42.82 516.699ZM49.66 508.779L48.7997 508.269L48.7887 508.287L48.7785 508.306L49.66 508.779ZM55.24 497.619L54.324 497.217L54.3208 497.225L55.24 497.619ZM63.52 478.719L62.6051 478.315L62.604 478.317L63.52 478.719ZM70.36 466.299L69.5316 465.738L69.5243 465.749L70.36 466.299ZM115.36 457.299L114.788 458.119L114.797 458.125L115.36 457.299ZM127.78 472.059L126.879 472.492V472.492L127.78 472.059ZM127.78 515.259L126.87 514.845L126.867 514.851L127.78 515.259ZM116.08 532.179L115.449 532.954L116.131 533.509L116.769 532.904L116.08 532.179ZM105.46 523.539L104.721 522.865L104.008 523.647L104.829 524.314L105.46 523.539ZM114.28 510.039L113.377 509.61L113.37 509.623L113.364 509.637L114.28 510.039ZM112.48 475.479L111.683 476.082L111.685 476.085L112.48 475.479ZM88 472.059L87.3837 471.271L87.3733 471.279L87.3631 471.288L88 472.059ZM81.34 480.519L80.4456 480.071V480.071L81.34 480.519ZM76.48 490.779L75.5674 490.37L75.5622 490.382L76.48 490.779ZM68.38 509.499L67.4622 509.102L67.4608 509.105L68.38 509.499ZM60.64 523.179L59.8343 522.586L59.8262 522.597L60.64 523.179ZM49.48 533.079L49.9555 533.958V533.958L49.48 533.079ZM14.02 531.279L13.4819 532.122L13.49 532.127L14.02 531.279ZM0.519982 515.799L-0.38079 516.233L-0.377662 516.239L-0.374443 516.246L0.519982 515.799ZM-4.34002 491.859L-3.34002 491.859C-3.34002 482.626 -1.62435 474.124 1.7955 466.341L0.879985 465.939L-0.0355428 465.536C-3.57569 473.593 -5.34002 482.372 -5.34002 491.859L-4.34002 491.859ZM0.879985 465.939L1.79321 466.346C5.22122 458.663 9.88516 452.053 15.7849 446.507L15.1 445.779L14.4151 445.05C8.31481 450.784 3.49874 457.615 -0.033254 465.531L0.879985 465.939ZM15.1 445.779L14.4482 446.537L25.9682 456.437L26.62 455.679L27.2718 454.92L15.7518 445.02L15.1 445.779ZM26.62 455.679L25.9308 454.954C20.9181 459.722 16.8864 465.344 13.8356 471.812L14.74 472.239L15.6444 472.665C18.5936 466.413 22.4819 460.995 27.3092 456.403L26.62 455.679ZM14.74 472.239L13.8356 471.812C10.7744 478.302 9.23998 485.047 9.23998 492.039L10.24 492.039L11.24 492.039C11.24 485.35 12.7055 478.896 15.6444 472.665L14.74 472.239ZM10.24 492.039L9.23998 492.039C9.23998 500.938 11.2507 507.975 15.4086 513.015L16.18 512.379L16.9513 511.742C13.1893 507.182 11.24 500.66 11.24 492.039L10.24 492.039ZM16.18 512.379L15.401 513.006C19.5523 518.163 24.9997 520.759 31.66 520.759L31.66 519.759L31.66 518.759C25.6002 518.759 20.7276 516.434 16.959 511.752L16.18 512.379ZM31.66 519.759L31.66 520.759C36.4774 520.759 40.4295 519.709 43.4144 517.503L42.82 516.699L42.2256 515.895C39.6904 517.768 36.2025 518.759 31.66 518.759L31.66 519.759ZM42.82 516.699L43.391 517.52C46.297 515.498 48.677 512.731 50.5415 509.251L49.66 508.779L48.7785 508.306C47.043 511.546 44.863 514.059 42.2489 515.878L42.82 516.699ZM49.66 508.779L50.5203 509.288C52.4665 506.004 54.3455 502.244 56.1591 498.013L55.24 497.619L54.3208 497.225C52.5345 501.393 50.6935 505.073 48.7997 508.269L49.66 508.779ZM55.24 497.619L56.1559 498.02L64.4359 479.12L63.52 478.719L62.604 478.317L54.324 497.217L55.24 497.619ZM63.52 478.719L64.4349 479.122C66.21 475.099 68.4623 471.007 71.1957 466.848L70.36 466.299L69.5243 465.749C66.7376 469.99 64.43 474.179 62.6051 478.315L63.52 478.719ZM70.36 466.299L71.1883 466.859C73.8648 462.902 77.3598 459.578 81.6879 456.888L81.16 456.039L80.632 455.189C76.0802 458.019 72.3752 461.535 69.5317 465.738L70.36 466.299ZM81.16 456.039L81.6879 456.888C85.9382 454.246 91.146 452.899 97.36 452.899L97.36 451.899L97.36 450.899C90.8539 450.899 85.2617 452.311 80.632 455.189L81.16 456.039ZM97.36 451.899L97.36 452.899C104.014 452.899 109.81 454.646 114.788 458.119L115.36 457.299L115.932 456.479C110.59 452.751 104.386 450.899 97.36 450.899L97.36 451.899ZM115.36 457.299L114.797 458.125C119.919 461.618 123.948 466.397 126.879 472.492L127.78 472.059L128.681 471.625C125.612 465.241 121.361 460.18 115.923 456.472L115.36 457.299ZM127.78 472.059L126.879 472.492C129.804 478.577 131.28 485.565 131.28 493.479L132.28 493.479L133.28 493.479C133.28 485.313 131.756 478.021 128.681 471.625L127.78 472.059ZM132.28 493.479L131.28 493.479C131.28 501.269 129.805 508.386 126.87 514.845L127.78 515.259L128.69 515.672C131.755 508.931 133.28 501.528 133.28 493.479L132.28 493.479ZM127.78 515.259L126.867 514.851C123.914 521.465 120.086 526.993 115.391 531.454L116.08 532.179L116.769 532.904C121.674 528.244 125.646 522.492 128.693 515.666L127.78 515.259ZM116.08 532.179L116.711 531.403L106.091 522.763L105.46 523.539L104.829 524.314L115.449 532.954L116.08 532.179ZM105.46 523.539L106.199 524.212C109.99 520.054 112.991 515.463 115.196 510.441L114.28 510.039L113.364 509.637C111.249 514.454 108.37 518.863 104.721 522.865L105.46 523.539ZM114.28 510.039L115.183 510.468C117.537 505.512 118.7 499.841 118.7 493.479L117.7 493.479L116.7 493.479C116.7 499.596 115.583 504.965 113.377 509.61L114.28 510.039ZM117.7 493.479L118.7 493.479C118.7 485.885 116.923 479.652 113.275 474.872L112.48 475.479L111.685 476.085C114.997 480.425 116.7 486.192 116.7 493.479L117.7 493.479ZM112.48 475.479L113.277 474.875C109.716 470.17 104.793 467.819 98.62 467.819L98.62 468.819L98.62 469.819C104.207 469.819 108.524 471.908 111.683 476.082L112.48 475.479ZM98.62 468.819L98.62 467.819C94.1298 467.819 90.3574 468.944 87.3837 471.271L88 472.059L88.6163 472.846C91.1626 470.853 94.4701 469.819 98.62 469.819L98.62 468.819ZM88 472.059L87.3631 471.288C84.4903 473.661 82.1848 476.593 80.4456 480.071L81.34 480.519L82.2344 480.966C83.8552 477.724 85.9896 475.016 88.6369 472.83L88 472.059ZM81.34 480.519L80.4456 480.071C78.7592 483.444 77.1331 486.877 75.5675 490.37L76.48 490.779L77.3925 491.188C78.9468 487.72 80.5608 484.313 82.2344 480.966L81.34 480.519ZM76.48 490.779L75.5622 490.382L67.4622 509.102L68.38 509.499L69.2978 509.896L77.3978 491.176L76.48 490.779ZM68.38 509.499L67.4608 509.105C65.3285 514.08 62.7855 518.573 59.8343 522.586L60.64 523.179L61.4456 523.771C64.4945 519.625 67.1115 514.997 69.2991 509.893L68.38 509.499ZM60.64 523.179L59.8262 522.597C56.9127 526.676 53.3074 529.873 49.0045 532.199L49.48 533.079L49.9555 533.958C54.5326 531.484 58.3673 528.081 61.4537 523.76L60.64 523.179ZM49.48 533.079L49.0045 532.199C44.7462 534.501 39.4599 535.679 33.1 535.679L33.1 536.679L33.1 537.679C39.7001 537.679 45.3338 536.457 49.9555 533.958L49.48 533.079ZM33.1 536.679L33.1 535.679C26.3225 535.679 20.147 533.929 14.55 530.431L14.02 531.279L13.49 532.127C19.413 535.829 25.9574 537.679 33.1 537.679L33.1 536.679ZM14.02 531.279L14.558 530.436C9.08849 526.945 4.70374 521.93 1.41441 515.351L0.519982 515.799L-0.374443 516.246C3.05622 523.107 7.67146 528.413 13.4819 532.122L14.02 531.279ZM0.519982 515.799L1.42075 515.364C-1.74026 508.808 -3.34002 500.983 -3.34002 491.859L-4.34002 491.859L-5.34002 491.859C-5.34002 501.214 -3.69979 509.349 -0.38079 516.233L0.519982 515.799ZM0.87998 570.001L-0.0332738 569.594L-0.0355473 569.599L0.87998 570.001ZM15.1 549.841L15.7517 549.083L15.07 548.497L14.4151 549.113L15.1 549.841ZM26.62 559.741L27.3092 560.466L28.1105 559.704L27.2717 558.983L26.62 559.741ZM14.74 576.301L13.8355 575.875V575.875L14.74 576.301ZM16.18 616.441L16.959 615.814L16.9513 615.805L16.18 616.441ZM42.82 620.761L42.2489 619.94L42.2371 619.948L42.2256 619.957L42.82 620.761ZM49.66 612.841L48.7997 612.331L48.7887 612.35L48.7785 612.369L49.66 612.841ZM55.24 601.681L54.324 601.28L54.3208 601.287L55.24 601.681ZM63.52 582.781L62.6051 582.378L62.604 582.38L63.52 582.781ZM70.36 570.361L69.5316 569.801L69.5243 569.812L70.36 570.361ZM115.36 561.361L114.788 562.181L114.797 562.187L115.36 561.361ZM127.78 576.121L126.879 576.554V576.554L127.78 576.121ZM127.78 619.321L126.87 618.907L126.867 618.914L127.78 619.321ZM116.08 636.241L115.449 637.017L116.131 637.572L116.769 636.966L116.08 636.241ZM105.46 627.601L104.721 626.927L104.008 627.709L104.829 628.377L105.46 627.601ZM114.28 614.101L113.377 613.672L113.37 613.686L113.364 613.699L114.28 614.101ZM112.48 579.541L111.683 580.145L111.685 580.148L112.48 579.541ZM88 576.121L87.3837 575.334L87.3733 575.342L87.3631 575.35L88 576.121ZM81.34 584.581L80.4456 584.134V584.134L81.34 584.581ZM76.48 594.841L75.5674 594.432L75.5622 594.444L76.48 594.841ZM68.38 613.561L67.4622 613.164L67.4608 613.167L68.38 613.561ZM60.64 627.241L59.8342 626.649L59.8262 626.66L60.64 627.241ZM49.48 637.141L49.9555 638.021V638.021L49.48 637.141ZM14.02 635.341L13.4819 636.184L13.49 636.189L14.02 635.341ZM0.519977 619.861L-0.380795 620.295L-0.377667 620.302L-0.374447 620.308L0.519977 619.861ZM-4.34002 595.921L-3.34002 595.921C-3.34002 586.688 -1.62435 578.187 1.79549 570.403L0.87998 570.001L-0.0355473 569.599C-3.57569 577.656 -5.34002 586.434 -5.34002 595.921L-4.34002 595.921ZM0.87998 570.001L1.7932 570.409C5.22121 562.725 9.88515 556.116 15.7849 550.57L15.1 549.841L14.4151 549.113C8.31481 554.847 3.49874 561.677 -0.0332585 569.594L0.87998 570.001ZM15.1 549.841L14.4482 550.6L25.9682 560.5L26.62 559.741L27.2717 558.983L15.7517 549.083L15.1 549.841ZM26.62 559.741L25.9308 559.017C20.9181 563.785 16.8864 569.407 13.8355 575.875L14.74 576.301L15.6444 576.728C18.5936 570.476 22.4819 565.058 27.3092 560.466L26.62 559.741ZM14.74 576.301L13.8355 575.875C10.7744 582.364 9.23998 589.109 9.23998 596.101L10.24 596.101L11.24 596.101C11.24 589.413 12.7055 582.958 15.6444 576.728L14.74 576.301ZM10.24 596.101L9.23998 596.101C9.23998 605 11.2507 612.038 15.4086 617.078L16.18 616.441L16.9513 615.805C13.1893 611.245 11.24 604.722 11.24 596.101L10.24 596.101ZM16.18 616.441L15.401 617.068C19.5523 622.226 24.9997 624.821 31.66 624.821L31.66 623.821L31.66 622.821C25.6002 622.821 20.7276 620.496 16.959 615.814L16.18 616.441ZM31.66 623.821L31.66 624.821C36.4774 624.821 40.4295 623.772 43.4144 621.565L42.82 620.761L42.2256 619.957C39.6904 621.831 36.2025 622.821 31.66 622.821L31.66 623.821ZM42.82 620.761L43.391 621.582C46.297 619.561 48.677 616.794 50.5415 613.313L49.66 612.841L48.7785 612.369C47.043 615.609 44.863 618.122 42.2489 619.94L42.82 620.761ZM49.66 612.841L50.5203 613.351C52.4664 610.067 54.3455 606.307 56.1591 602.075L55.24 601.681L54.3208 601.287C52.5345 605.455 50.6935 609.136 48.7997 612.331L49.66 612.841ZM55.24 601.681L56.1559 602.082L64.4359 583.182L63.52 582.781L62.604 582.38L54.324 601.28L55.24 601.681ZM63.52 582.781L64.4349 583.185C66.21 579.161 68.4623 575.07 71.1957 570.91L70.36 570.361L69.5243 569.812C66.7376 574.052 64.43 578.241 62.6051 582.378L63.52 582.781ZM70.36 570.361L71.1883 570.922C73.8648 566.965 77.3598 563.641 81.6879 560.95L81.16 560.101L80.632 559.252C76.0802 562.081 72.3752 565.597 69.5317 569.801L70.36 570.361ZM81.16 560.101L81.6879 560.95C85.9382 558.308 91.146 556.961 97.36 556.961L97.36 555.961L97.36 554.961C90.8539 554.961 85.2617 556.374 80.632 559.252L81.16 560.101ZM97.36 555.961L97.36 556.961C104.014 556.961 109.81 558.709 114.788 562.181L115.36 561.361L115.932 560.541C110.59 556.814 104.386 554.961 97.36 554.961L97.36 555.961ZM115.36 561.361L114.797 562.187C119.919 565.68 123.948 570.459 126.879 576.554L127.78 576.121L128.681 575.688C125.612 569.303 121.361 564.242 115.923 560.535L115.36 561.361ZM127.78 576.121L126.879 576.554C129.804 582.639 131.28 589.627 131.28 597.541L132.28 597.541L133.28 597.541C133.28 589.375 131.756 582.083 128.681 575.688L127.78 576.121ZM132.28 597.541L131.28 597.541C131.28 605.332 129.805 612.449 126.87 618.907L127.78 619.321L128.69 619.735C131.755 612.993 133.28 605.591 133.28 597.541L132.28 597.541ZM127.78 619.321L126.867 618.914C123.914 625.527 120.086 631.056 115.391 635.516L116.08 636.241L116.769 636.966C121.674 632.307 125.646 626.555 128.693 619.729L127.78 619.321ZM116.08 636.241L116.711 635.465L106.091 626.825L105.46 627.601L104.829 628.377L115.449 637.017L116.08 636.241ZM105.46 627.601L106.199 628.275C109.99 624.117 112.991 619.526 115.196 614.503L114.28 614.101L113.364 613.699C111.249 618.517 108.37 622.926 104.721 626.927L105.46 627.601ZM114.28 614.101L115.183 614.53C117.537 609.575 118.7 603.904 118.7 597.541L117.7 597.541L116.7 597.541C116.7 603.658 115.583 609.028 113.377 613.672L114.28 614.101ZM117.7 597.541L118.7 597.541C118.7 589.947 116.923 583.714 113.275 578.935L112.48 579.541L111.685 580.148C114.997 584.488 116.7 590.255 116.7 597.541L117.7 597.541ZM112.48 579.541L113.277 578.938C109.716 574.232 104.793 571.881 98.62 571.881L98.62 572.881L98.62 573.881C104.207 573.881 108.524 575.97 111.683 580.145L112.48 579.541ZM98.62 572.881L98.62 571.881C94.1298 571.881 90.3574 573.006 87.3837 575.334L88 576.121L88.6163 576.909C91.1626 574.916 94.4701 573.881 98.62 573.881L98.62 572.881ZM88 576.121L87.3631 575.35C84.4903 577.723 82.1848 580.656 80.4456 584.134L81.34 584.581L82.2344 585.028C83.8552 581.787 85.9896 579.079 88.6369 576.892L88 576.121ZM81.34 584.581L80.4456 584.134C78.7592 587.507 77.1331 590.939 75.5675 594.432L76.48 594.841L77.3925 595.25C78.9468 591.783 80.5608 588.376 82.2344 585.028L81.34 584.581ZM76.48 594.841L75.5622 594.444L67.4622 613.164L68.38 613.561L69.2977 613.958L77.3977 595.238L76.48 594.841ZM68.38 613.561L67.4608 613.167C65.3285 618.143 62.7855 622.635 59.8343 626.649L60.64 627.241L61.4456 627.834C64.4945 623.687 67.1115 619.06 69.2991 613.955L68.38 613.561ZM60.64 627.241L59.8262 626.66C56.9127 630.739 53.3074 633.936 49.0045 636.261L49.48 637.141L49.9555 638.021C54.5326 635.547 58.3673 632.143 61.4537 627.822L60.64 627.241ZM49.48 637.141L49.0045 636.261C44.7462 638.563 39.4599 639.741 33.1 639.741L33.1 640.741L33.1 641.741C39.7001 641.741 45.3338 640.519 49.9555 638.021L49.48 637.141ZM33.1 640.741L33.1 639.741C26.3225 639.741 20.147 637.991 14.55 634.493L14.02 635.341L13.49 636.189C19.413 639.891 25.9574 641.741 33.1 641.741L33.1 640.741ZM14.02 635.341L14.558 634.498C9.08849 631.007 4.70374 625.993 1.4144 619.414L0.519977 619.861L-0.374447 620.308C3.05622 627.17 7.67145 632.475 13.4819 636.184L14.02 635.341ZM0.519977 619.861L1.42075 619.427C-1.74026 612.871 -3.34002 605.046 -3.34002 595.921L-4.34002 595.921L-5.34002 595.921C-5.34002 605.276 -3.69979 613.412 -0.380795 620.295L0.519977 619.861Z" fill="url(#paint0_linear_313_576)" fill-opacity="0.4" mask="url(#path-1-outside-1_313_576)"/>
<defs>
<linearGradient id="paint0_linear_313_576" x1="-20" y1="324.674" x2="160" y2="324.674" gradientUnits="userSpaceOnUse">
<stop offset="0.379808" stop-color="white"/>
<stop offset="1" stop-color="white" stop-opacity="0"/>
</linearGradient>
</defs>
</svg>
