<svg width="134" height="1116" viewBox="0 0 134 1116" fill="none" xmlns="http://www.w3.org/2000/svg">
<mask id="path-1-outside-1_313_169" maskUnits="userSpaceOnUse" x="-0.660206" y="-12" width="140" height="1128" fill="black">
<rect fill="white" x="-0.660206" y="-12" width="140" height="1128"/>
<path d="M0.999841 35.72C0.999842 26.36 2.73984 17.72 6.21984 9.8C9.69984 1.99999 14.4398 -4.72001 20.4398 -10.36L31.9598 -0.460004C27.0398 4.21999 23.0798 9.73999 20.0798 16.1C17.0798 22.46 15.5798 29.06 15.5798 35.9C15.5798 44.66 17.5598 51.44 21.5198 56.24C25.4798 61.16 30.6398 63.62 36.9998 63.62C41.6798 63.62 45.3998 62.6 48.1598 60.56C50.9198 58.64 53.1998 56 54.9998 52.64C56.9198 49.4 58.7798 45.68 60.5798 41.48L68.8598 22.58C70.6598 18.5 72.9398 14.36 75.6998 10.16C78.4598 6.08 82.0598 2.66 86.4998 -0.100003C90.9398 -2.86 96.3398 -4.24 102.7 -4.24C109.54 -4.24 115.54 -2.44 120.7 1.16C125.98 4.76 130.12 9.68 133.12 15.92C136.12 22.16 137.62 29.3 137.62 37.34C137.62 45.26 136.12 52.52 133.12 59.12C130.12 65.84 126.22 71.48 121.42 76.04L110.8 67.4C114.52 63.32 117.46 58.82 119.62 53.9C121.9 49.1 123.04 43.58 123.04 37.34C123.04 29.9 121.3 23.9 117.82 19.34C114.46 14.9 109.84 12.68 103.96 12.68C99.6398 12.68 96.0998 13.76 93.3398 15.92C90.5798 18.2 88.3598 21.02 86.6798 24.38C84.9998 27.74 83.3798 31.16 81.8198 34.64L73.7198 53.36C71.5598 58.4 68.9798 62.96 65.9798 67.04C62.9798 71.24 59.2598 74.54 54.8198 76.94C50.3798 79.34 44.9198 80.54 38.4398 80.54C31.4798 80.54 25.1198 78.74 19.3598 75.14C13.7198 71.54 9.21984 66.38 5.85984 59.66C2.61984 52.94 0.999841 44.96 0.999841 35.72ZM0.999836 153.207C0.999836 146.487 1.95984 140.247 3.87984 134.487C5.79984 128.727 8.97984 123.687 13.4198 119.367C17.8598 115.167 23.7398 111.867 31.0598 109.467C38.3798 107.067 47.2598 105.867 57.6998 105.867L135.28 105.867L135.28 122.427L57.3398 122.427C46.7798 122.427 38.4398 123.807 32.3198 126.567C26.3198 129.327 21.9998 132.987 19.3598 137.547C16.8398 142.227 15.5798 147.447 15.5798 153.207C15.5798 159.087 16.8398 164.367 19.3598 169.047C21.9998 173.727 26.3198 177.447 32.3198 180.207C38.4398 183.087 46.7798 184.527 57.3398 184.527L135.28 184.527L135.28 200.547L57.6998 200.547C47.2598 200.547 38.3798 199.347 31.0598 196.947C23.7398 194.667 17.8598 191.367 13.4198 187.047C8.97984 182.727 5.79984 177.687 3.87984 171.927C1.95984 166.167 0.999836 159.927 0.999836 153.207ZM3.33983 236.133L135.28 236.133L135.28 273.753C135.28 283.593 134.02 292.233 131.5 299.673C129.1 307.113 125.08 312.873 119.44 316.953C113.8 321.033 106.18 323.073 96.5798 323.073C87.3398 323.073 79.7198 321.033 73.7198 316.953C67.7198 312.873 63.2198 307.173 60.2198 299.853C57.3398 292.533 55.8998 284.073 55.8998 274.473L55.8998 252.693L3.33983 252.693L3.33983 236.133ZM69.3998 252.693L69.3998 272.313C69.3998 283.833 71.5598 292.413 75.8798 298.053C80.1998 303.693 87.0998 306.513 96.5798 306.513C106.18 306.513 112.78 303.573 116.38 297.693C119.98 291.933 121.78 283.233 121.78 271.593L121.78 252.693L69.3998 252.693ZM3.33983 350.039L135.28 350.039L135.28 425.999L121.24 425.999L121.24 366.599L79.8398 366.599L79.8398 416.639L65.6198 416.639L65.6198 366.599L17.5598 366.599L17.5598 427.979L3.33982 427.979L3.33983 350.039ZM3.33982 456.035L135.28 456.035L135.28 497.255C135.28 506.255 134.08 514.175 131.68 521.015C129.4 527.975 125.56 533.435 120.16 537.395C114.76 541.355 107.5 543.335 98.3798 543.335C89.6198 543.335 82.2998 541.355 76.4198 537.395C70.6598 533.435 66.3398 527.975 63.4598 521.015C60.6998 514.175 59.3198 506.255 59.3198 497.255L59.3198 472.595L3.33982 472.595L3.33982 456.035ZM72.6398 472.595L72.6398 494.735C72.6398 505.055 74.7398 512.975 78.9398 518.495C83.2598 524.015 89.7398 526.775 98.3798 526.775C107.02 526.775 113.08 524.015 116.56 518.495C120.04 512.975 121.78 505.055 121.78 494.735L121.78 472.595L72.6398 472.595ZM3.33982 528.395L63.6398 493.835L72.4598 506.975L3.33982 547.115L3.33982 528.395ZM3.33982 595.116L135.28 552.996L135.28 570.456L63.8198 591.876C56.1398 594.156 48.8798 596.196 42.0398 597.996C35.3198 599.916 28.0598 602.136 20.2598 604.656L20.2598 605.376C28.0598 607.896 35.3198 610.056 42.0398 611.856C48.8798 613.776 56.1398 615.876 63.8198 618.156L135.28 639.396L135.28 656.316L3.33982 614.376L3.33982 595.116ZM3.33981 674.532L135.28 674.532L135.28 691.092L3.33981 691.092L3.33981 674.532ZM0.999809 763.806C0.99981 754.446 2.73981 745.806 6.21981 737.886C9.69981 730.086 14.4398 723.366 20.4398 717.726L31.9598 727.626C27.0398 732.306 23.0798 737.826 20.0798 744.186C17.0798 750.546 15.5798 757.146 15.5798 763.986C15.5798 772.746 17.5598 779.526 21.5198 784.326C25.4798 789.246 30.6398 791.706 36.9998 791.706C41.6798 791.706 45.3998 790.686 48.1598 788.646C50.9198 786.726 53.1998 784.086 54.9998 780.726C56.9198 777.486 58.7798 773.766 60.5798 769.566L68.8598 750.666C70.6598 746.586 72.9398 742.446 75.6998 738.246C78.4598 734.166 82.0598 730.746 86.4998 727.986C90.9398 725.226 96.3398 723.846 102.7 723.846C109.54 723.846 115.54 725.646 120.7 729.246C125.98 732.846 130.12 737.766 133.12 744.006C136.12 750.246 137.62 757.386 137.62 765.426C137.62 773.346 136.12 780.606 133.12 787.206C130.12 793.926 126.22 799.566 121.42 804.126L110.8 795.486C114.52 791.406 117.46 786.906 119.62 781.986C121.9 777.186 123.04 771.666 123.04 765.426C123.04 757.986 121.3 751.986 117.82 747.426C114.46 742.986 109.84 740.766 103.96 740.766C99.6398 740.766 96.0998 741.846 93.3398 744.006C90.5798 746.286 88.3598 749.106 86.6798 752.466C84.9998 755.826 83.3798 759.246 81.8198 762.726L73.7198 781.446C71.5598 786.486 68.9798 791.046 65.9798 795.126C62.9798 799.326 59.2598 802.626 54.8198 805.026C50.3798 807.426 44.9198 808.626 38.4398 808.626C31.4798 808.626 25.1198 806.826 19.3598 803.226C13.7198 799.626 9.21981 794.466 5.85981 787.746C2.61981 781.026 0.999809 773.046 0.999809 763.806ZM3.33981 834.492L135.28 834.492L135.28 851.052L3.33981 851.052L3.33981 834.492ZM0.999802 935.827C0.999802 924.787 3.7598 915.007 9.2798 906.487C14.9198 898.087 22.8998 891.487 33.2198 886.687C43.5398 881.887 55.7198 879.487 69.7598 879.487C83.9198 879.487 96.0398 881.887 106.12 886.687C116.32 891.487 124.12 898.087 129.52 906.487C134.92 915.007 137.62 924.787 137.62 935.827C137.62 946.867 134.86 956.587 129.34 964.987C123.94 973.507 116.2 980.167 106.12 984.967C96.0398 989.767 83.9198 992.167 69.7598 992.167C55.7198 992.167 43.5398 989.767 33.2198 984.967C22.8998 980.167 14.9198 973.507 9.2798 964.987C3.7598 956.587 0.999801 946.867 0.999802 935.827ZM15.5798 935.827C15.5798 943.747 17.7998 950.647 22.2398 956.527C26.6798 962.407 32.9798 966.967 41.1398 970.207C49.2998 973.447 58.8398 975.067 69.7598 975.067C80.7998 975.067 90.2798 973.447 98.1998 970.207C106.24 966.967 112.36 962.407 116.56 956.527C120.88 950.647 123.04 943.747 123.04 935.827C123.04 928.027 120.88 921.127 116.56 915.127C112.36 909.247 106.24 904.687 98.1998 901.447C90.2798 898.207 80.7998 896.587 69.7598 896.587C58.8398 896.587 49.2998 898.207 41.1398 901.447C32.9798 904.687 26.6798 909.247 22.2398 915.127C17.7998 921.127 15.5798 928.027 15.5798 935.827ZM3.3398 1020.82L135.28 1020.82L135.28 1037.74L52.1198 1085.98L24.9398 1100.2L24.9398 1101.1C31.5398 1100.5 38.4398 1099.96 45.6398 1099.48C52.8398 1099 59.8598 1098.76 66.6998 1098.76L135.28 1098.76L135.28 1114.6L3.33979 1114.6L3.33979 1097.5L86.6798 1049.44L113.68 1035.22L113.68 1034.5C107.08 1034.86 100.3 1035.28 93.3398 1035.76C86.4998 1036.24 79.5998 1036.48 72.6398 1036.48L3.3398 1036.48L3.3398 1020.82Z"/>
</mask>
<path d="M6.21985 9.79999L5.30659 9.39255L5.30432 9.39772L6.21985 9.79999ZM20.4398 -10.36L21.0916 -11.1184L20.4099 -11.7043L19.7549 -11.0886L20.4398 -10.36ZM31.9598 -0.460005L32.6491 0.264553L33.4503 -0.497641L32.6116 -1.21842L31.9598 -0.460005ZM20.0798 16.1L19.1754 15.6734V15.6734L20.0798 16.1ZM21.5198 56.24L22.2989 55.6129L22.2912 55.6036L21.5198 56.24ZM48.1598 60.56L47.5888 59.7391L47.577 59.7473L47.5655 59.7558L48.1598 60.56ZM54.9998 52.64L54.1396 52.1302L54.1286 52.1488L54.1184 52.1678L54.9998 52.64ZM60.5798 41.48L59.6639 41.0787L59.6607 41.0861L60.5798 41.48ZM68.8598 22.58L67.9449 22.1764L67.9439 22.1787L68.8598 22.58ZM75.6998 10.16L74.8715 9.59964L74.8641 9.61082L75.6998 10.16ZM120.7 1.16L120.128 1.98017L120.137 1.98623L120.7 1.16ZM133.12 15.92L132.219 16.3533V16.3533L133.12 15.92ZM133.12 59.12L132.209 58.7062L132.207 58.7123L133.12 59.12ZM121.42 76.04L120.789 76.8157L121.471 77.3707L122.109 76.765L121.42 76.04ZM110.8 67.4L110.061 66.7262L109.348 67.508L110.169 68.1757L110.8 67.4ZM119.62 53.9L118.717 53.4709L118.71 53.4844L118.704 53.498L119.62 53.9ZM117.82 19.34L117.022 19.9434L117.025 19.9467L117.82 19.34ZM93.3398 15.92L92.7235 15.1325L92.7131 15.1406L92.703 15.149L93.3398 15.92ZM86.6798 24.38L85.7854 23.9328V23.9328L86.6798 24.38ZM81.8198 34.64L80.9073 34.2309L80.9021 34.2429L81.8198 34.64ZM73.7198 53.36L72.8021 52.9629L72.8007 52.9661L73.7198 53.36ZM65.9798 67.04L65.1741 66.4476L65.1661 66.4588L65.9798 67.04ZM54.8198 76.94L55.2954 77.8197V77.8197L54.8198 76.94ZM19.3598 75.14L18.8218 75.983L18.8298 75.988L19.3598 75.14ZM5.85984 59.66L4.95907 60.0943L4.9622 60.1008L4.96542 60.1072L5.85984 59.66ZM0.999845 35.72L1.99985 35.72C1.99985 26.487 3.71551 17.9854 7.13536 10.2023L6.21985 9.79999L5.30432 9.39772C1.76417 17.4546 -0.000154565 26.233 -0.00015498 35.72L0.999845 35.72ZM6.21985 9.79999L7.13307 10.2074C10.5611 2.52398 15.225 -4.08562 21.1248 -9.63138L20.4398 -10.36L19.7549 -11.0886C13.6547 -5.35439 8.83861 1.47601 5.30661 9.39255L6.21985 9.79999ZM20.4398 -10.36L19.7881 -9.60159L31.3081 0.298414L31.9598 -0.460005L32.6116 -1.21842L21.0916 -11.1184L20.4398 -10.36ZM31.9598 -0.460005L31.2706 -1.18456C26.2579 3.58363 22.2262 9.20567 19.1754 15.6734L20.0798 16.1L20.9843 16.5266C23.9335 10.2743 27.8218 4.85636 32.6491 0.264553L31.9598 -0.460005ZM20.0798 16.1L19.1754 15.6734C16.1143 22.1629 14.5798 28.9083 14.5798 35.9L15.5798 35.9L16.5798 35.9C16.5798 29.2117 18.0454 22.7571 20.9843 16.5266L20.0798 16.1ZM15.5798 35.9L14.5798 35.9C14.5798 44.7989 16.5906 51.8365 20.7485 56.8764L21.5198 56.24L22.2912 55.6036C18.5291 51.0435 16.5798 44.5211 16.5798 35.9L15.5798 35.9ZM21.5198 56.24L20.7408 56.867C24.8922 62.0248 30.3396 64.62 36.9998 64.62L36.9998 63.62L36.9998 62.62C30.9401 62.62 26.0675 60.2952 22.2989 55.613L21.5198 56.24ZM36.9998 63.62L36.9998 64.62C41.8173 64.62 45.7694 63.5704 48.7542 61.3642L48.1598 60.56L47.5655 59.7558C45.0303 61.6296 41.5424 62.62 36.9998 62.62L36.9998 63.62ZM48.1598 60.56L48.7309 61.3809C51.6368 59.3594 54.0169 56.5926 55.8813 53.1122L54.9998 52.64L54.1184 52.1678C52.3828 55.4074 50.2028 57.9206 47.5888 59.7391L48.1598 60.56ZM54.9998 52.64L55.8601 53.1498C57.8063 49.8656 59.6854 46.1057 61.499 41.8739L60.5798 41.48L59.6607 41.0861C57.8743 45.2543 56.0334 48.9344 54.1396 52.1302L54.9998 52.64ZM60.5798 41.48L61.4958 41.8813L69.7758 22.9813L68.8598 22.58L67.9439 22.1787L59.6639 41.0787L60.5798 41.48ZM68.8598 22.58L69.7748 22.9836C71.5498 18.9602 73.8022 14.8687 76.5356 10.7092L75.6998 10.16L74.8641 9.61082C72.0775 13.8513 69.7699 18.0398 67.9449 22.1764L68.8598 22.58ZM75.6998 10.16L76.5281 10.7203C79.2046 6.76371 82.6996 3.43975 87.0278 0.749283L86.4998 -0.100002L85.9719 -0.949289C81.4201 1.88024 77.715 5.39628 74.8716 9.59969L75.6998 10.16ZM86.4998 -0.100002L87.0278 0.749283C91.2781 -1.8928 96.4859 -3.24 102.7 -3.24L102.7 -4.24L102.7 -5.24C96.1938 -5.24 90.6016 -3.82721 85.9719 -0.949289L86.4998 -0.100002ZM102.7 -4.24L102.7 -3.24C109.354 -3.24 115.15 -1.49251 120.128 1.98013L120.7 1.16L121.272 0.339872C115.929 -3.3875 109.726 -5.24 102.7 -5.24L102.7 -4.24ZM120.7 1.16L120.137 1.98623C125.259 5.47903 129.288 10.2581 132.219 16.3533L133.12 15.92L134.021 15.4867C130.952 9.10194 126.7 4.04097 121.263 0.333771L120.7 1.16ZM133.12 15.92L132.219 16.3533C135.144 22.4379 136.62 29.4259 136.62 37.34L137.62 37.34L138.62 37.34C138.62 29.1741 137.096 21.8821 134.021 15.4867L133.12 15.92ZM137.62 37.34L136.62 37.34C136.62 45.1306 135.145 52.2478 132.209 58.7062L133.12 59.12L134.03 59.5338C137.095 52.7922 138.62 45.3894 138.62 37.34L137.62 37.34ZM133.12 59.12L132.207 58.7123C129.254 65.3262 125.426 70.8546 120.731 75.315L121.42 76.04L122.109 76.765C127.013 72.1054 130.986 66.3538 134.033 59.5277L133.12 59.12ZM121.42 76.04L122.051 75.2643L111.431 66.6243L110.8 67.4L110.169 68.1757L120.789 76.8157L121.42 76.04ZM110.8 67.4L111.539 68.0738C115.33 63.9156 118.331 59.3243 120.535 54.302L119.62 53.9L118.704 53.498C116.589 58.3157 113.71 62.7244 110.061 66.7262L110.8 67.4ZM119.62 53.9L120.523 54.3291C122.877 49.3736 124.04 43.7027 124.04 37.34L123.04 37.34L122.04 37.34C122.04 43.4573 120.923 48.8264 118.717 53.4709L119.62 53.9ZM123.04 37.34L124.04 37.34C124.04 29.7462 122.263 23.5133 118.615 18.7333L117.82 19.34L117.025 19.9467C120.337 24.2867 122.04 30.0538 122.04 37.34L123.04 37.34ZM117.82 19.34L118.617 18.7366C115.056 14.0309 110.133 11.68 103.96 11.68L103.96 12.68L103.96 13.68C109.547 13.68 113.863 15.7691 117.022 19.9434L117.82 19.34ZM103.96 12.68L103.96 11.68C99.4697 11.68 95.6973 12.8052 92.7235 15.1325L93.3398 15.92L93.9562 16.7075C96.5024 14.7148 99.81 13.68 103.96 13.68L103.96 12.68ZM93.3398 15.92L92.703 15.149C89.8302 17.5222 87.5246 20.4544 85.7854 23.9328L86.6798 24.38L87.5743 24.8272C89.1951 21.5856 91.3295 18.8778 93.9767 16.691L93.3398 15.92ZM86.6798 24.38L85.7854 23.9328C84.099 27.3056 82.473 30.7383 80.9073 34.2309L81.8198 34.64L82.7324 35.0491C84.2867 31.5817 85.9007 28.1744 87.5743 24.8272L86.6798 24.38ZM81.8198 34.64L80.9021 34.2429L72.8021 52.9629L73.7198 53.36L74.6376 53.7571L82.7376 35.0371L81.8198 34.64ZM73.7198 53.36L72.8007 52.9661C70.6684 57.9416 68.1253 62.4341 65.1742 66.4476L65.9798 67.04L66.7855 67.6324C69.8344 63.4859 72.4513 58.8584 74.639 53.7539L73.7198 53.36ZM65.9798 67.04L65.1661 66.4588C62.2526 70.5377 58.6472 73.7344 54.3443 76.0603L54.8198 76.94L55.2954 77.8197C59.8725 75.3456 63.7071 71.9423 66.7936 67.6212L65.9798 67.04ZM54.8198 76.94L54.3443 76.0603C50.0861 78.3621 44.7997 79.54 38.4398 79.54L38.4398 80.54L38.4398 81.54C45.04 81.54 50.6736 80.3179 55.2954 77.8197L54.8198 76.94ZM38.4398 80.54L38.4398 79.54C31.6624 79.54 25.4868 77.7901 19.8898 74.292L19.3598 75.14L18.8298 75.988C24.7529 79.6899 31.2973 81.54 38.4398 81.54L38.4398 80.54ZM19.3598 75.14L19.8979 74.2971C14.4284 70.8059 10.0436 65.7914 6.75427 59.2128L5.85984 59.66L4.96542 60.1072C8.39608 66.9686 13.0113 72.2741 18.8218 75.9829L19.3598 75.14ZM5.85984 59.66L6.76062 59.2257C3.59961 52.6695 1.99984 44.8447 1.99985 35.72L0.999845 35.72L-0.00015498 35.72C-0.000155389 45.0753 1.64007 53.2104 4.95907 60.0943L5.85984 59.66ZM3.87983 134.487L2.93116 134.17V134.17L3.87983 134.487ZM13.4198 119.367L12.7326 118.64L12.7225 118.65L13.4198 119.367ZM31.0598 109.467L31.3714 110.417V110.417L31.0598 109.467ZM135.28 105.867L136.28 105.867L136.28 104.867L135.28 104.867L135.28 105.867ZM135.28 122.427L135.28 123.427L136.28 123.427L136.28 122.427L135.28 122.427ZM32.3198 126.567L31.9087 125.655L31.9019 125.658L32.3198 126.567ZM19.3598 137.547L18.4944 137.046L18.4867 137.059L18.4794 137.072L19.3598 137.547ZM19.3598 169.047L18.4794 169.521L18.484 169.529L18.4889 169.538L19.3598 169.047ZM32.3198 180.207L32.7457 179.302L32.7377 179.298L32.3198 180.207ZM135.28 184.527L136.28 184.527L136.28 183.527L135.28 183.527L135.28 184.527ZM135.28 200.547L135.28 201.547L136.28 201.547L136.28 200.547L135.28 200.547ZM31.0598 196.947L31.3714 195.996L31.3643 195.994L31.3572 195.992L31.0598 196.947ZM3.87983 171.927L2.93116 172.243V172.243L3.87983 171.927ZM0.99984 153.207L1.99984 153.207C1.99984 146.583 2.94593 140.451 4.82852 134.803L3.87983 134.487L2.93116 134.17C0.973733 140.043 -0.000159817 146.39 -0.000160115 153.207L0.99984 153.207ZM3.87983 134.487L4.82852 134.803C6.69691 129.198 9.78936 124.294 14.1172 120.083L13.4198 119.367L12.7225 118.65C8.17031 123.079 4.90276 128.255 2.93116 134.17L3.87983 134.487ZM13.4198 119.367L14.107 120.093C18.4157 116.017 24.1562 112.782 31.3714 110.417L31.0598 109.467L30.7483 108.516C23.3235 110.951 17.3039 114.316 12.7326 118.64L13.4198 119.367ZM31.0598 109.467L31.3714 110.417C38.5623 108.059 47.3307 106.867 57.6998 106.867L57.6998 105.867L57.6998 104.867C47.189 104.867 38.1974 106.074 30.7483 108.516L31.0598 109.467ZM57.6998 105.867L57.6998 106.867L135.28 106.867L135.28 105.867L135.28 104.867L57.6998 104.867L57.6998 105.867ZM135.28 105.867L134.28 105.867L134.28 122.427L135.28 122.427L136.28 122.427L136.28 105.867L135.28 105.867ZM135.28 122.427L135.28 121.427L57.3398 121.427L57.3398 122.427L57.3398 123.427L135.28 123.427L135.28 122.427ZM57.3398 122.427L57.3398 121.427C46.7106 121.427 38.2108 122.813 31.9087 125.655L32.3198 126.567L32.731 127.478C38.6689 124.8 46.8491 123.427 57.3398 123.427L57.3398 122.427ZM32.3198 126.567L31.9019 125.658C25.7622 128.482 21.2615 132.266 18.4944 137.046L19.3598 137.547L20.2253 138.048C22.7382 133.707 26.8775 130.171 32.7377 127.475L32.3198 126.567ZM19.3598 137.547L18.4794 137.072C15.8744 141.91 14.5798 147.295 14.5798 153.207L15.5798 153.207L16.5798 153.207C16.5798 147.598 17.8052 142.543 20.2403 138.021L19.3598 137.547ZM15.5798 153.207L14.5798 153.207C14.5798 159.234 15.8728 164.68 18.4794 169.521L19.3598 169.047L20.2403 168.572C17.8068 164.053 16.5798 158.939 16.5798 153.207L15.5798 153.207ZM19.3598 169.047L18.4889 169.538C21.254 174.44 25.7553 178.288 31.9019 181.115L32.3198 180.207L32.7377 179.298C26.8844 176.606 22.7457 173.013 20.2308 168.555L19.3598 169.047ZM32.3198 180.207L31.894 181.111C38.2011 184.079 46.7068 185.527 57.3398 185.527L57.3398 184.527L57.3398 183.527C46.8529 183.527 38.6786 182.094 32.7456 179.302L32.3198 180.207ZM57.3398 184.527L57.3398 185.527L135.28 185.527L135.28 184.527L135.28 183.527L57.3398 183.527L57.3398 184.527ZM135.28 184.527L134.28 184.527L134.28 200.547L135.28 200.547L136.28 200.547L136.28 184.527L135.28 184.527ZM135.28 200.547L135.28 199.547L57.6998 199.547L57.6998 200.547L57.6998 201.547L135.28 201.547L135.28 200.547ZM57.6998 200.547L57.6998 199.547C47.3307 199.547 38.5622 198.354 31.3714 195.996L31.0598 196.947L30.7483 197.897C38.1974 200.339 47.189 201.547 57.6998 201.547L57.6998 200.547ZM31.0598 196.947L31.3572 195.992C24.1524 193.748 18.4208 190.517 14.1172 186.33L13.4198 187.047L12.7225 187.763C17.2989 192.216 23.3273 195.585 30.7625 197.901L31.0598 196.947ZM13.4198 187.047L14.1172 186.33C9.78936 182.119 6.69691 177.215 4.82851 171.61L3.87983 171.927L2.93116 172.243C4.90276 178.158 8.17031 183.334 12.7225 187.763L13.4198 187.047ZM3.87983 171.927L4.82851 171.61C2.94593 165.963 1.99984 159.83 1.99984 153.207L0.99984 153.207L-0.000160115 153.207C-0.000160413 160.023 0.973732 166.371 2.93116 172.243L3.87983 171.927ZM3.33983 236.133L3.33983 235.133L2.33983 235.133L2.33983 236.133L3.33983 236.133ZM135.28 236.133L136.28 236.133L136.28 235.133L135.28 235.133L135.28 236.133ZM131.5 299.673L130.553 299.352L130.55 299.359L130.548 299.366L131.5 299.673ZM119.44 316.953L118.854 316.143V316.143L119.44 316.953ZM73.7198 316.953L74.2821 316.126V316.126L73.7198 316.953ZM60.2198 299.853L59.2892 300.219L59.2945 300.232L60.2198 299.853ZM55.8998 252.693L56.8998 252.693L56.8998 251.693L55.8998 251.693L55.8998 252.693ZM3.33983 252.693L2.33983 252.693L2.33983 253.693L3.33983 253.693L3.33983 252.693ZM69.3998 252.693L69.3998 251.693L68.3998 251.693L68.3998 252.693L69.3998 252.693ZM75.8798 298.053L76.6737 297.445V297.445L75.8798 298.053ZM116.38 297.693L115.532 297.163L115.527 297.171L116.38 297.693ZM121.78 252.693L122.78 252.693L122.78 251.693L121.78 251.693L121.78 252.693ZM3.33983 236.133L3.33983 237.133L135.28 237.133L135.28 236.133L135.28 235.133L3.33983 235.133L3.33983 236.133ZM135.28 236.133L134.28 236.133L134.28 273.753L135.28 273.753L136.28 273.753L136.28 236.133L135.28 236.133ZM135.28 273.753L134.28 273.753C134.28 283.51 133.03 292.038 130.553 299.352L131.5 299.673L132.447 299.994C135.01 292.428 136.28 283.676 136.28 273.753L135.28 273.753ZM131.5 299.673L130.548 299.366C128.205 306.63 124.301 312.203 118.854 316.143L119.44 316.953L120.026 317.763C125.859 313.544 129.995 307.596 132.452 299.98L131.5 299.673ZM119.44 316.953L118.854 316.143C113.438 320.061 106.047 322.073 96.5798 322.073L96.5798 323.073L96.5798 324.073C106.312 324.073 114.162 322.006 120.026 317.763L119.44 316.953ZM96.5798 323.073L96.5798 322.073C87.4857 322.073 80.0762 320.066 74.2821 316.126L73.7198 316.953L73.1575 317.78C79.3635 322 87.194 324.073 96.5798 324.073L96.5798 323.073ZM73.7198 316.953L74.2821 316.126C68.4591 312.167 64.0777 306.629 61.1451 299.474L60.2198 299.853L59.2945 300.232C62.362 307.717 66.9806 313.58 73.1575 317.78L73.7198 316.953ZM60.2198 299.853L61.1504 299.487C58.3252 292.306 56.8998 283.975 56.8998 274.473L55.8998 274.473L54.8998 274.473C54.8998 284.172 56.3545 292.76 59.2893 300.219L60.2198 299.853ZM55.8998 274.473L56.8998 274.473L56.8998 252.693L55.8998 252.693L54.8998 252.693L54.8998 274.473L55.8998 274.473ZM55.8998 252.693L55.8998 251.693L3.33983 251.693L3.33983 252.693L3.33983 253.693L55.8998 253.693L55.8998 252.693ZM3.33983 252.693L4.33983 252.693L4.33983 236.133L3.33983 236.133L2.33983 236.133L2.33983 252.693L3.33983 252.693ZM69.3998 252.693L68.3998 252.693L68.3998 272.313L69.3998 272.313L70.3998 272.313L70.3998 252.693L69.3998 252.693ZM69.3998 272.313L68.3998 272.313C68.3998 283.927 70.5718 292.768 75.086 298.661L75.8798 298.053L76.6737 297.445C72.5479 292.059 70.3998 283.739 70.3998 272.313L69.3998 272.313ZM75.8798 298.053L75.086 298.661C79.6544 304.626 86.901 307.513 96.5798 307.513L96.5798 306.513L96.5798 305.513C87.2986 305.513 80.7453 302.761 76.6737 297.445L75.8798 298.053ZM96.5798 306.513L96.5798 307.513C106.377 307.513 113.384 304.502 117.233 298.215L116.38 297.693L115.527 297.171C112.176 302.645 105.983 305.513 96.5798 305.513L96.5798 306.513ZM116.38 297.693L117.228 298.223C120.975 292.227 122.78 283.303 122.78 271.593L121.78 271.593L120.78 271.593C120.78 283.164 118.984 291.639 115.532 297.163L116.38 297.693ZM121.78 271.593L122.78 271.593L122.78 252.693L121.78 252.693L120.78 252.693L120.78 271.593L121.78 271.593ZM121.78 252.693L121.78 251.693L69.3998 251.693L69.3998 252.693L69.3998 253.693L121.78 253.693L121.78 252.693ZM3.33983 350.039L3.33983 349.039L2.33983 349.039L2.33983 350.039L3.33983 350.039ZM135.28 350.039L136.28 350.039L136.28 349.039L135.28 349.039L135.28 350.039ZM135.28 425.999L135.28 426.999L136.28 426.999L136.28 425.999L135.28 425.999ZM121.24 425.999L120.24 425.999L120.24 426.999L121.24 426.999L121.24 425.999ZM121.24 366.599L122.24 366.599L122.24 365.599L121.24 365.599L121.24 366.599ZM79.8398 366.599L79.8398 365.599L78.8398 365.599L78.8398 366.599L79.8398 366.599ZM79.8398 416.639L79.8398 417.639L80.8398 417.639L80.8398 416.639L79.8398 416.639ZM65.6198 416.639L64.6198 416.639L64.6198 417.639L65.6198 417.639L65.6198 416.639ZM65.6198 366.599L66.6198 366.599L66.6198 365.599L65.6198 365.599L65.6198 366.599ZM17.5598 366.599L17.5598 365.599L16.5598 365.599L16.5598 366.599L17.5598 366.599ZM17.5598 427.979L17.5598 428.979L18.5598 428.979L18.5598 427.979L17.5598 427.979ZM3.33982 427.979L2.33982 427.979L2.33982 428.979L3.33982 428.979L3.33982 427.979ZM3.33983 350.039L3.33983 351.039L135.28 351.039L135.28 350.039L135.28 349.039L3.33983 349.039L3.33983 350.039ZM135.28 350.039L134.28 350.039L134.28 425.999L135.28 425.999L136.28 425.999L136.28 350.039L135.28 350.039ZM135.28 425.999L135.28 424.999L121.24 424.999L121.24 425.999L121.24 426.999L135.28 426.999L135.28 425.999ZM121.24 425.999L122.24 425.999L122.24 366.599L121.24 366.599L120.24 366.599L120.24 425.999L121.24 425.999ZM121.24 366.599L121.24 365.599L79.8398 365.599L79.8398 366.599L79.8398 367.599L121.24 367.599L121.24 366.599ZM79.8398 366.599L78.8398 366.599L78.8398 416.639L79.8398 416.639L80.8398 416.639L80.8398 366.599L79.8398 366.599ZM79.8398 416.639L79.8398 415.639L65.6198 415.639L65.6198 416.639L65.6198 417.639L79.8398 417.639L79.8398 416.639ZM65.6198 416.639L66.6198 416.639L66.6198 366.599L65.6198 366.599L64.6198 366.599L64.6198 416.639L65.6198 416.639ZM65.6198 366.599L65.6198 365.599L17.5598 365.599L17.5598 366.599L17.5598 367.599L65.6198 367.599L65.6198 366.599ZM17.5598 366.599L16.5598 366.599L16.5598 427.979L17.5598 427.979L18.5598 427.979L18.5598 366.599L17.5598 366.599ZM17.5598 427.979L17.5598 426.979L3.33982 426.979L3.33982 427.979L3.33982 428.979L17.5598 428.979L17.5598 427.979ZM3.33982 427.979L4.33982 427.979L4.33983 350.039L3.33983 350.039L2.33983 350.039L2.33982 427.979L3.33982 427.979ZM3.33982 456.035L3.33982 455.035L2.33982 455.035L2.33982 456.035L3.33982 456.035ZM135.28 456.035L136.28 456.035L136.28 455.035L135.28 455.035L135.28 456.035ZM131.68 521.016L130.736 520.684L130.733 520.694L130.73 520.704L131.68 521.016ZM120.16 537.396L120.751 538.202V538.202L120.16 537.396ZM76.4198 537.396L75.8533 538.22L75.8612 538.225L76.4198 537.396ZM63.4598 521.015L62.5324 521.39L62.5358 521.398L63.4598 521.015ZM59.3198 472.595L60.3198 472.595L60.3198 471.595L59.3198 471.595L59.3198 472.595ZM3.33982 472.595L2.33982 472.595L2.33982 473.595L3.33982 473.595L3.33982 472.595ZM72.6398 472.595L72.6398 471.595L71.6398 471.595L71.6398 472.595L72.6398 472.595ZM78.9398 518.495L78.1439 519.101L78.1523 519.112L78.9398 518.495ZM116.56 518.495L115.714 517.962V517.962L116.56 518.495ZM121.78 472.595L122.78 472.595L122.78 471.595L121.78 471.595L121.78 472.595ZM3.33982 528.395L2.84257 527.528L2.33982 527.816L2.33982 528.395L3.33982 528.395ZM63.6398 493.835L64.4701 493.278L63.9509 492.505L63.1426 492.968L63.6398 493.835ZM72.4598 506.975L72.962 507.84L73.8849 507.304L73.2901 506.418L72.4598 506.975ZM3.33982 547.115L2.33982 547.115L2.33982 548.853L3.84202 547.98L3.33982 547.115ZM3.33982 456.035L3.33982 457.035L135.28 457.035L135.28 456.035L135.28 455.035L3.33982 455.035L3.33982 456.035ZM135.28 456.035L134.28 456.035L134.28 497.255L135.28 497.255L136.28 497.255L136.28 456.035L135.28 456.035ZM135.28 497.255L134.28 497.255C134.28 506.169 133.091 513.973 130.736 520.684L131.68 521.016L132.623 521.347C135.069 514.378 136.28 506.342 136.28 497.255L135.28 497.255ZM131.68 521.016L130.73 520.704C128.508 527.485 124.784 532.764 119.568 536.589L120.16 537.396L120.751 538.202C126.335 534.107 130.292 528.466 132.63 521.327L131.68 521.016ZM120.16 537.396L119.568 536.589C114.392 540.385 107.363 542.335 98.3798 542.335L98.3798 543.335L98.3798 544.335C107.637 544.335 115.127 542.326 120.751 538.202L120.16 537.396ZM98.3798 543.335L98.3798 542.335C89.7716 542.335 82.6581 540.391 76.9784 536.566L76.4198 537.396L75.8612 538.225C81.9415 542.32 89.468 544.335 98.3798 544.335L98.3798 543.335ZM76.4198 537.396L76.9863 536.571C71.3982 532.73 67.1959 527.429 64.3838 520.633L63.4598 521.015L62.5358 521.398C65.4838 528.522 69.9215 534.141 75.8533 538.219L76.4198 537.396ZM63.4598 521.015L64.3872 520.641C61.6845 513.943 60.3198 506.155 60.3198 497.255L59.3198 497.255L58.3198 497.255C58.3198 506.356 59.7152 514.408 62.5325 521.39L63.4598 521.015ZM59.3198 497.255L60.3198 497.255L60.3198 472.595L59.3198 472.595L58.3198 472.595L58.3198 497.255L59.3198 497.255ZM59.3198 472.595L59.3198 471.595L3.33982 471.595L3.33982 472.595L3.33982 473.595L59.3198 473.595L59.3198 472.595ZM3.33982 472.595L4.33982 472.595L4.33982 456.035L3.33982 456.035L2.33982 456.035L2.33982 472.595L3.33982 472.595ZM72.6398 472.595L71.6398 472.595L71.6398 494.735L72.6398 494.735L73.6398 494.735L73.6398 472.595L72.6398 472.595ZM72.6398 494.735L71.6398 494.735C71.6398 505.172 73.7608 513.34 78.144 519.101L78.9398 518.495L79.7356 517.89C75.7188 512.611 73.6398 504.939 73.6398 494.735L72.6398 494.735ZM78.9398 518.495L78.1523 519.112C82.7058 524.93 89.5114 527.775 98.3798 527.775L98.3798 526.775L98.3798 525.775C89.9683 525.775 83.8139 523.101 79.7273 517.879L78.9398 518.495ZM98.3798 526.775L98.3798 527.775C107.238 527.775 113.685 524.931 117.406 519.029L116.56 518.495L115.714 517.962C112.475 523.1 106.801 525.775 98.3798 525.775L98.3798 526.775ZM116.56 518.495L117.406 519.029C121.029 513.281 122.78 505.144 122.78 494.735L121.78 494.735L120.78 494.735C120.78 504.967 119.051 512.669 115.714 517.962L116.56 518.495ZM121.78 494.735L122.78 494.735L122.78 472.595L121.78 472.595L120.78 472.595L120.78 494.735L121.78 494.735ZM121.78 472.595L121.78 471.595L72.6398 471.595L72.6398 472.595L72.6398 473.595L121.78 473.595L121.78 472.595ZM3.33982 528.395L3.83707 529.263L64.1371 494.703L63.6398 493.835L63.1426 492.968L2.84257 527.528L3.33982 528.395ZM63.6398 493.835L62.8095 494.393L71.6295 507.533L72.4598 506.975L73.2901 506.418L64.4701 493.278L63.6398 493.835ZM72.4598 506.975L71.9576 506.111L2.83762 546.251L3.33982 547.115L3.84202 547.98L72.962 507.84L72.4598 506.975ZM3.33982 547.115L4.33982 547.115L4.33982 528.395L3.33982 528.395L2.33982 528.395L2.33982 547.115L3.33982 547.115ZM3.33982 595.116L3.03569 594.164L2.33982 594.386L2.33982 595.116L3.33982 595.116ZM135.28 552.996L136.28 552.996L136.28 551.627L134.976 552.044L135.28 552.996ZM135.28 570.456L135.567 571.414L136.28 571.201L136.28 570.456L135.28 570.456ZM63.8198 591.876L64.1044 592.835L64.107 592.834L63.8198 591.876ZM42.0398 597.996L41.7853 597.029L41.7752 597.032L41.7651 597.035L42.0398 597.996ZM20.2598 604.656L19.9524 603.705L19.2598 603.929L19.2598 604.656L20.2598 604.656ZM20.2598 605.376L19.2598 605.376L19.2598 606.104L19.9524 606.328L20.2598 605.376ZM42.0398 611.856L42.3101 610.894L42.2986 610.89L42.0398 611.856ZM63.8198 618.156L64.1047 617.198L64.1044 617.198L63.8198 618.156ZM135.28 639.396L136.28 639.396L136.28 638.65L135.565 638.438L135.28 639.396ZM135.28 656.316L134.977 657.269L136.28 657.684L136.28 656.316L135.28 656.316ZM3.33982 614.376L2.33982 614.376L2.33982 615.108L3.03688 615.329L3.33982 614.376ZM3.33982 595.116L3.64394 596.069L135.584 553.949L135.28 552.996L134.976 552.044L3.03569 594.164L3.33982 595.116ZM135.28 552.996L134.28 552.996L134.28 570.456L135.28 570.456L136.28 570.456L136.28 552.996L135.28 552.996ZM135.28 570.456L134.993 569.499L63.5327 590.919L63.8198 591.876L64.107 592.834L135.567 571.414L135.28 570.456ZM63.8198 591.876L63.5352 590.918C55.8639 593.195 48.614 595.232 41.7853 597.029L42.0398 597.996L42.2943 598.963C49.1456 597.161 56.4157 595.118 64.1044 592.835L63.8198 591.876ZM42.0398 597.996L41.7651 597.035C35.0325 598.958 27.7614 601.182 19.9524 603.705L20.2598 604.656L20.5672 605.608C28.3582 603.091 35.6072 600.874 42.3145 598.958L42.0398 597.996ZM20.2598 604.656L19.2598 604.656L19.2598 605.376L20.2598 605.376L21.2598 605.376L21.2598 604.656L20.2598 604.656ZM20.2598 605.376L19.9524 606.328C27.7658 608.852 35.0422 611.017 41.7811 612.822L42.0398 611.856L42.2986 610.89C35.5975 609.096 28.3539 606.941 20.5672 604.425L20.2598 605.376ZM42.0398 611.856L41.7696 612.819C48.6042 614.738 55.8594 616.836 63.5352 619.115L63.8198 618.156L64.1044 617.198C56.4202 614.916 49.1554 612.815 42.3101 610.894L42.0398 611.856ZM63.8198 618.156L63.5349 619.115L134.995 640.355L135.28 639.396L135.565 638.438L64.1047 617.198L63.8198 618.156ZM135.28 639.396L134.28 639.396L134.28 656.316L135.28 656.316L136.28 656.316L136.28 639.396L135.28 639.396ZM135.28 656.316L135.583 655.363L3.64275 613.423L3.33982 614.376L3.03688 615.329L134.977 657.269L135.28 656.316ZM3.33982 614.376L4.33982 614.376L4.33982 595.116L3.33982 595.116L2.33982 595.116L2.33982 614.376L3.33982 614.376ZM3.33981 674.532L3.33981 673.532L2.33981 673.532L2.33981 674.532L3.33981 674.532ZM135.28 674.532L136.28 674.532L136.28 673.532L135.28 673.532L135.28 674.532ZM135.28 691.092L135.28 692.092L136.28 692.092L136.28 691.092L135.28 691.092ZM3.33981 691.092L2.33981 691.092L2.33981 692.092L3.33981 692.092L3.33981 691.092ZM3.33981 674.532L3.33981 675.532L135.28 675.532L135.28 674.532L135.28 673.532L3.33981 673.532L3.33981 674.532ZM135.28 674.532L134.28 674.532L134.28 691.092L135.28 691.092L136.28 691.092L136.28 674.532L135.28 674.532ZM135.28 691.092L135.28 690.092L3.33981 690.092L3.33981 691.092L3.33981 692.092L135.28 692.092L135.28 691.092ZM3.33981 691.092L4.33981 691.092L4.33981 674.532L3.33981 674.532L2.33981 674.532L2.33981 691.092L3.33981 691.092ZM6.21982 737.886L5.30656 737.479L5.30429 737.484L6.21982 737.886ZM20.4398 717.726L21.0916 716.968L20.4098 716.382L19.7549 716.997L20.4398 717.726ZM31.9598 727.626L32.649 728.351L33.4503 727.588L32.6116 726.867L31.9598 727.626ZM20.0798 744.186L19.1754 743.759V743.759L20.0798 744.186ZM21.5198 784.326L22.2989 783.699L22.2912 783.69L21.5198 784.326ZM48.1598 788.646L47.5887 787.825L47.577 787.833L47.5654 787.842L48.1598 788.646ZM54.9998 780.726L54.1395 780.216L54.1285 780.235L54.1183 780.254L54.9998 780.726ZM60.5798 769.566L59.6638 769.165L59.6607 769.172L60.5798 769.566ZM68.8598 750.666L67.9449 750.262L67.9439 750.265L68.8598 750.666ZM75.6998 738.246L74.8715 737.686L74.8641 737.697L75.6998 738.246ZM120.7 729.246L120.128 730.066L120.136 730.072L120.7 729.246ZM133.12 744.006L132.219 744.439V744.439L133.12 744.006ZM133.12 787.206L132.209 786.792L132.207 786.798L133.12 787.206ZM121.42 804.126L120.789 804.902L121.471 805.457L122.109 804.851L121.42 804.126ZM110.8 795.486L110.061 794.812L109.348 795.594L110.169 796.262L110.8 795.486ZM119.62 781.986L118.717 781.557L118.71 781.57L118.704 781.584L119.62 781.986ZM117.82 747.426L117.022 748.029L117.025 748.033L117.82 747.426ZM93.3398 744.006L92.7235 743.218L92.7131 743.227L92.7029 743.235L93.3398 744.006ZM86.6798 752.466L85.7854 752.019V752.019L86.6798 752.466ZM81.8198 762.726L80.9072 762.317L80.902 762.329L81.8198 762.726ZM73.7198 781.446L72.802 781.049L72.8007 781.052L73.7198 781.446ZM65.9798 795.126L65.1741 794.534L65.1661 794.545L65.9798 795.126ZM54.8198 805.026L55.2953 805.906V805.906L54.8198 805.026ZM19.3598 803.226L18.8217 804.069L18.8298 804.074L19.3598 803.226ZM5.85981 787.746L4.95904 788.18L4.96217 788.187L4.96539 788.193L5.85981 787.746ZM0.999813 763.806L1.99981 763.806C1.99981 754.573 3.71548 746.071 7.13533 738.288L6.21982 737.886L5.30429 737.484C1.76414 745.541 -0.000186391 754.319 -0.000186805 763.806L0.999813 763.806ZM6.21982 737.886L7.13304 738.293C10.561 730.61 15.225 724 21.1247 718.455L20.4398 717.726L19.7549 716.997C13.6546 722.732 8.83858 729.562 5.30658 737.479L6.21982 737.886ZM20.4398 717.726L19.7881 718.484L31.308 728.384L31.9598 727.626L32.6116 726.867L21.0916 716.968L20.4398 717.726ZM31.9598 727.626L31.2706 726.901C26.2579 731.67 22.2262 737.292 19.1754 743.759L20.0798 744.186L20.9843 744.613C23.9334 738.36 27.8217 732.942 32.649 728.351L31.9598 727.626ZM20.0798 744.186L19.1754 743.759C16.1143 750.249 14.5798 756.994 14.5798 763.986L15.5798 763.986L16.5798 763.986C16.5798 757.298 18.0454 750.843 20.9843 744.613L20.0798 744.186ZM15.5798 763.986L14.5798 763.986C14.5798 772.885 16.5905 779.922 20.7484 784.962L21.5198 784.326L22.2912 783.69C18.5291 779.129 16.5798 772.607 16.5798 763.986L15.5798 763.986ZM21.5198 784.326L20.7408 784.953C24.8922 790.111 30.3395 792.706 36.9998 792.706L36.9998 791.706L36.9998 790.706C30.9401 790.706 26.0675 788.381 22.2988 783.699L21.5198 784.326ZM36.9998 791.706L36.9998 792.706C41.8173 792.706 45.7694 791.656 48.7542 789.45L48.1598 788.646L47.5654 787.842C45.0302 789.716 41.5424 790.706 36.9998 790.706L36.9998 791.706ZM48.1598 788.646L48.7309 789.467C51.6368 787.445 54.0168 784.679 55.8813 781.198L54.9998 780.726L54.1183 780.254C52.3828 783.493 50.2028 786.007 47.5887 787.825L48.1598 788.646ZM54.9998 780.726L55.8601 781.236C57.8063 777.952 59.6853 774.192 61.499 769.96L60.5798 769.566L59.6607 769.172C57.8743 773.34 56.0333 777.02 54.1395 780.216L54.9998 780.726ZM60.5798 769.566L61.4958 769.967L69.7758 751.067L68.8598 750.666L67.9439 750.265L59.6639 769.165L60.5798 769.566ZM68.8598 750.666L69.7747 751.07C71.5498 747.046 73.8021 742.955 76.5355 738.795L75.6998 738.246L74.8641 737.697C72.0775 741.937 69.7698 746.126 67.9449 750.262L68.8598 750.666ZM75.6998 738.246L76.5281 738.806C79.2046 734.85 82.6996 731.526 87.0277 728.835L86.4998 727.986L85.9719 727.137C81.42 729.966 77.715 733.482 74.8715 737.686L75.6998 738.246ZM86.4998 727.986L87.0277 728.835C91.2781 726.193 96.4859 724.846 102.7 724.846L102.7 723.846L102.7 722.846C96.1938 722.846 90.6016 724.259 85.9719 727.137L86.4998 727.986ZM102.7 723.846L102.7 724.846C109.354 724.846 115.15 726.593 120.128 730.066L120.7 729.246L121.272 728.426C115.929 724.698 109.726 722.846 102.7 722.846L102.7 723.846ZM120.7 729.246L120.136 730.072C125.259 733.565 129.288 738.344 132.219 744.439L133.12 744.006L134.021 743.573C130.951 737.188 126.7 732.127 121.263 728.42L120.7 729.246ZM133.12 744.006L132.219 744.439C135.144 750.524 136.62 757.512 136.62 765.426L137.62 765.426L138.62 765.426C138.62 757.26 137.096 749.968 134.021 743.573L133.12 744.006ZM137.62 765.426L136.62 765.426C136.62 773.217 135.145 780.334 132.209 786.792L133.12 787.206L134.03 787.62C137.095 780.878 138.62 773.475 138.62 765.426L137.62 765.426ZM133.12 787.206L132.207 786.798C129.254 793.412 125.426 798.941 120.731 803.401L121.42 804.126L122.109 804.851C127.013 800.191 130.986 794.44 134.033 787.614L133.12 787.206ZM121.42 804.126L122.051 803.35L111.431 794.71L110.8 795.486L110.169 796.262L120.789 804.902L121.42 804.126ZM110.8 795.486L111.539 796.16C115.33 792.002 118.331 787.41 120.535 782.388L119.62 781.986L118.704 781.584C116.589 786.402 113.71 790.81 110.061 794.812L110.8 795.486ZM119.62 781.986L120.523 782.415C122.877 777.46 124.04 771.789 124.04 765.426L123.04 765.426L122.04 765.426C122.04 771.543 120.923 776.912 118.717 781.557L119.62 781.986ZM123.04 765.426L124.04 765.426C124.04 757.832 122.263 751.599 118.615 746.819L117.82 747.426L117.025 748.033C120.337 752.373 122.04 758.14 122.04 765.426L123.04 765.426ZM117.82 747.426L118.617 746.823C115.056 742.117 110.133 739.766 103.96 739.766L103.96 740.766L103.96 741.766C109.547 741.766 113.863 743.855 117.022 748.029L117.82 747.426ZM103.96 740.766L103.96 739.766C99.4697 739.766 95.6972 740.891 92.7235 743.218L93.3398 744.006L93.9561 744.793C96.5024 742.801 99.8099 741.766 103.96 741.766L103.96 740.766ZM93.3398 744.006L92.7029 743.235C89.8302 745.608 87.5246 748.54 85.7854 752.019L86.6798 752.466L87.5742 752.913C89.195 749.672 91.3295 746.964 93.9767 744.777L93.3398 744.006ZM86.6798 752.466L85.7854 752.019C84.099 755.391 82.473 758.824 80.9073 762.317L81.8198 762.726L82.7323 763.135C84.2867 759.668 85.9006 756.26 87.5742 752.913L86.6798 752.466ZM81.8198 762.726L80.902 762.329L72.802 781.049L73.7198 781.446L74.6376 781.843L82.7376 763.123L81.8198 762.726ZM73.7198 781.446L72.8007 781.052C70.6683 786.027 68.1253 790.52 65.1742 794.534L65.9798 795.126L66.7855 795.718C69.8343 791.572 72.4513 786.944 74.639 781.84L73.7198 781.446ZM65.9798 795.126L65.1661 794.545C62.2525 798.624 58.6472 801.82 54.3443 804.146L54.8198 805.026L55.2953 805.906C59.8724 803.432 63.7071 800.028 66.7935 795.707L65.9798 795.126ZM54.8198 805.026L54.3443 804.146C50.086 806.448 44.7997 807.626 38.4398 807.626L38.4398 808.626L38.4398 809.626C45.0399 809.626 50.6736 808.404 55.2953 805.906L54.8198 805.026ZM38.4398 808.626L38.4398 807.626C31.6623 807.626 25.4868 805.876 19.8898 802.378L19.3598 803.226L18.8298 804.074C24.7528 807.776 31.2973 809.626 38.4398 809.626L38.4398 808.626ZM19.3598 803.226L19.8978 802.383C14.4283 798.892 10.0436 793.877 6.75424 787.299L5.85981 787.746L4.96539 788.193C8.39605 795.054 13.0113 800.36 18.8218 804.069L19.3598 803.226ZM5.85981 787.746L6.76058 787.312C3.59957 780.755 1.99981 772.931 1.99981 763.806L0.999813 763.806L-0.000186805 763.806C-0.000187214 773.161 1.64004 781.296 4.95904 788.18L5.85981 787.746ZM3.33981 834.492L3.33981 833.492L2.33981 833.492L2.33981 834.492L3.33981 834.492ZM135.28 834.492L136.28 834.492L136.28 833.492L135.28 833.492L135.28 834.492ZM135.28 851.052L135.28 852.052L136.28 852.052L136.28 851.052L135.28 851.052ZM3.33981 851.052L2.33981 851.052L2.33981 852.052L3.33981 852.052L3.33981 851.052ZM3.33981 834.492L3.33981 835.492L135.28 835.492L135.28 834.492L135.28 833.492L3.33981 833.492L3.33981 834.492ZM135.28 834.492L134.28 834.492L134.28 851.052L135.28 851.052L136.28 851.052L136.28 834.492L135.28 834.492ZM135.28 851.052L135.28 850.052L3.33981 850.052L3.33981 851.052L3.33981 852.052L135.28 852.052L135.28 851.052ZM3.33981 851.052L4.33981 851.052L4.33981 834.492L3.33981 834.492L2.33981 834.492L2.33981 851.052L3.33981 851.052ZM9.27981 906.487L8.44958 905.929L8.44501 905.936L8.44056 905.943L9.27981 906.487ZM33.2198 886.687L32.7981 885.78L33.2198 886.687ZM106.12 886.687L105.69 887.59L105.694 887.592L106.12 886.687ZM129.52 906.487L130.364 905.952L130.361 905.946L129.52 906.487ZM129.34 964.987L128.504 964.438L128.5 964.445L128.495 964.452L129.34 964.987ZM106.12 984.967L106.55 985.87V985.87L106.12 984.967ZM33.2198 984.967L32.7981 985.874V985.874L33.2198 984.967ZM9.2798 964.987L8.44409 965.536L8.44594 965.539L9.2798 964.987ZM22.2398 956.527L21.4418 957.13V957.13L22.2398 956.527ZM41.1398 970.207L40.7708 971.136V971.136L41.1398 970.207ZM98.1998 970.207L97.826 969.279L97.8212 969.281L98.1998 970.207ZM116.56 956.527L115.754 955.935L115.746 955.946L116.56 956.527ZM116.56 915.127L115.746 915.708L115.748 915.711L116.56 915.127ZM98.1998 901.447L97.8212 902.372L97.826 902.374L98.1998 901.447ZM41.1398 901.447L40.7708 900.517V900.517L41.1398 901.447ZM22.2398 915.127L21.4417 914.524L21.436 914.532L22.2398 915.127ZM0.999806 935.827L1.99981 935.827C1.99981 924.962 4.71314 915.375 10.1191 907.031L9.27981 906.487L8.44056 905.943C2.80646 914.639 -0.000193834 924.612 -0.000194325 935.827L0.999806 935.827ZM9.27981 906.487L10.11 907.044C15.636 898.814 23.4658 892.326 33.6415 887.594L33.2198 886.687L32.7981 885.78C22.3338 890.647 14.2036 897.36 8.44958 905.929L9.27981 906.487ZM33.2198 886.687L33.6415 887.594C43.8023 882.868 55.8323 880.487 69.7598 880.487L69.7598 879.487L69.7598 878.487C55.6073 878.487 43.2773 880.906 32.7981 885.78L33.2198 886.687ZM69.7598 879.487L69.7598 880.487C83.8097 880.487 95.7752 882.868 105.69 887.59L106.12 886.687L106.55 885.784C96.3044 880.905 84.0299 878.487 69.7598 878.487L69.7598 879.487ZM106.12 886.687L105.694 887.592C115.747 892.322 123.393 898.805 128.679 907.028L129.52 906.487L130.361 905.946C124.847 897.368 116.893 890.651 106.546 885.782L106.12 886.687ZM129.52 906.487L128.675 907.022C133.964 915.367 136.62 924.958 136.62 935.827L137.62 935.827L138.62 935.827C138.62 924.616 135.875 914.647 130.364 905.952L129.52 906.487ZM137.62 935.827L136.62 935.827C136.62 946.692 133.906 956.217 128.504 964.438L129.34 964.987L130.176 965.536C135.813 956.957 138.62 947.042 138.62 935.827L137.62 935.827ZM129.34 964.987L128.495 964.452C123.207 972.796 115.619 979.336 105.69 984.064L106.12 984.967L106.55 985.87C116.781 980.998 124.673 974.218 130.184 965.522L129.34 964.987ZM106.12 984.967L105.69 984.064C95.7752 988.785 83.8097 991.167 69.7598 991.167L69.7598 992.167L69.7598 993.167C84.0299 993.167 96.3044 990.748 106.55 985.87L106.12 984.967ZM69.7598 992.167L69.7598 991.167C55.8323 991.167 43.8023 988.786 33.6415 984.06L33.2198 984.967L32.7981 985.874C43.2773 990.748 55.6073 993.167 69.7598 993.167L69.7598 992.167ZM33.2198 984.967L33.6415 984.06C23.4694 979.329 15.6404 972.784 10.1137 964.435L9.2798 964.987L8.44594 965.539C14.1993 974.23 22.3302 981.005 32.7981 985.874L33.2198 984.967ZM9.2798 964.987L10.1155 964.438C4.71315 956.217 1.99981 946.692 1.99981 935.827L0.999806 935.827L-0.000194325 935.827C-0.000194815 947.042 2.80645 956.957 8.44409 965.536L9.2798 964.987ZM15.5798 935.827L14.5798 935.827C14.5798 943.947 16.8606 951.063 21.4418 957.13L22.2398 956.527L23.0378 955.924C18.739 950.231 16.5798 943.547 16.5798 935.827L15.5798 935.827ZM22.2398 956.527L21.4418 957.13C26.0117 963.182 32.4734 967.842 40.7708 971.136L41.1398 970.207L41.5088 969.277C33.4862 966.092 27.3479 961.632 23.0378 955.924L22.2398 956.527ZM41.1398 970.207L40.7708 971.136C49.073 974.433 58.7432 976.067 69.7598 976.067L69.7598 975.067L69.7598 974.067C58.9364 974.067 49.5266 972.461 41.5088 969.277L41.1398 970.207ZM69.7598 975.067L69.7598 976.067C80.8937 976.067 90.5089 974.434 98.5784 971.132L98.1998 970.207L97.8212 969.281C90.0507 972.46 80.7059 974.067 69.7598 974.067L69.7598 975.067ZM98.1998 970.207L98.5736 971.134C106.755 967.838 113.042 963.172 117.374 957.108L116.56 956.527L115.746 955.946C111.677 961.642 105.725 966.096 97.826 969.279L98.1998 970.207ZM116.56 956.527L117.366 957.119C121.823 951.052 124.04 943.941 124.04 935.827L123.04 935.827L122.04 935.827C122.04 943.553 119.937 950.241 115.754 955.935L116.56 956.527ZM123.04 935.827L124.04 935.827C124.04 927.829 121.821 920.722 117.371 914.543L116.56 915.127L115.748 915.711C119.939 921.531 122.04 928.224 122.04 935.827L123.04 935.827ZM116.56 915.127L117.374 914.546C113.042 908.482 106.755 903.816 98.5736 900.519L98.1998 901.447L97.826 902.374C105.725 905.558 111.677 910.012 115.746 915.708L116.56 915.127ZM98.1998 901.447L98.5784 900.521C90.5089 897.22 80.8937 895.587 69.7598 895.587L69.7598 896.587L69.7598 897.587C80.7059 897.587 90.0507 899.194 97.8212 902.372L98.1998 901.447ZM69.7598 896.587L69.7598 895.587C58.7432 895.587 49.073 897.221 40.7708 900.517L41.1398 901.447L41.5088 902.376C49.5266 899.193 58.9364 897.587 69.7598 897.587L69.7598 896.587ZM41.1398 901.447L40.7708 900.517C32.4734 903.812 26.0117 908.472 21.4418 914.524L22.2398 915.127L23.0378 915.729C27.348 910.021 33.4862 905.562 41.5088 902.376L41.1398 901.447ZM22.2398 915.127L21.436 914.532C16.8626 920.712 14.5798 927.823 14.5798 935.827L15.5798 935.827L16.5798 935.827C16.5798 928.231 18.737 921.541 23.0436 915.722L22.2398 915.127ZM3.3398 1020.82L3.3398 1019.82L2.3398 1019.82L2.3398 1020.82L3.3398 1020.82ZM135.28 1020.82L136.28 1020.82L136.28 1019.82L135.28 1019.82L135.28 1020.82ZM135.28 1037.74L135.782 1038.61L136.28 1038.32L136.28 1037.74L135.28 1037.74ZM52.1198 1085.98L52.5834 1086.87L52.6027 1086.86L52.6216 1086.85L52.1198 1085.98ZM24.9398 1100.2L24.4762 1099.31L23.9398 1099.6L23.9398 1100.2L24.9398 1100.2ZM24.9398 1101.1L23.9398 1101.1L23.9398 1102.2L25.0303 1102.1L24.9398 1101.1ZM135.28 1098.76L136.28 1098.76L136.28 1097.76L135.28 1097.76L135.28 1098.76ZM135.28 1114.6L135.28 1115.6L136.28 1115.6L136.28 1114.6L135.28 1114.6ZM3.33979 1114.6L2.33979 1114.6L2.33979 1115.6L3.33979 1115.6L3.33979 1114.6ZM3.33979 1097.5L2.84024 1096.63L2.33979 1096.92L2.33979 1097.5L3.33979 1097.5ZM86.6798 1049.44L86.2138 1048.56L86.1969 1048.56L86.1802 1048.57L86.6798 1049.44ZM113.68 1035.22L114.146 1036.11L114.68 1035.82L114.68 1035.22L113.68 1035.22ZM113.68 1034.5L114.68 1034.5L114.68 1033.44L113.625 1033.5L113.68 1034.5ZM93.3398 1035.76L93.271 1034.76L93.2698 1034.76L93.3398 1035.76ZM3.3398 1036.48L2.3398 1036.48L2.3398 1037.48L3.3398 1037.48L3.3398 1036.48ZM3.3398 1020.82L3.3398 1021.82L135.28 1021.82L135.28 1020.82L135.28 1019.82L3.3398 1019.82L3.3398 1020.82ZM135.28 1020.82L134.28 1020.82L134.28 1037.74L135.28 1037.74L136.28 1037.74L136.28 1020.82L135.28 1020.82ZM135.28 1037.74L134.778 1036.88L51.618 1085.12L52.1198 1085.98L52.6216 1086.85L135.782 1038.61L135.28 1037.74ZM52.1198 1085.98L51.6562 1085.09L24.4762 1099.31L24.9398 1100.2L25.4034 1101.09L52.5834 1086.87L52.1198 1085.98ZM24.9398 1100.2L23.9398 1100.2L23.9398 1101.1L24.9398 1101.1L25.9398 1101.1L25.9398 1100.2L24.9398 1100.2ZM24.9398 1101.1L25.0303 1102.1C31.6217 1101.5 38.5136 1100.96 45.7063 1100.48L45.6398 1099.48L45.5733 1098.48C38.366 1098.96 31.4579 1099.5 24.8493 1100.1L24.9398 1101.1ZM45.6398 1099.48L45.7063 1100.48C52.8854 1100 59.8832 1099.76 66.6998 1099.76L66.6998 1098.76L66.6998 1097.76C59.8364 1097.76 52.7942 1098 45.5733 1098.48L45.6398 1099.48ZM66.6998 1098.76L66.6998 1099.76L135.28 1099.76L135.28 1098.76L135.28 1097.76L66.6998 1097.76L66.6998 1098.76ZM135.28 1098.76L134.28 1098.76L134.28 1114.6L135.28 1114.6L136.28 1114.6L136.28 1098.76L135.28 1098.76ZM135.28 1114.6L135.28 1113.6L3.33979 1113.6L3.33979 1114.6L3.33979 1115.6L135.28 1115.6L135.28 1114.6ZM3.33979 1114.6L4.33979 1114.6L4.33979 1097.5L3.33979 1097.5L2.33979 1097.5L2.33979 1114.6L3.33979 1114.6ZM3.33979 1097.5L3.83935 1098.37L87.1794 1050.31L86.6798 1049.44L86.1802 1048.57L2.84024 1096.63L3.33979 1097.5ZM86.6798 1049.44L87.1458 1050.33L114.146 1036.11L113.68 1035.22L113.214 1034.34L86.2138 1048.56L86.6798 1049.44ZM113.68 1035.22L114.68 1035.22L114.68 1034.5L113.68 1034.5L112.68 1034.5L112.68 1035.22L113.68 1035.22ZM113.68 1034.5L113.625 1033.5C107.02 1033.86 100.236 1034.28 93.271 1034.76L93.3398 1035.76L93.4086 1036.76C100.364 1036.28 107.139 1035.86 113.734 1035.5L113.68 1034.5ZM93.3398 1035.76L93.2698 1034.76C86.4534 1035.24 79.5768 1035.48 72.6398 1035.48L72.6398 1036.48L72.6398 1037.48C79.6228 1037.48 86.5462 1037.24 93.4098 1036.76L93.3398 1035.76ZM72.6398 1036.48L72.6398 1035.48L3.3398 1035.48L3.3398 1036.48L3.3398 1037.48L72.6398 1037.48L72.6398 1036.48ZM3.3398 1036.48L4.3398 1036.48L4.3398 1020.82L3.3398 1020.82L2.3398 1020.82L2.3398 1036.48L3.3398 1036.48Z" fill="#080052" fill-opacity="0.6" mask="url(#path-1-outside-1_313_169)"/>
</svg>
